<svg width="194" height="46" viewBox="0 0 194 46" fill="none" xmlns="http://www.w3.org/2000/svg">
<path d="M29.4967 1.65146C28.646 -0.134926 26.251 -0.611637 24.7677 0.918645C23.9727 1.73894 23.7813 2.97127 24.2339 4.01978C24.2428 4.03879 24.2504 4.05782 24.2593 4.07684C24.6751 4.98841 24.651 6.03818 24.1553 6.90919L24.1312 6.95229C24.1274 6.9599 24.1223 6.96751 24.1185 6.97512C23.212 8.53583 20.9363 8.53583 20.0298 6.97512C20.0247 6.96751 20.0209 6.9599 20.0171 6.95229L19.9626 6.85595C19.4808 6.00903 19.463 4.98714 19.8763 4.10473C19.8801 4.09585 19.8852 4.08571 19.889 4.07684C20.4443 2.85718 20.0767 1.38901 19.0028 0.585203C17.5067 -0.535567 15.3971 0.0184774 14.6313 1.69329C14.0405 2.98776 14.4994 4.5434 15.6975 5.31171C16.0944 5.56655 16.5267 5.71108 16.9616 5.75546C17.9556 5.85815 18.838 6.43755 19.3324 7.30602C19.8282 8.17703 19.8687 9.23314 19.4503 10.1447C19.4503 10.1447 19.4503 10.1473 19.4491 10.1485C19.3286 10.411 19.2475 10.6937 19.212 10.9891C19.212 10.9967 19.2107 11.0043 19.2095 11.0119C19.2082 11.0233 19.2057 11.036 19.2057 11.0474C19.2031 11.0778 19.2018 11.107 19.1993 11.1362C19.198 11.1564 19.1955 11.178 19.1942 11.1983C19.1917 11.2414 19.1917 11.2845 19.1917 11.3276C19.1917 11.3441 19.1917 11.3593 19.1917 11.3745C19.1917 11.4328 19.1942 11.4912 19.1993 11.5482C19.1993 11.552 19.1993 11.5558 19.1993 11.5584C19.2069 11.656 19.2196 11.7523 19.2361 11.8487C19.2386 11.8601 19.2412 11.8728 19.2424 11.8842C19.2488 11.9197 19.2564 11.9552 19.2652 11.9907C19.269 12.0072 19.2728 12.0249 19.2779 12.0414C19.2855 12.0693 19.2931 12.0972 19.3007 12.1251C19.3071 12.1466 19.3122 12.1682 19.3198 12.1885C19.3261 12.2075 19.3324 12.2252 19.3375 12.2443C19.6152 13.0899 20.2732 13.7619 21.1087 14.0598C21.1125 14.0611 21.1176 14.0636 21.1214 14.0649C21.1531 14.0763 21.1848 14.0864 21.2164 14.0966C21.2329 14.1016 21.2494 14.1067 21.2659 14.1118C21.2913 14.1194 21.3166 14.127 21.342 14.1333C21.3686 14.1409 21.3952 14.1473 21.4218 14.1524C21.4409 14.1562 21.4586 14.1612 21.4776 14.165C21.574 14.1853 21.6716 14.2005 21.7705 14.2119C21.7819 14.2119 21.7946 14.2145 21.806 14.2157C21.8326 14.2183 21.858 14.2208 21.8846 14.2221C21.8947 14.2221 21.9036 14.2221 21.9138 14.2221C21.9404 14.2234 21.9683 14.2246 21.9962 14.2246C22.0241 14.2246 22.0507 14.2259 22.0786 14.2259C22.1065 14.2259 22.1331 14.2259 22.161 14.2246C22.1889 14.2246 22.2155 14.2234 22.2434 14.2221C22.2535 14.2221 22.2624 14.2221 22.2726 14.2221C22.2992 14.2208 22.3245 14.217 22.3512 14.2157C22.3626 14.2157 22.3753 14.2132 22.3867 14.2119C22.4856 14.2018 22.5832 14.1853 22.6795 14.165C22.6985 14.1612 22.7163 14.1562 22.7353 14.1524C22.7619 14.146 22.7886 14.1397 22.8152 14.1333C22.8405 14.127 22.8659 14.1194 22.8913 14.1118C22.9077 14.1067 22.9242 14.1016 22.9407 14.0966C22.9724 14.0864 23.0041 14.0763 23.0358 14.0649C23.0396 14.0636 23.0447 14.0611 23.0485 14.0598C23.884 13.7619 24.542 13.0886 24.8196 12.2443C24.826 12.2252 24.8323 12.2062 24.8387 12.1885C24.845 12.1669 24.8513 12.1466 24.8564 12.1251C24.864 12.0972 24.8716 12.0693 24.8792 12.0401C24.883 12.0236 24.8868 12.0059 24.8919 11.9894C24.8995 11.9539 24.9071 11.9184 24.9147 11.8829C24.9173 11.8715 24.9198 11.8601 24.9211 11.8474C24.9376 11.7523 24.9502 11.656 24.9578 11.5571C24.9578 11.5533 24.9578 11.5495 24.9578 11.547C24.9616 11.4899 24.9642 11.4316 24.9655 11.3732C24.9655 11.3568 24.9655 11.3416 24.9655 11.3251C24.9655 11.282 24.9654 11.2389 24.9629 11.1958C24.9629 11.1742 24.9604 11.1539 24.9578 11.1324C24.9553 11.1032 24.954 11.0728 24.9515 11.0436C24.9515 11.0322 24.949 11.0195 24.9477 11.0081C24.9477 11.0005 24.9464 10.9929 24.9452 10.9853C24.9097 10.6886 24.8273 10.4072 24.7081 10.1447C24.7081 10.1434 24.7081 10.1422 24.7068 10.1409C24.2884 9.22933 24.329 8.17322 24.8247 7.30221C25.3192 6.43374 26.2016 5.85434 27.1956 5.75165C27.6368 5.70601 28.0755 5.55767 28.4774 5.29523C29.6805 4.51044 30.1218 2.94212 29.5043 1.64638L29.4967 1.65146Z" fill="#FF3B00"/>
<path d="M29.4967 42.6926C28.646 44.479 26.251 44.9557 24.7677 43.4254C23.9727 42.6051 23.7813 41.3728 24.2339 40.3243C24.2428 40.3053 24.2504 40.2862 24.2593 40.2672C24.6751 39.3556 24.651 38.3059 24.1553 37.4349L24.1312 37.3918C24.1274 37.3842 24.1223 37.3765 24.1185 37.3689C23.212 35.8082 20.9363 35.8082 20.0298 37.3689C20.0247 37.3765 20.0209 37.3842 20.0171 37.3918L19.9626 37.4881C19.4808 38.335 19.463 39.3569 19.8763 40.2393C19.8801 40.2482 19.8852 40.2583 19.889 40.2672C20.4443 41.4869 20.0767 42.955 19.0028 43.7588C17.5067 44.8796 15.3971 44.3256 14.6313 42.6508C14.0405 41.3563 14.4994 39.8006 15.6975 39.0323C16.0944 38.7775 16.5267 38.633 16.9616 38.5886C17.9556 38.4859 18.838 37.9065 19.3324 37.038C19.8282 36.167 19.8687 35.1109 19.4503 34.1993C19.4503 34.1993 19.4503 34.1968 19.4491 34.1955C19.3286 33.9331 19.2475 33.6504 19.212 33.3549C19.212 33.3473 19.2107 33.3397 19.2095 33.3321C19.2082 33.3207 19.2057 33.308 19.2057 33.2966C19.2031 33.2662 19.2018 33.237 19.1993 33.2079C19.198 33.1876 19.1955 33.1661 19.1942 33.1458C19.1917 33.1027 19.1917 33.0595 19.1917 33.0164C19.1917 33 19.1917 32.9847 19.1917 32.9695C19.1917 32.9112 19.1942 32.8529 19.1993 32.7958C19.1993 32.792 19.1993 32.7882 19.1993 32.7857C19.2069 32.6881 19.2196 32.5917 19.2361 32.4954C19.2386 32.484 19.2412 32.4713 19.2424 32.4599C19.2488 32.4244 19.2564 32.3889 19.2652 32.3534C19.269 32.3369 19.2728 32.3191 19.2779 32.3026C19.2855 32.2748 19.2931 32.2469 19.3007 32.219C19.3071 32.1974 19.3122 32.1759 19.3198 32.1556C19.3261 32.1366 19.3324 32.1188 19.3375 32.0998C19.6152 31.2541 20.2732 30.5822 21.1087 30.2842C21.1125 30.283 21.1176 30.2804 21.1214 30.2792C21.1531 30.2678 21.1848 30.2576 21.2164 30.2475C21.2329 30.2424 21.2494 30.2373 21.2659 30.2323C21.2913 30.2247 21.3166 30.2171 21.342 30.2107C21.3686 30.2031 21.3952 30.1968 21.4218 30.1917C21.4409 30.1879 21.4586 30.1828 21.4776 30.179C21.574 30.1587 21.6716 30.1435 21.7705 30.1321C21.7819 30.1321 21.7946 30.1296 21.806 30.1283C21.8326 30.1258 21.858 30.1232 21.8846 30.122C21.8947 30.122 21.9036 30.122 21.9138 30.122C21.9404 30.1207 21.9683 30.1194 21.9962 30.1194C22.0241 30.1194 22.0507 30.1182 22.0786 30.1182C22.1065 30.1182 22.1331 30.1182 22.161 30.1194C22.1889 30.1194 22.2155 30.1207 22.2434 30.122C22.2535 30.122 22.2624 30.122 22.2726 30.122C22.2992 30.1232 22.3245 30.127 22.3512 30.1283C22.3626 30.1283 22.3753 30.1308 22.3867 30.1321C22.4856 30.1423 22.5832 30.1587 22.6795 30.179C22.6985 30.1828 22.7163 30.1879 22.7353 30.1917C22.7619 30.198 22.7886 30.2044 22.8152 30.2107C22.8405 30.2171 22.8659 30.2247 22.8913 30.2323C22.9077 30.2373 22.9242 30.2424 22.9407 30.2475C22.9724 30.2576 23.0041 30.2678 23.0358 30.2792C23.0396 30.2804 23.0447 30.283 23.0485 30.2842C23.884 30.5822 24.542 31.2554 24.8196 32.0998C24.826 32.1188 24.8323 32.1378 24.8387 32.1556C24.845 32.1771 24.8513 32.1974 24.8564 32.219C24.864 32.2469 24.8716 32.2748 24.8792 32.3039C24.883 32.3204 24.8868 32.3382 24.8919 32.3546C24.8995 32.3901 24.9071 32.4256 24.9147 32.4611C24.9173 32.4725 24.9198 32.484 24.9211 32.4966C24.9376 32.5917 24.9502 32.6881 24.9578 32.787C24.9578 32.7908 24.9578 32.7946 24.9578 32.7971C24.9616 32.8542 24.9642 32.9125 24.9655 32.9708C24.9655 32.9873 24.9655 33.0025 24.9655 33.019C24.9655 33.0621 24.9654 33.1052 24.9629 33.1483C24.9629 33.1698 24.9604 33.1901 24.9578 33.2117C24.9553 33.2408 24.954 33.2713 24.9515 33.3004C24.9515 33.3118 24.949 33.3245 24.9477 33.3359C24.9477 33.3435 24.9464 33.3511 24.9452 33.3588C24.9097 33.6554 24.8273 33.9369 24.7081 34.1993C24.7081 34.2006 24.7081 34.2019 24.7068 34.2031C24.2884 35.1147 24.329 36.1708 24.8247 37.0418C25.3192 37.9103 26.2016 38.4897 27.1956 38.5924C27.6368 38.638 28.0755 38.7864 28.4774 39.0488C29.6805 39.8336 30.1218 41.4019 29.5043 42.6977L29.4967 42.6926Z" fill="#FF3B00"/>
<path d="M7.76832 5.69326C5.79302 5.56521 4.21075 7.42513 4.82566 9.46635C5.1553 10.5605 6.13787 11.3275 7.27385 11.4429C7.29414 11.4454 7.31569 11.4467 7.33598 11.448C8.33377 11.5291 9.24028 12.0616 9.75883 12.9187L9.78418 12.9605C9.78925 12.9681 9.79306 12.9757 9.79813 12.9833C10.7186 14.5352 9.61048 16.5232 7.80635 16.5548C7.79747 16.5548 7.7886 16.5548 7.77972 16.5548H7.66816C6.69446 16.5637 5.79302 16.0819 5.22376 15.2908C5.21742 15.2819 5.21235 15.2743 5.20601 15.2654C4.41107 14.1852 2.95052 13.7922 1.72579 14.3386C0.0180079 15.0994 -0.525892 17.2116 0.56445 18.6962C1.4063 19.8436 2.98983 20.1999 4.24372 19.5279C4.65957 19.3048 4.99682 18.998 5.24785 18.6404C5.82218 17.8214 6.75784 17.3333 7.7569 17.3244C8.75976 17.3155 9.70177 17.7948 10.2938 18.6037C10.2938 18.6037 10.2951 18.6062 10.2964 18.6075C10.4663 18.8408 10.6742 19.0487 10.9151 19.2249C10.9214 19.2287 10.9278 19.2338 10.9328 19.2376C10.943 19.2452 10.9519 19.2515 10.962 19.2591C10.9861 19.2769 11.0114 19.2921 11.0368 19.3086C11.0546 19.32 11.071 19.3314 11.0888 19.3428C11.1256 19.3656 11.1636 19.3872 11.2004 19.4087C11.2143 19.4163 11.227 19.4252 11.2409 19.4328C11.2916 19.4607 11.3436 19.4874 11.3956 19.5114C11.3994 19.5127 11.4019 19.5152 11.4045 19.5165C11.4932 19.5584 11.5845 19.5939 11.6758 19.6255C11.6872 19.6294 11.6986 19.6332 11.71 19.637C11.7443 19.6484 11.7785 19.6598 11.814 19.6699C11.8305 19.675 11.8482 19.6801 11.8647 19.6839C11.8926 19.6915 11.9205 19.6991 11.9496 19.7054C11.9712 19.7105 11.9928 19.7156 12.0143 19.7206C12.0333 19.7244 12.0523 19.7282 12.0726 19.732C12.9462 19.9007 13.8539 19.6547 14.5221 19.0702C14.5259 19.0677 14.5284 19.0639 14.5322 19.0614C14.5576 19.0398 14.5817 19.017 14.6058 18.9942C14.6185 18.9828 14.6311 18.9701 14.6438 18.9574C14.6628 18.9384 14.6818 18.9206 14.6996 18.9016C14.7186 18.8813 14.7376 18.8623 14.7554 18.842C14.7681 18.8281 14.7807 18.8141 14.7934 18.8002C14.8581 18.7267 14.9189 18.648 14.9772 18.5669C14.9836 18.5568 14.9912 18.5466 14.9975 18.5365C15.0128 18.5149 15.028 18.4934 15.0419 18.4718C15.047 18.4629 15.0521 18.4553 15.0571 18.4465C15.0711 18.4236 15.0863 18.3996 15.1002 18.3767C15.1142 18.3526 15.1281 18.3298 15.1421 18.3057C15.156 18.2816 15.1674 18.2576 15.1801 18.2335C15.1928 18.2094 15.2055 18.1853 15.2169 18.1599C15.2207 18.151 15.2257 18.1422 15.2295 18.1333C15.241 18.1092 15.2511 18.0851 15.2612 18.0623C15.2663 18.0509 15.2714 18.0407 15.2765 18.0293C15.3158 17.938 15.35 17.8442 15.3792 17.7504C15.3842 17.7327 15.3893 17.7137 15.3944 17.6959C15.402 17.6693 15.4096 17.6426 15.4159 17.6173C15.4223 17.5919 15.4286 17.5653 15.4349 17.5399C15.4387 17.5235 15.4425 17.5057 15.4464 17.4892C15.4527 17.4563 15.459 17.4246 15.4654 17.3916C15.4654 17.3865 15.4666 17.3827 15.4679 17.3777C15.615 16.5029 15.3475 15.6014 14.7452 14.9459C14.7313 14.932 14.7186 14.9168 14.7047 14.9028C14.6895 14.8864 14.6742 14.8712 14.6578 14.8559C14.6375 14.8357 14.6159 14.8154 14.5944 14.7951C14.5817 14.7837 14.569 14.771 14.5563 14.7596C14.5297 14.7355 14.5018 14.7114 14.4739 14.6886C14.465 14.681 14.4562 14.6734 14.446 14.6658C14.3712 14.6049 14.2926 14.5466 14.2102 14.4933C14.2077 14.4908 14.2039 14.4895 14.2013 14.4883C14.1532 14.4566 14.1037 14.4261 14.053 14.397C14.0391 14.3894 14.0251 14.3818 14.0112 14.3742C13.9731 14.3539 13.9351 14.3336 13.897 14.3133C13.878 14.3044 13.859 14.2956 13.84 14.2867C13.8134 14.274 13.7867 14.2613 13.7589 14.2486C13.7474 14.2436 13.736 14.2398 13.7259 14.2347C13.7183 14.2322 13.7119 14.2283 13.7043 14.2258C13.428 14.113 13.1414 14.047 12.8549 14.0242C12.8536 14.0242 12.8523 14.0242 12.8511 14.0242C11.852 13.9456 10.9493 13.3954 10.4295 12.5383C9.91223 11.6838 9.83616 10.6302 10.2305 9.7123C10.4054 9.30533 10.4891 8.84891 10.4561 8.37094C10.3572 6.93828 9.20224 5.78835 7.76958 5.6958L7.76832 5.69326Z" fill="#FF3B00"/>
<path d="M43.6115 25.687C44.7576 27.2997 44.007 29.6237 41.9481 30.1739C40.8438 30.4681 39.6748 30.0345 38.9801 29.1292C38.9674 29.1128 38.9547 29.0963 38.9433 29.0798C38.3499 28.2734 37.4206 27.7828 36.419 27.7917H36.3696C36.3607 27.7917 36.3518 27.7917 36.3429 27.7917C34.5388 27.8234 33.4295 29.8113 34.3512 31.3632C34.3562 31.3708 34.36 31.3784 34.3651 31.386L34.4222 31.4811C34.9268 32.3141 35.8105 32.8275 36.7829 32.896C36.793 32.896 36.8032 32.8973 36.8133 32.8985C38.1496 33.0076 39.2514 34.0447 39.4314 35.3733C39.6812 37.2269 38.1699 38.7978 36.3341 38.6507C34.9154 38.5366 33.7806 37.3778 33.6932 35.9578C33.664 35.4874 33.7477 35.0386 33.9201 34.638C34.3144 33.7201 34.2396 32.6665 33.7211 31.812C33.2012 30.9549 32.2998 30.4047 31.2995 30.3261C31.2982 30.3261 31.2969 30.3261 31.2957 30.3261C31.0079 30.3033 30.7213 30.2373 30.445 30.1232C30.4386 30.1207 30.431 30.1182 30.4247 30.1144C30.4133 30.1093 30.4019 30.1055 30.3917 30.1004C30.3638 30.089 30.3372 30.075 30.3106 30.0624C30.2915 30.0535 30.2725 30.0446 30.2535 30.0357C30.2142 30.0167 30.1762 29.9964 30.1394 29.9749C30.1255 29.9673 30.1115 29.9609 30.0976 29.9521C30.0469 29.9229 29.9974 29.8925 29.9492 29.8608C29.9467 29.8582 29.9429 29.857 29.9404 29.8557C29.858 29.8012 29.7806 29.7441 29.7045 29.6833C29.6957 29.6757 29.6868 29.6681 29.6766 29.6605C29.6488 29.6376 29.6209 29.6136 29.5942 29.5895C29.5816 29.5781 29.5689 29.5654 29.5562 29.554C29.5346 29.5337 29.5144 29.5134 29.4941 29.4931C29.4789 29.4779 29.4624 29.4614 29.4472 29.4462C29.4332 29.4323 29.4205 29.417 29.4079 29.4031C28.8044 28.7489 28.5381 27.8474 28.6852 26.9714C28.6852 26.9663 28.6865 26.9625 28.6877 26.9574C28.6928 26.9245 28.6991 26.8915 28.7068 26.8598C28.7106 26.8433 28.7144 26.8256 28.7182 26.8091C28.7245 26.7837 28.7296 26.7571 28.7372 26.7317C28.7435 26.7051 28.7511 26.6785 28.7587 26.6531C28.7638 26.6354 28.7689 26.6164 28.7739 26.5986C28.8031 26.5048 28.8373 26.4123 28.8766 26.3197C28.8817 26.3083 28.8868 26.2981 28.8919 26.2867C28.902 26.2626 28.9121 26.2386 28.9235 26.2157C28.9274 26.2069 28.9324 26.198 28.9362 26.1891C28.9476 26.165 28.9603 26.1409 28.973 26.1156C28.9857 26.0915 28.9984 26.0674 29.011 26.0433C29.0237 26.0192 29.0377 25.9964 29.0529 25.9723C29.0668 25.9482 29.0808 25.9254 29.096 25.9026C29.101 25.8937 29.1061 25.8861 29.1112 25.8772C29.1251 25.8557 29.1404 25.8341 29.1556 25.8126C29.1619 25.8024 29.1695 25.7923 29.1758 25.7821C29.2329 25.701 29.295 25.6224 29.3597 25.5489C29.3724 25.5349 29.385 25.521 29.3977 25.507C29.4167 25.4867 29.4345 25.4664 29.4535 25.4474C29.4725 25.4284 29.4903 25.4094 29.5093 25.3916C29.522 25.379 29.5346 25.3676 29.5473 25.3549C29.5714 25.3321 29.5955 25.3092 29.6209 25.2877C29.6247 25.2851 29.6285 25.2813 29.631 25.2788C30.2992 24.6943 31.2057 24.4471 32.0792 24.617C32.0982 24.6208 32.1185 24.6246 32.1375 24.6284C32.1591 24.6335 32.1806 24.6385 32.2022 24.6436C32.2301 24.65 32.2592 24.6576 32.2871 24.6652C32.3036 24.6703 32.3201 24.6741 32.3378 24.6791C32.3721 24.6893 32.4076 24.7007 32.4418 24.7121C32.4532 24.7159 32.4646 24.7197 32.476 24.7235C32.5673 24.7552 32.6573 24.7907 32.7474 24.8325C32.7512 24.8338 32.7537 24.8363 32.7575 24.8376C32.8095 24.8617 32.8615 24.8883 32.9122 24.9162C32.9261 24.9238 32.9401 24.9327 32.954 24.9403C32.9921 24.9618 33.0288 24.9834 33.0656 25.0062C33.0833 25.0176 33.1011 25.029 33.1188 25.0405C33.1442 25.0569 33.1683 25.0722 33.1936 25.0899C33.2038 25.0962 33.2127 25.1039 33.2228 25.1115C33.2291 25.1165 33.2355 25.1203 33.2418 25.1254C33.4827 25.3004 33.6906 25.5096 33.8605 25.7428C33.8605 25.7428 33.8618 25.7454 33.8631 25.7466C34.4551 26.5555 35.3971 27.0348 36.4 27.0259C37.3991 27.017 38.3347 26.5289 38.9091 25.7099C39.1639 25.3473 39.5075 25.0354 39.9322 24.8122C41.2026 24.1441 42.7874 24.5219 43.6191 25.6934L43.6115 25.687Z" fill="#FF3B00"/>
<path d="M7.76832 38.652C5.79302 38.7801 4.21075 36.9202 4.82566 34.8789C5.1553 33.7848 6.13787 33.0178 7.27385 32.9024C7.29414 32.8999 7.31569 32.8986 7.33598 32.8973C8.33377 32.8162 9.24028 32.2837 9.75883 31.4266L9.78418 31.3848C9.78925 31.3772 9.79306 31.3696 9.79813 31.362C10.7186 29.8101 9.61048 27.8222 7.80635 27.7905C7.79747 27.7905 7.7886 27.7905 7.77972 27.7905H7.66816C6.69446 27.7816 5.79302 28.2634 5.22376 29.0545C5.21742 29.0634 5.21235 29.071 5.20601 29.0798C4.41107 30.16 2.95052 30.5531 1.72579 30.0066C0.0180079 29.2459 -0.525892 27.1337 0.56445 25.6491C1.4063 24.5017 2.98983 24.1454 4.24372 24.8174C4.65957 25.0405 4.99682 25.3473 5.24785 25.7049C5.82218 26.5239 6.75784 27.012 7.7569 27.0209C8.75976 27.0298 9.70177 26.5505 10.2938 25.7416C10.2938 25.7416 10.2951 25.7391 10.2964 25.7378C10.4663 25.5045 10.6742 25.2966 10.9151 25.1204C10.9214 25.1166 10.9278 25.1115 10.9328 25.1077C10.943 25.1001 10.9519 25.0938 10.962 25.0862C10.9861 25.0684 11.0114 25.0532 11.0368 25.0367C11.0546 25.0253 11.071 25.0139 11.0888 25.0025C11.1256 24.9797 11.1636 24.9581 11.2004 24.9366C11.2143 24.929 11.227 24.9201 11.2409 24.9125C11.2916 24.8846 11.3436 24.8579 11.3956 24.8339C11.3994 24.8326 11.4019 24.83 11.4045 24.8288C11.4932 24.7869 11.5845 24.7514 11.6758 24.7197C11.6872 24.7159 11.6986 24.7121 11.71 24.7083C11.7443 24.6969 11.7785 24.6855 11.814 24.6754C11.8305 24.6703 11.8482 24.6652 11.8647 24.6614C11.8926 24.6538 11.9205 24.6462 11.9496 24.6399C11.9712 24.6348 11.9928 24.6297 12.0143 24.6247C12.0333 24.6209 12.0523 24.6171 12.0726 24.6133C12.9462 24.4446 13.8539 24.6906 14.5221 25.2751C14.5259 25.2776 14.5284 25.2814 14.5322 25.2839C14.5576 25.3055 14.5817 25.3283 14.6058 25.3511C14.6185 25.3625 14.6311 25.3752 14.6438 25.3879C14.6628 25.4069 14.6818 25.4247 14.6996 25.4437C14.7186 25.464 14.7376 25.483 14.7554 25.5033C14.7681 25.5172 14.7807 25.5312 14.7934 25.5451C14.8581 25.6186 14.9189 25.6973 14.9772 25.7784C14.9836 25.7885 14.9912 25.7987 14.9975 25.8088C15.0128 25.8304 15.028 25.8519 15.0419 25.8735C15.047 25.8824 15.0521 25.89 15.0571 25.8988C15.0711 25.9217 15.0863 25.9458 15.1002 25.9686C15.1142 25.9927 15.1281 26.0155 15.1421 26.0396C15.156 26.0637 15.1674 26.0877 15.1801 26.1118C15.1928 26.1359 15.2055 26.16 15.2169 26.1854C15.2207 26.1943 15.2257 26.2031 15.2295 26.212C15.241 26.2361 15.2511 26.2602 15.2612 26.283C15.2663 26.2944 15.2714 26.3046 15.2765 26.316C15.3158 26.4073 15.35 26.5011 15.3792 26.5949C15.3842 26.6126 15.3893 26.6317 15.3944 26.6494C15.402 26.676 15.4096 26.7027 15.4159 26.728C15.4223 26.7534 15.4286 26.78 15.4349 26.8054C15.4387 26.8218 15.4425 26.8396 15.4464 26.8561C15.4527 26.889 15.459 26.9207 15.4654 26.9537C15.4654 26.9588 15.4666 26.9626 15.4679 26.9676C15.615 27.8424 15.3475 28.7439 14.7452 29.3993C14.7313 29.4133 14.7186 29.4285 14.7047 29.4424C14.6895 29.4589 14.6742 29.4741 14.6578 29.4894C14.6375 29.5096 14.6159 29.5299 14.5944 29.5502C14.5817 29.5616 14.569 29.5743 14.5563 29.5857C14.5297 29.6098 14.5018 29.6339 14.4739 29.6567C14.465 29.6643 14.4562 29.6719 14.446 29.6795C14.3712 29.7404 14.2926 29.7987 14.2102 29.852C14.2077 29.8545 14.2039 29.8558 14.2013 29.857C14.1532 29.8887 14.1037 29.9192 14.053 29.9483C14.0391 29.9559 14.0251 29.9635 14.0112 29.9711C13.9731 29.9914 13.9351 30.0117 13.897 30.032C13.878 30.0409 13.859 30.0497 13.84 30.0586C13.8134 30.0713 13.7867 30.084 13.7589 30.0967C13.7474 30.1017 13.736 30.1055 13.7259 30.1106C13.7183 30.1131 13.7119 30.117 13.7043 30.1195C13.428 30.2323 13.1414 30.2982 12.8549 30.3211C12.8536 30.3211 12.8523 30.3211 12.8511 30.3211C11.852 30.3997 10.9493 30.9499 10.4295 31.807C9.91223 32.6615 9.83616 33.7151 10.2305 34.633C10.4054 35.04 10.4891 35.4964 10.4561 35.9744C10.3572 37.407 9.20224 38.5569 7.76958 38.6495L7.76832 38.652Z" fill="#FF3B00"/>
<path d="M43.6115 18.6583C44.7576 17.0456 44.007 14.7216 41.9481 14.1714C40.8438 13.8773 39.6748 14.3109 38.9801 15.2161C38.9674 15.2326 38.9547 15.2491 38.9433 15.2655C38.3499 16.0719 37.4206 16.5625 36.419 16.5537H36.3696C36.3607 16.5537 36.3518 16.5537 36.3429 16.5537C34.5388 16.522 33.4295 14.534 34.3512 12.9822C34.3562 12.9745 34.36 12.9669 34.3651 12.9593L34.4222 12.8642C34.9268 12.0313 35.8105 11.5178 36.7829 11.4493C36.793 11.4493 36.8032 11.4481 36.8133 11.4468C38.1496 11.3378 39.2514 10.3007 39.4314 8.97198C39.6812 7.1184 38.1699 5.54755 36.3341 5.69462C34.9154 5.80872 33.7806 6.96753 33.6932 8.38751C33.664 8.85788 33.7477 9.30669 33.9201 9.70733C34.3144 10.6252 34.2396 11.6788 33.7211 12.5333C33.2012 13.3904 32.2998 13.9406 31.2995 14.0193C31.2982 14.0193 31.2969 14.0193 31.2957 14.0193C31.0079 14.0421 30.7213 14.108 30.445 14.2221C30.4386 14.2246 30.431 14.2272 30.4247 14.231C30.4133 14.236 30.4019 14.2398 30.3917 14.2449C30.3638 14.2563 30.3372 14.2703 30.3106 14.283C30.2915 14.2918 30.2725 14.3007 30.2535 14.3096C30.2142 14.3286 30.1762 14.3489 30.1394 14.3704C30.1255 14.378 30.1115 14.3844 30.0976 14.3933C30.0469 14.4224 29.9974 14.4528 29.9492 14.4845C29.9467 14.4871 29.9429 14.4884 29.9404 14.4896C29.858 14.5441 29.7806 14.6012 29.7045 14.662C29.6957 14.6697 29.6868 14.6773 29.6766 14.6849C29.6488 14.7077 29.6209 14.7318 29.5942 14.7559C29.5816 14.7673 29.5689 14.78 29.5562 14.7914C29.5346 14.8117 29.5144 14.8319 29.4941 14.8522C29.4789 14.8674 29.4624 14.8839 29.4472 14.8991C29.4332 14.9131 29.4205 14.9283 29.4079 14.9422C28.8044 15.5964 28.5381 16.4979 28.6852 17.374C28.6852 17.379 28.6865 17.3828 28.6877 17.3879C28.6928 17.4209 28.6991 17.4538 28.7068 17.4855C28.7106 17.502 28.7144 17.5198 28.7182 17.5362C28.7245 17.5616 28.7296 17.5882 28.7372 17.6136C28.7435 17.6402 28.7511 17.6668 28.7587 17.6922C28.7638 17.7099 28.7689 17.7289 28.7739 17.7467C28.8031 17.8405 28.8373 17.9331 28.8766 18.0256C28.8817 18.037 28.8868 18.0472 28.8919 18.0586C28.902 18.0827 28.9121 18.1068 28.9235 18.1296C28.9274 18.1385 28.9324 18.1473 28.9362 18.1562C28.9476 18.1803 28.9603 18.2044 28.973 18.2297C28.9857 18.2538 28.9984 18.2779 29.011 18.302C29.0237 18.3261 29.0377 18.3489 29.0529 18.373C29.0668 18.3971 29.0808 18.4199 29.096 18.4427C29.101 18.4516 29.1061 18.4592 29.1112 18.4681C29.1251 18.4897 29.1404 18.5112 29.1556 18.5328C29.1619 18.5429 29.1695 18.553 29.1758 18.5632C29.2329 18.6443 29.295 18.7229 29.3597 18.7965C29.3724 18.8104 29.385 18.8244 29.3977 18.8383C29.4167 18.8586 29.4345 18.8789 29.4535 18.8979C29.4725 18.9169 29.4903 18.9359 29.5093 18.9537C29.522 18.9664 29.5346 18.9778 29.5473 18.9904C29.5714 19.0133 29.5955 19.0361 29.6209 19.0576C29.6247 19.0602 29.6285 19.064 29.631 19.0665C30.2992 19.651 31.2057 19.8982 32.0792 19.7283C32.0982 19.7245 32.1185 19.7207 32.1375 19.7169C32.1591 19.7118 32.1806 19.7068 32.2022 19.7017C32.2301 19.6954 32.2592 19.6878 32.2871 19.6801C32.3036 19.6751 32.3201 19.6713 32.3378 19.6662C32.3721 19.6561 32.4076 19.6446 32.4418 19.6332C32.4532 19.6294 32.4646 19.6256 32.476 19.6218C32.5673 19.5901 32.6573 19.5546 32.7474 19.5128C32.7512 19.5115 32.7537 19.509 32.7575 19.5077C32.8095 19.4836 32.8615 19.457 32.9122 19.4291C32.9261 19.4215 32.9401 19.4126 32.954 19.405C32.9921 19.3835 33.0288 19.3619 33.0656 19.3391C33.0833 19.3277 33.1011 19.3163 33.1188 19.3049C33.1442 19.2884 33.1683 19.2732 33.1936 19.2554C33.2038 19.2491 33.2127 19.2415 33.2228 19.2339C33.2291 19.2288 33.2355 19.225 33.2418 19.2199C33.4827 19.045 33.6906 18.8358 33.8605 18.6025C33.8605 18.6025 33.8618 18.6 33.8631 18.5987C34.4551 17.7898 35.3971 17.3106 36.4 17.3194C37.3991 17.3283 38.3347 17.8164 38.9091 18.6354C39.1639 18.9981 39.5075 19.3099 39.9322 19.5331C41.2026 20.2012 42.7874 19.8234 43.6191 18.6519L43.6115 18.6583Z" fill="#FF3B00"/>
<path d="M52.0159 11.9021H72.4788V16.6578H64.9947V37.7102H59.4644V16.6578H52.0171V11.9021H52.0159Z" fill="#060607"/>
<path d="M70.9663 28.2357C70.9663 22.41 74.9118 18.5393 80.9582 18.5393C87.0045 18.5393 90.95 22.41 90.95 28.2357C90.95 34.0615 87.0045 37.9322 80.9582 37.9322C74.9118 37.9322 70.9663 34.0615 70.9663 28.2357ZM85.6771 28.2357C85.6771 25.0281 83.8704 22.779 80.9582 22.779C78.0459 22.779 76.276 25.0281 76.276 28.2357C76.276 31.4434 78.0459 33.6925 80.9582 33.6925C83.8704 33.6925 85.6771 31.4434 85.6771 28.2357Z" fill="#060607"/>
<path d="M113.512 28.2723C113.512 34.1715 109.826 37.932 104.738 37.932C102.12 37.932 100.239 36.8632 99.0236 35.3139V45.0838H93.8254V18.7597H98.3605L98.8765 21.3778C100.094 19.7549 102.011 18.5391 104.702 18.5391C109.827 18.5023 113.514 22.2995 113.514 28.2723H113.512ZM108.241 28.1988C108.241 24.9911 106.397 22.7787 103.559 22.7787C100.72 22.7787 98.95 24.9911 98.95 28.1988C98.95 31.4064 100.72 33.6923 103.559 33.6923C106.397 33.6923 108.241 31.4432 108.241 28.1988Z" fill="#060607"/>
<path d="M115.762 24.8073C115.762 16.8808 120.592 11.6814 128.408 11.6814C134.528 11.6814 138.843 15.5153 139.506 21.1205H133.902C133.239 18.245 131.174 16.3648 128.113 16.3648C123.91 16.3648 121.402 19.8311 121.402 24.8073C121.402 29.7836 123.872 33.2499 128.038 33.2499C131.172 33.2499 133.236 31.3697 133.901 28.4942H139.468C138.842 34.0981 134.38 37.9333 128.075 37.9333C120.406 37.9333 115.76 32.7351 115.76 24.8073H115.762Z" fill="#060607"/>
<path d="M141.461 28.2357C141.461 22.41 145.406 18.5393 151.453 18.5393C157.499 18.5393 161.444 22.41 161.444 28.2357C161.444 34.0615 157.499 37.9322 151.453 37.9322C145.406 37.9322 141.461 34.0615 141.461 28.2357ZM156.171 28.2357C156.171 25.0281 154.365 22.779 151.453 22.779C148.54 22.779 146.77 25.0281 146.77 28.2357C146.77 31.4434 148.54 33.6925 151.453 33.6925C154.365 33.6925 156.171 31.4434 156.171 28.2357Z" fill="#060607"/>
<path d="M193.999 26.8347V37.7115H188.8V27.1301C188.8 24.2914 187.768 22.8169 185.519 22.8169C183.27 22.8169 181.759 24.4765 181.759 27.352V37.7115H176.561V27.1301C176.561 24.2914 175.529 22.8169 173.243 22.8169C170.957 22.8169 169.519 24.5501 169.519 27.3888V37.7115H164.321V18.7611H168.856L169.335 21.1205C170.479 19.646 172.137 18.576 174.902 18.5392C177.225 18.5025 179.401 19.3506 180.58 21.7469C181.907 19.7196 184.12 18.5392 186.995 18.5392C190.903 18.5392 194 20.7516 194 26.8347H193.999Z" fill="#060607"/>
</svg>
