<svg width="197" height="51" viewBox="0 0 197 51" fill="none" xmlns="http://www.w3.org/2000/svg">
<path d="M103.632 42.603H104.56L106.435 45.7618L108.338 42.603H109.23L106.828 46.6168V48.9743H106.037V46.6168L103.634 42.603H103.632Z" fill="white"/>
<path d="M108.865 46.6533C108.865 45.2421 109.811 44.2783 111.168 44.2783C112.524 44.2783 113.47 45.2433 113.47 46.6533C113.47 48.0633 112.524 49.0283 111.168 49.0283C109.811 49.0283 108.865 48.0633 108.865 46.6533ZM112.706 46.6533C112.706 45.6608 112.088 44.9421 111.168 44.9421C110.248 44.9421 109.629 45.6608 109.629 46.6533C109.629 47.6458 110.248 48.3646 111.168 48.3646C112.088 48.3646 112.706 47.6458 112.706 46.6533Z" fill="white"/>
<path d="M117.575 44.333H118.321V48.9755H117.675L117.575 48.3568C117.303 48.703 116.856 49.0305 116.091 49.0305C115.071 49.0305 114.261 48.4568 114.261 46.9193V44.3343H115.008V46.8743C115.008 47.8393 115.445 48.3493 116.218 48.3493C117.064 48.3493 117.574 47.703 117.574 46.6568V44.3355L117.575 44.333Z" fill="white"/>
<path d="M121.699 44.333V45.0618H121.325C120.352 45.0618 120.088 45.8718 120.088 46.6093V48.9755H119.342V44.333H119.988L120.088 45.0343C120.307 44.6793 120.662 44.333 121.489 44.333H121.698H121.699Z" fill="white"/>
<path d="M128.488 44.3331H129.134V48.748C129.134 50.0855 128.424 50.8506 126.832 50.8506C125.648 50.8506 124.82 50.2955 124.702 49.2755H125.467C125.594 49.858 126.113 50.1855 126.887 50.1855C127.86 50.1855 128.388 49.7306 128.388 48.7206V48.1743C128.078 48.7018 127.578 49.0293 126.795 49.0293C125.512 49.0293 124.565 48.1643 124.565 46.6543C124.565 45.2343 125.512 44.2793 126.795 44.2793C127.578 44.2793 128.097 44.6156 128.388 45.1343L128.488 44.3331ZM128.397 46.6718C128.397 45.6518 127.778 44.9431 126.868 44.9431C125.958 44.9431 125.329 45.6443 125.329 46.6543C125.329 47.6643 125.948 48.3656 126.868 48.3656C127.788 48.3656 128.397 47.6643 128.397 46.673V46.6718Z" fill="white"/>
<path d="M129.99 46.6533C129.99 45.2421 130.936 44.2783 132.293 44.2783C133.649 44.2783 134.595 45.2433 134.595 46.6533C134.595 48.0633 133.649 49.0283 132.293 49.0283C130.936 49.0283 129.99 48.0633 129.99 46.6533ZM133.83 46.6533C133.83 45.6608 133.211 44.9421 132.291 44.9421C131.371 44.9421 130.753 45.6608 130.753 46.6533C130.753 47.6458 131.371 48.3646 132.291 48.3646C133.211 48.3646 133.83 47.6458 133.83 46.6533Z" fill="white"/>
<path d="M139.793 48.2919V48.9744H139.383C138.764 48.9744 138.554 48.7106 138.545 48.2556C138.254 48.6744 137.79 49.0294 136.989 49.0294C135.969 49.0294 135.278 48.5194 135.278 47.6731C135.278 46.7444 135.924 46.2256 137.144 46.2256H138.509V45.9069C138.509 45.3056 138.081 44.9419 137.353 44.9419C136.698 44.9419 136.26 45.2519 136.169 45.7244H135.423C135.531 44.8144 136.269 44.2769 137.389 44.2769C138.573 44.2769 139.255 44.8681 139.255 45.9519V47.9819C139.255 48.2281 139.346 48.2919 139.555 48.2919H139.791H139.793ZM138.509 46.8544H137.071C136.406 46.8544 136.034 47.1006 136.034 47.6281C136.034 48.0831 136.425 48.3931 137.044 48.3931C137.973 48.3931 138.509 47.8556 138.509 47.0819V46.8544Z" fill="white"/>
<path d="M140.365 42.603H141.111V48.9743H140.365V42.603Z" fill="white"/>
<path d="M142.704 47.4459C142.732 47.9922 143.214 48.3922 143.988 48.3922C144.643 48.3922 145.108 48.1097 145.108 47.6822C145.108 47.0997 144.598 47.0547 143.907 46.9722C142.869 46.8447 142.04 46.6359 142.04 45.6709C142.04 44.8247 142.814 44.2697 143.86 44.2784C144.917 44.2872 145.68 44.7784 145.754 45.7434H144.989C144.934 45.2697 144.498 44.9147 143.86 44.9147C143.223 44.9147 142.777 45.1872 142.777 45.6159C142.777 46.1259 143.268 46.1897 143.942 46.2709C144.998 46.3984 145.844 46.5984 145.844 47.6272C145.844 48.4922 145.015 49.0284 143.988 49.0284C142.787 49.0284 141.958 48.4647 141.94 47.4447H142.705L142.704 47.4459Z" fill="white"/>
<path d="M147.655 48.9468C147.655 49.7206 147.173 50.1843 146.372 50.2031V49.7756C146.954 49.7668 147.137 49.3568 147.137 49.0468C147.137 49.0018 147.137 48.9643 147.128 48.9281C147.055 49.0006 146.928 49.0368 146.818 49.0368C146.545 49.0368 146.335 48.8731 146.335 48.5456C146.335 48.2456 146.554 48.0181 146.937 48.0181C147.383 48.0181 147.655 48.4456 147.655 48.9468Z" fill="white"/>
<path d="M150.695 46.6533C150.695 45.2421 151.642 44.2783 152.998 44.2783C154.354 44.2783 155.3 45.2433 155.3 46.6533C155.3 48.0633 154.354 49.0283 152.998 49.0283C151.642 49.0283 150.695 48.0633 150.695 46.6533ZM154.537 46.6533C154.537 45.6608 153.918 44.9421 152.998 44.9421C152.078 44.9421 151.459 45.6608 151.459 46.6533C151.459 47.6458 152.078 48.3646 152.998 48.3646C153.918 48.3646 154.537 47.6458 154.537 46.6533Z" fill="white"/>
<path d="M159.405 44.333H160.152V48.9755H159.505L159.405 48.3568C159.133 48.703 158.687 49.0305 157.922 49.0305C156.902 49.0305 156.092 48.4568 156.092 46.9193V44.3343H156.838V46.8743C156.838 47.8393 157.275 48.3493 158.048 48.3493C158.894 48.3493 159.404 47.703 159.404 46.6568V44.3355L159.405 44.333Z" fill="white"/>
<path d="M163.529 44.333V45.0618H163.155C162.182 45.0618 161.918 45.8718 161.918 46.6093V48.9755H161.172V44.333H161.818L161.918 45.0343C162.137 44.6793 162.492 44.333 163.319 44.333H163.528H163.529Z" fill="white"/>
<path d="M173.495 46.2983V48.9746H172.749V46.3446C172.749 45.4346 172.349 44.9608 171.648 44.9608C170.874 44.9608 170.4 45.5433 170.4 46.4896V48.9746H169.654V46.3446C169.654 45.4346 169.244 44.9608 168.534 44.9608C167.769 44.9608 167.305 45.5983 167.305 46.5258V48.9746H166.559V44.3321H167.205L167.305 44.9696C167.551 44.6333 167.943 44.2783 168.661 44.2783C169.308 44.2783 169.863 44.5696 170.126 45.1608C170.409 44.6608 170.909 44.2783 171.738 44.2783C172.703 44.2783 173.494 44.8333 173.494 46.2983H173.495Z" fill="white"/>
<path d="M174.35 43.067C174.35 42.7845 174.559 42.5845 174.833 42.5845C175.107 42.5845 175.315 42.7845 175.315 43.067C175.315 43.3495 175.107 43.5495 174.833 43.5495C174.559 43.5495 174.35 43.3495 174.35 43.067ZM174.45 44.3332H175.197V48.9757H174.45V44.3332Z" fill="white"/>
<path d="M176.789 47.4459C176.817 47.9922 177.299 48.3922 178.073 48.3922C178.728 48.3922 179.193 48.1097 179.193 47.6822C179.193 47.0997 178.683 47.0547 177.992 46.9722C176.954 46.8447 176.125 46.6359 176.125 45.6709C176.125 44.8247 176.899 44.2697 177.945 44.2784C179.002 44.2872 179.765 44.7784 179.839 45.7434H179.074C179.019 45.2697 178.583 44.9147 177.945 44.9147C177.308 44.9147 176.862 45.1872 176.862 45.6159C176.862 46.1259 177.353 46.1897 178.027 46.2709C179.083 46.3984 179.929 46.5984 179.929 47.6272C179.929 48.4922 179.1 49.0284 178.073 49.0284C176.872 49.0284 176.043 48.4647 176.025 47.4447H176.79L176.789 47.4459Z" fill="white"/>
<path d="M181.24 47.4459C181.268 47.9922 181.75 48.3922 182.524 48.3922C183.179 48.3922 183.644 48.1097 183.644 47.6822C183.644 47.0997 183.134 47.0547 182.443 46.9722C181.405 46.8447 180.577 46.6359 180.577 45.6709C180.577 44.8247 181.35 44.2697 182.397 44.2784C183.453 44.2872 184.217 44.7784 184.29 45.7434H183.525C183.47 45.2697 183.034 44.9147 182.397 44.9147C181.759 44.9147 181.313 45.1872 181.313 45.6159C181.313 46.1259 181.804 46.1897 182.478 46.2709C183.534 46.3984 184.38 46.5984 184.38 47.6272C184.38 48.4922 183.552 49.0284 182.524 49.0284C181.323 49.0284 180.494 48.4647 180.477 47.4447H181.242L181.24 47.4459Z" fill="white"/>
<path d="M185.108 43.067C185.108 42.7845 185.317 42.5845 185.59 42.5845C185.864 42.5845 186.073 42.7845 186.073 43.067C186.073 43.3495 185.864 43.5495 185.59 43.5495C185.317 43.5495 185.108 43.3495 185.108 43.067ZM185.208 44.3332H185.954V48.9757H185.208V44.3332Z" fill="white"/>
<path d="M186.81 46.6533C186.81 45.2421 187.757 44.2783 189.113 44.2783C190.469 44.2783 191.415 45.2433 191.415 46.6533C191.415 48.0633 190.469 49.0283 189.113 49.0283C187.757 49.0283 186.81 48.0633 186.81 46.6533ZM190.65 46.6533C190.65 45.6608 190.032 44.9421 189.112 44.9421C188.192 44.9421 187.573 45.6608 187.573 46.6533C187.573 47.6458 188.192 48.3646 189.112 48.3646C190.032 48.3646 190.65 47.6458 190.65 46.6533Z" fill="white"/>
<path d="M196.421 46.3896V48.9746H195.675V46.4346C195.675 45.4696 195.229 44.9596 194.419 44.9596C193.545 44.9596 193.018 45.6059 193.018 46.6521V48.9734H192.271V44.3309H192.918L193.018 44.9584C193.29 44.6034 193.764 44.2759 194.546 44.2759C195.593 44.2759 196.421 44.8496 196.421 46.3871V46.3896Z" fill="white"/>
<path d="M29.0815 1.62822C28.2428 -0.133027 25.8815 -0.603031 24.419 0.905719C23.6353 1.71447 23.4465 2.92946 23.8928 3.96321C23.9015 3.98196 23.909 4.00072 23.9178 4.01947C24.3278 4.91822 24.304 5.95322 23.8153 6.81197L23.7915 6.85447C23.7878 6.86197 23.7828 6.86947 23.779 6.87697C22.8853 8.41572 20.6415 8.41572 19.7478 6.87697C19.7428 6.86947 19.739 6.86197 19.7353 6.85447L19.6815 6.75948C19.2065 5.92448 19.189 4.91697 19.5965 4.04697C19.6003 4.03822 19.6053 4.02822 19.609 4.01947C20.1565 2.81697 19.794 1.36947 18.7353 0.576969C17.2603 -0.528031 15.1803 0.0182174 14.4253 1.66947C13.8428 2.94572 14.2953 4.47947 15.4765 5.23697C15.8678 5.48822 16.294 5.63072 16.7228 5.67447C17.7028 5.77572 18.5728 6.34697 19.0603 7.20322C19.549 8.06197 19.589 9.10322 19.1765 10.002C19.1765 10.002 19.1765 10.0045 19.1753 10.0057C19.0565 10.2645 18.9765 10.5432 18.9415 10.8345C18.9415 10.842 18.9403 10.8495 18.939 10.857C18.9378 10.8682 18.9353 10.8807 18.9353 10.892C18.9328 10.922 18.9315 10.9507 18.929 10.9795C18.9278 10.9995 18.9253 11.0207 18.924 11.0407C18.9215 11.0832 18.9215 11.1257 18.9215 11.1682C18.9215 11.1845 18.9215 11.1995 18.9215 11.2145C18.9215 11.272 18.924 11.3295 18.929 11.3857C18.929 11.3895 18.929 11.3932 18.929 11.3957C18.9365 11.492 18.949 11.587 18.9653 11.682C18.9678 11.6932 18.9703 11.7057 18.9715 11.717C18.9778 11.752 18.9853 11.787 18.994 11.822C18.9978 11.8382 19.0015 11.8557 19.0065 11.872C19.014 11.8995 19.0215 11.927 19.029 11.9545C19.0353 11.9757 19.0403 11.997 19.0478 12.017C19.054 12.0357 19.0603 12.0532 19.0653 12.072C19.339 12.9057 19.9878 13.5682 20.8115 13.862C20.8153 13.8632 20.8203 13.8657 20.824 13.867C20.8553 13.8782 20.8865 13.8882 20.9178 13.8982C20.934 13.9032 20.9503 13.9082 20.9665 13.9132C20.9915 13.9207 21.0165 13.9282 21.0415 13.9345C21.0678 13.942 21.094 13.9482 21.1203 13.9532C21.139 13.957 21.1565 13.962 21.1753 13.9657C21.2703 13.9857 21.3665 14.0007 21.464 14.012C21.4753 14.012 21.4878 14.0145 21.499 14.0157C21.5253 14.0182 21.5503 14.0207 21.5765 14.022C21.5865 14.022 21.5953 14.022 21.6053 14.022C21.6315 14.0232 21.659 14.0245 21.6865 14.0245C21.714 14.0245 21.7403 14.0257 21.7678 14.0257C21.7953 14.0257 21.8215 14.0257 21.849 14.0245C21.8765 14.0245 21.9028 14.0232 21.9303 14.022C21.9403 14.022 21.949 14.022 21.959 14.022C21.9853 14.0207 22.0103 14.017 22.0365 14.0157C22.0478 14.0157 22.0603 14.0132 22.0715 14.012C22.169 14.002 22.2653 13.9857 22.3603 13.9657C22.379 13.962 22.3965 13.957 22.4153 13.9532C22.4415 13.947 22.4678 13.9407 22.494 13.9345C22.519 13.9282 22.544 13.9207 22.569 13.9132C22.5853 13.9082 22.6015 13.9032 22.6178 13.8982C22.649 13.8882 22.6803 13.8782 22.7115 13.867C22.7153 13.8657 22.7203 13.8632 22.724 13.862C23.5478 13.5682 24.1965 12.9045 24.4703 12.072C24.4765 12.0532 24.4828 12.0345 24.489 12.017C24.4953 11.9957 24.5015 11.9757 24.5065 11.9545C24.514 11.927 24.5215 11.8995 24.529 11.8707C24.5328 11.8545 24.5365 11.837 24.5415 11.8207C24.549 11.7857 24.5565 11.7507 24.564 11.7157C24.5665 11.7045 24.569 11.6932 24.5703 11.6807C24.5865 11.587 24.599 11.492 24.6065 11.3945C24.6065 11.3907 24.6065 11.387 24.6065 11.3845C24.6103 11.3282 24.6128 11.2707 24.614 11.2132C24.614 11.197 24.614 11.182 24.614 11.1657C24.614 11.1232 24.614 11.0807 24.6115 11.0382C24.6115 11.017 24.609 10.997 24.6065 10.9757C24.604 10.947 24.6028 10.917 24.6003 10.8882C24.6003 10.877 24.5978 10.8645 24.5965 10.8532C24.5965 10.8457 24.5953 10.8382 24.594 10.8307C24.559 10.5382 24.4778 10.2607 24.3603 10.002C24.3603 10.0007 24.3603 9.99947 24.359 9.99822C23.9465 9.09947 23.9865 8.05822 24.4753 7.19947C24.9628 6.34322 25.8328 5.77197 26.8128 5.67072C27.2478 5.62572 27.6803 5.47947 28.0765 5.22072C29.2628 4.44697 29.6978 2.90072 29.089 1.62322L29.0815 1.62822Z" fill="white"/>
<path d="M29.0815 42.0918C28.2428 43.8531 25.8815 44.3231 24.419 42.8143C23.6353 42.0056 23.4465 40.7906 23.8928 39.7568C23.9015 39.7381 23.909 39.7193 23.9178 39.7006C24.3278 38.8018 24.304 37.7668 23.8153 36.9081L23.7915 36.8656C23.7878 36.8581 23.7828 36.8506 23.779 36.8431C22.8853 35.3043 20.6415 35.3043 19.7478 36.8431C19.7428 36.8506 19.739 36.8581 19.7353 36.8656L19.6815 36.9606C19.2065 37.7956 19.189 38.8031 19.5965 39.6731C19.6003 39.6818 19.6053 39.6918 19.609 39.7006C20.1565 40.9031 19.794 42.3506 18.7353 43.1431C17.2603 44.2481 15.1803 43.7018 14.4253 42.0506C13.8428 40.7743 14.2953 39.2406 15.4765 38.4831C15.8678 38.2318 16.294 38.0893 16.7228 38.0456C17.7028 37.9443 18.5728 37.3731 19.0603 36.5168C19.549 35.6581 19.589 34.6168 19.1765 33.7181C19.1765 33.7181 19.1765 33.7156 19.1753 33.7143C19.0565 33.4556 18.9765 33.1768 18.9415 32.8856C18.9415 32.8781 18.9403 32.8706 18.939 32.8631C18.9378 32.8518 18.9353 32.8393 18.9353 32.8281C18.9328 32.7981 18.9315 32.7693 18.929 32.7406C18.9278 32.7206 18.9253 32.6993 18.924 32.6793C18.9215 32.6368 18.9215 32.5943 18.9215 32.5518C18.9215 32.5356 18.9215 32.5206 18.9215 32.5056C18.9215 32.4481 18.924 32.3906 18.929 32.3343C18.929 32.3306 18.929 32.3268 18.929 32.3243C18.9365 32.2281 18.949 32.1331 18.9653 32.0381C18.9678 32.0268 18.9703 32.0143 18.9715 32.0031C18.9778 31.9681 18.9853 31.9331 18.994 31.8981C18.9978 31.8818 19.0015 31.8643 19.0065 31.8481C19.014 31.8206 19.0215 31.7931 19.029 31.7656C19.0353 31.7443 19.0403 31.7231 19.0478 31.7031C19.054 31.6843 19.0603 31.6668 19.0653 31.6481C19.339 30.8143 19.9878 30.1518 20.8115 29.8581C20.8153 29.8568 20.8203 29.8543 20.824 29.8531C20.8553 29.8418 20.8865 29.8318 20.9178 29.8218C20.934 29.8168 20.9503 29.8118 20.9665 29.8068C20.9915 29.7993 21.0165 29.7918 21.0415 29.7856C21.0678 29.7781 21.094 29.7718 21.1203 29.7668C21.139 29.7631 21.1565 29.7581 21.1753 29.7543C21.2703 29.7343 21.3665 29.7193 21.464 29.7081C21.4753 29.7081 21.4878 29.7056 21.499 29.7043C21.5253 29.7018 21.5503 29.6993 21.5765 29.6981C21.5865 29.6981 21.5953 29.6981 21.6053 29.6981C21.6315 29.6968 21.659 29.6956 21.6865 29.6956C21.714 29.6956 21.7403 29.6943 21.7678 29.6943C21.7953 29.6943 21.8215 29.6943 21.849 29.6956C21.8765 29.6956 21.9028 29.6968 21.9303 29.6981C21.9403 29.6981 21.949 29.6981 21.959 29.6981C21.9853 29.6993 22.0103 29.7031 22.0365 29.7043C22.0478 29.7043 22.0603 29.7068 22.0715 29.7081C22.169 29.7181 22.2653 29.7343 22.3603 29.7543C22.379 29.7581 22.3965 29.7631 22.4153 29.7668C22.4415 29.7731 22.4678 29.7793 22.494 29.7856C22.519 29.7918 22.544 29.7993 22.569 29.8068C22.5853 29.8118 22.6015 29.8168 22.6178 29.8218C22.649 29.8318 22.6803 29.8418 22.7115 29.8531C22.7153 29.8543 22.7203 29.8568 22.724 29.8581C23.5478 30.1518 24.1965 30.8156 24.4703 31.6481C24.4765 31.6668 24.4828 31.6856 24.489 31.7031C24.4953 31.7243 24.5015 31.7443 24.5065 31.7656C24.514 31.7931 24.5215 31.8206 24.529 31.8493C24.5328 31.8656 24.5365 31.8831 24.5415 31.8993C24.549 31.9343 24.5565 31.9693 24.564 32.0043C24.5665 32.0156 24.569 32.0268 24.5703 32.0393C24.5865 32.1331 24.599 32.2281 24.6065 32.3256C24.6065 32.3293 24.6065 32.3331 24.6065 32.3356C24.6103 32.3918 24.6128 32.4493 24.614 32.5068C24.614 32.5231 24.614 32.5381 24.614 32.5543C24.614 32.5968 24.614 32.6393 24.6115 32.6818C24.6115 32.7031 24.609 32.7231 24.6065 32.7443C24.604 32.7731 24.6028 32.8031 24.6003 32.8318C24.6003 32.8431 24.5978 32.8556 24.5965 32.8668C24.5965 32.8743 24.5953 32.8818 24.594 32.8893C24.559 33.1818 24.4778 33.4593 24.3603 33.7181C24.3603 33.7193 24.3603 33.7206 24.359 33.7218C23.9465 34.6206 23.9865 35.6618 24.4753 36.5206C24.9628 37.3768 25.8328 37.9481 26.8128 38.0493C27.2478 38.0943 27.6803 38.2406 28.0765 38.4993C29.2628 39.2731 29.6978 40.8193 29.089 42.0968L29.0815 42.0918Z" fill="white"/>
<path d="M7.65901 5.61309C5.71151 5.48684 4.15151 7.32059 4.75776 9.33309C5.08276 10.4118 6.05151 11.1681 7.17151 11.2818C7.19151 11.2843 7.21275 11.2856 7.23275 11.2868C8.21651 11.3668 9.11026 11.8918 9.62151 12.7368L9.64651 12.7781C9.65151 12.7856 9.65526 12.7931 9.66026 12.8006C10.5678 14.3306 9.47526 16.2906 7.69651 16.3218C7.68776 16.3218 7.679 16.3218 7.67025 16.3218H7.56026C6.60026 16.3306 5.71151 15.8556 5.15026 15.0756C5.14401 15.0668 5.13901 15.0593 5.13276 15.0506C4.34901 13.9856 2.909 13.5981 1.7015 14.1368C0.0177546 14.8868 -0.518492 16.9693 0.556508 18.4331C1.38651 19.5643 2.94776 19.9156 4.18401 19.2531C4.59401 19.0331 4.92651 18.7306 5.17401 18.3781C5.74026 17.5706 6.66276 17.0893 7.64776 17.0806C8.63651 17.0718 9.56526 17.5443 10.149 18.3418C10.149 18.3418 10.1503 18.3443 10.1515 18.3456C10.319 18.5756 10.524 18.7806 10.7615 18.9543C10.7678 18.9581 10.774 18.9631 10.779 18.9668C10.789 18.9743 10.7978 18.9806 10.8078 18.9881C10.8315 19.0056 10.8565 19.0206 10.8815 19.0368C10.899 19.0481 10.9153 19.0593 10.9328 19.0706C10.969 19.0931 11.0065 19.1143 11.0428 19.1356C11.0565 19.1431 11.069 19.1518 11.0828 19.1593C11.1328 19.1868 11.184 19.2131 11.2353 19.2368C11.239 19.2381 11.2415 19.2406 11.244 19.2418C11.3315 19.2831 11.4215 19.3181 11.5115 19.3493C11.5228 19.3531 11.534 19.3568 11.5453 19.3606C11.579 19.3718 11.6128 19.3831 11.6478 19.3931C11.664 19.3981 11.6815 19.4031 11.6978 19.4068C11.7253 19.4143 11.7528 19.4218 11.7815 19.4281C11.8028 19.4331 11.824 19.4381 11.8453 19.4431C11.864 19.4468 11.8828 19.4506 11.9028 19.4543C12.764 19.6206 13.659 19.3781 14.3178 18.8018C14.3215 18.7993 14.324 18.7956 14.3278 18.7931C14.3528 18.7718 14.3765 18.7493 14.4003 18.7268C14.4128 18.7156 14.4253 18.7031 14.4378 18.6906C14.4565 18.6718 14.4753 18.6543 14.4928 18.6356C14.5115 18.6156 14.5303 18.5968 14.5478 18.5768C14.5603 18.5631 14.5728 18.5493 14.5853 18.5356C14.649 18.4631 14.709 18.3856 14.7665 18.3056C14.7728 18.2956 14.7803 18.2856 14.7865 18.2756C14.8015 18.2543 14.8165 18.2331 14.8303 18.2118C14.8353 18.2031 14.8403 18.1956 14.8453 18.1868C14.859 18.1643 14.874 18.1406 14.8878 18.1181C14.9015 18.0943 14.9153 18.0718 14.929 18.0481C14.9428 18.0243 14.954 18.0006 14.9665 17.9768C14.979 17.9531 14.9915 17.9293 15.0028 17.9043C15.0065 17.8956 15.0115 17.8868 15.0153 17.8781C15.0265 17.8543 15.0365 17.8306 15.0465 17.8081C15.0515 17.7968 15.0565 17.7868 15.0615 17.7756C15.1003 17.6856 15.134 17.5931 15.1628 17.5006C15.1678 17.4831 15.1728 17.4643 15.1778 17.4468C15.1853 17.4206 15.1928 17.3943 15.199 17.3693C15.2053 17.3443 15.2115 17.3181 15.2178 17.2931C15.2215 17.2768 15.2253 17.2593 15.229 17.2431C15.2353 17.2106 15.2415 17.1793 15.2478 17.1468C15.2478 17.1418 15.249 17.1381 15.2503 17.1331C15.3953 16.2706 15.1315 15.3818 14.5378 14.7356C14.524 14.7218 14.5115 14.7068 14.4978 14.6931C14.4828 14.6768 14.4678 14.6618 14.4515 14.6468C14.4315 14.6268 14.4103 14.6068 14.389 14.5868C14.3765 14.5756 14.364 14.5631 14.3515 14.5518C14.3253 14.5281 14.2978 14.5043 14.2703 14.4818C14.2615 14.4743 14.2528 14.4668 14.2428 14.4593C14.169 14.3993 14.0915 14.3418 14.0103 14.2893C14.0078 14.2868 14.004 14.2856 14.0015 14.2843C13.954 14.2531 13.9053 14.2231 13.8553 14.1943C13.8415 14.1868 13.8278 14.1793 13.814 14.1718C13.7765 14.1518 13.739 14.1318 13.7015 14.1118C13.6828 14.1031 13.664 14.0943 13.6453 14.0856C13.619 14.0731 13.5928 14.0606 13.5653 14.0481C13.554 14.0431 13.5428 14.0393 13.5328 14.0343C13.5253 14.0318 13.519 14.0281 13.5115 14.0256C13.239 13.9143 12.9565 13.8493 12.674 13.8268C12.6728 13.8268 12.6715 13.8268 12.6703 13.8268C11.6853 13.7493 10.7953 13.2068 10.2828 12.3618C9.77276 11.5193 9.69776 10.4806 10.0865 9.57559C10.259 9.17434 10.3415 8.72434 10.309 8.25309C10.2115 6.84059 9.07276 5.70685 7.66026 5.6156L7.65901 5.61309Z" fill="white"/>
<path d="M42.9978 25.3259C44.1278 26.9159 43.3878 29.2071 41.3578 29.7496C40.2691 30.0396 39.1166 29.6121 38.4316 28.7196C38.4191 28.7034 38.4066 28.6871 38.3953 28.6709C37.8103 27.8759 36.8941 27.3921 35.9066 27.4009H35.8578C35.8491 27.4009 35.8403 27.4009 35.8316 27.4009C34.0528 27.4321 32.9591 29.3921 33.8678 30.9221C33.8728 30.9296 33.8766 30.9371 33.8816 30.9446L33.9378 31.0384C34.4353 31.8596 35.3066 32.3659 36.2653 32.4334C36.2753 32.4334 36.2853 32.4346 36.2953 32.4359C37.6128 32.5434 38.6991 33.5659 38.8766 34.8759C39.1228 36.7034 37.6328 38.2521 35.8228 38.1071C34.4241 37.9946 33.3053 36.8521 33.2191 35.4521C33.1903 34.9884 33.2728 34.5459 33.4428 34.1509C33.8316 33.2459 33.7578 32.2071 33.2466 31.3646C32.7341 30.5196 31.8453 29.9771 30.8591 29.8996C30.8578 29.8996 30.8566 29.8996 30.8553 29.8996C30.5716 29.8771 30.2891 29.8121 30.0166 29.6996C30.0103 29.6971 30.0028 29.6946 29.9966 29.6909C29.9853 29.6859 29.9741 29.6821 29.9641 29.6771C29.9366 29.6659 29.9103 29.6521 29.8841 29.6396C29.8653 29.6309 29.8466 29.6221 29.8278 29.6134C29.7891 29.5946 29.7516 29.5746 29.7153 29.5534C29.7016 29.5459 29.6878 29.5396 29.6741 29.5309C29.6241 29.5021 29.5753 29.4721 29.5278 29.4409C29.5253 29.4384 29.5216 29.4371 29.5191 29.4359C29.4378 29.3821 29.3616 29.3259 29.2866 29.2659C29.2778 29.2584 29.2691 29.2509 29.2591 29.2434C29.2316 29.2209 29.2041 29.1971 29.1778 29.1734C29.1653 29.1621 29.1528 29.1496 29.1403 29.1384C29.1191 29.1184 29.0991 29.0984 29.0791 29.0784C29.0641 29.0634 29.0478 29.0471 29.0328 29.0321C29.0191 29.0184 29.0066 29.0034 28.9941 28.9896C28.3991 28.3446 28.1366 27.4559 28.2816 26.5921C28.2816 26.5871 28.2828 26.5834 28.2841 26.5784C28.2891 26.5459 28.2953 26.5134 28.3028 26.4821C28.3066 26.4659 28.3103 26.4484 28.3141 26.4321C28.3203 26.4071 28.3253 26.3809 28.3328 26.3559C28.3391 26.3296 28.3466 26.3034 28.3541 26.2784C28.3591 26.2609 28.3641 26.2421 28.3691 26.2246C28.3978 26.1321 28.4316 26.0409 28.4703 25.9496C28.4753 25.9384 28.4803 25.9284 28.4853 25.9171C28.4953 25.8934 28.5053 25.8696 28.5166 25.8471C28.5203 25.8384 28.5253 25.8296 28.5291 25.8209C28.5403 25.7971 28.5528 25.7734 28.5653 25.7484C28.5778 25.7246 28.5903 25.7009 28.6028 25.6771C28.6153 25.6534 28.6291 25.6309 28.6441 25.6071C28.6578 25.5834 28.6716 25.5609 28.6866 25.5384C28.6916 25.5296 28.6966 25.5221 28.7016 25.5134C28.7153 25.4921 28.7303 25.4709 28.7453 25.4496C28.7516 25.4396 28.7591 25.4296 28.7653 25.4196C28.8216 25.3396 28.8828 25.2621 28.9466 25.1896C28.9591 25.1759 28.9716 25.1621 28.9841 25.1484C29.0028 25.1284 29.0203 25.1084 29.0391 25.0896C29.0578 25.0709 29.0753 25.0521 29.0941 25.0346C29.1066 25.0221 29.1191 25.0109 29.1316 24.9984C29.1553 24.9759 29.1791 24.9534 29.2041 24.9321C29.2078 24.9296 29.2116 24.9259 29.2141 24.9234C29.8728 24.3471 30.7666 24.1034 31.6278 24.2709C31.6466 24.2746 31.6666 24.2784 31.6853 24.2821C31.7066 24.2871 31.7278 24.2921 31.7491 24.2971C31.7766 24.3034 31.8053 24.3109 31.8328 24.3184C31.8491 24.3234 31.8653 24.3271 31.8828 24.3321C31.9166 24.3421 31.9516 24.3534 31.9853 24.3646C31.9966 24.3684 32.0078 24.3721 32.0191 24.3759C32.1091 24.4071 32.1978 24.4421 32.2866 24.4834C32.2903 24.4846 32.2928 24.4871 32.2966 24.4884C32.3478 24.5121 32.3991 24.5384 32.4491 24.5659C32.4628 24.5734 32.4766 24.5821 32.4903 24.5896C32.5278 24.6109 32.5641 24.6321 32.6003 24.6546C32.6178 24.6659 32.6353 24.6771 32.6528 24.6884C32.6778 24.7046 32.7016 24.7196 32.7266 24.7371C32.7366 24.7434 32.7453 24.7509 32.7553 24.7584C32.7616 24.7634 32.7678 24.7671 32.7741 24.7721C33.0116 24.9446 33.2166 25.1509 33.3841 25.3809C33.3841 25.3809 33.3853 25.3834 33.3866 25.3846C33.9703 26.1821 34.8991 26.6546 35.8878 26.6459C36.8728 26.6371 37.7953 26.1559 38.3616 25.3484C38.6128 24.9909 38.9516 24.6834 39.3703 24.4634C40.6228 23.8046 42.1853 24.1771 43.0053 25.3321L42.9978 25.3259Z" fill="white"/>
<path d="M7.65901 38.1081C5.71151 38.2344 4.15151 36.4006 4.75776 34.3881C5.08276 33.3094 6.05151 32.5531 7.17151 32.4394C7.19151 32.4369 7.21275 32.4356 7.23275 32.4344C8.21651 32.3544 9.11026 31.8294 9.62151 30.9844L9.64651 30.9431C9.65151 30.9356 9.65526 30.9281 9.66026 30.9206C10.5678 29.3906 9.47526 27.4306 7.69651 27.3994C7.68776 27.3994 7.679 27.3994 7.67025 27.3994H7.56026C6.60026 27.3906 5.71151 27.8656 5.15026 28.6456C5.14401 28.6544 5.13901 28.6619 5.13276 28.6706C4.34901 29.7356 2.909 30.1231 1.7015 29.5844C0.0177546 28.8344 -0.518492 26.7519 0.556508 25.2881C1.38651 24.1569 2.94776 23.8056 4.18401 24.4681C4.59401 24.6881 4.92651 24.9906 5.17401 25.3431C5.74026 26.1506 6.66276 26.6319 7.64776 26.6406C8.63651 26.6494 9.56526 26.1769 10.149 25.3794C10.149 25.3794 10.1503 25.3769 10.1515 25.3756C10.319 25.1456 10.524 24.9406 10.7615 24.7669C10.7678 24.7631 10.774 24.7581 10.779 24.7544C10.789 24.7469 10.7978 24.7406 10.8078 24.7331C10.8315 24.7156 10.8565 24.7006 10.8815 24.6844C10.899 24.6731 10.9153 24.6619 10.9328 24.6506C10.969 24.6281 11.0065 24.6069 11.0428 24.5856C11.0565 24.5781 11.069 24.5694 11.0828 24.5619C11.1328 24.5344 11.184 24.5081 11.2353 24.4844C11.239 24.4831 11.2415 24.4806 11.244 24.4794C11.3315 24.4381 11.4215 24.4031 11.5115 24.3719C11.5228 24.3681 11.534 24.3644 11.5453 24.3606C11.579 24.3494 11.6128 24.3381 11.6478 24.3281C11.664 24.3231 11.6815 24.3181 11.6978 24.3144C11.7253 24.3069 11.7528 24.2994 11.7815 24.2931C11.8028 24.2881 11.824 24.2831 11.8453 24.2781C11.864 24.2744 11.8828 24.2706 11.9028 24.2669C12.764 24.1006 13.659 24.3431 14.3178 24.9194C14.3215 24.9219 14.324 24.9256 14.3278 24.9281C14.3528 24.9494 14.3765 24.9719 14.4003 24.9944C14.4128 25.0056 14.4253 25.0181 14.4378 25.0306C14.4565 25.0494 14.4753 25.0669 14.4928 25.0856C14.5115 25.1056 14.5303 25.1244 14.5478 25.1444C14.5603 25.1581 14.5728 25.1719 14.5853 25.1856C14.649 25.2581 14.709 25.3356 14.7665 25.4156C14.7728 25.4256 14.7803 25.4356 14.7865 25.4456C14.8015 25.4669 14.8165 25.4881 14.8303 25.5094C14.8353 25.5181 14.8403 25.5256 14.8453 25.5344C14.859 25.5569 14.874 25.5806 14.8878 25.6031C14.9015 25.6269 14.9153 25.6494 14.929 25.6731C14.9428 25.6969 14.954 25.7206 14.9665 25.7444C14.979 25.7681 14.9915 25.7919 15.0028 25.8169C15.0065 25.8256 15.0115 25.8344 15.0153 25.8431C15.0265 25.8669 15.0365 25.8906 15.0465 25.9131C15.0515 25.9244 15.0565 25.9344 15.0615 25.9456C15.1003 26.0356 15.134 26.1281 15.1628 26.2206C15.1678 26.2381 15.1728 26.2569 15.1778 26.2744C15.1853 26.3006 15.1928 26.3269 15.199 26.3519C15.2053 26.3769 15.2115 26.4031 15.2178 26.4281C15.2215 26.4444 15.2253 26.4619 15.229 26.4781C15.2353 26.5106 15.2415 26.5419 15.2478 26.5744C15.2478 26.5794 15.249 26.5831 15.2503 26.5881C15.3953 27.4506 15.1315 28.3394 14.5378 28.9856C14.524 28.9994 14.5115 29.0144 14.4978 29.0281C14.4828 29.0444 14.4678 29.0594 14.4515 29.0744C14.4315 29.0944 14.4103 29.1144 14.389 29.1344C14.3765 29.1456 14.364 29.1581 14.3515 29.1694C14.3253 29.1931 14.2978 29.2169 14.2703 29.2394C14.2615 29.2469 14.2528 29.2544 14.2428 29.2619C14.169 29.3219 14.0915 29.3794 14.0103 29.4319C14.0078 29.4344 14.004 29.4356 14.0015 29.4369C13.954 29.4681 13.9053 29.4981 13.8553 29.5269C13.8415 29.5344 13.8278 29.5419 13.814 29.5494C13.7765 29.5694 13.739 29.5894 13.7015 29.6094C13.6828 29.6181 13.664 29.6269 13.6453 29.6356C13.619 29.6481 13.5928 29.6606 13.5653 29.6731C13.554 29.6781 13.5428 29.6819 13.5328 29.6869C13.5253 29.6894 13.519 29.6931 13.5115 29.6956C13.239 29.8069 12.9565 29.8719 12.674 29.8944C12.6728 29.8944 12.6715 29.8944 12.6703 29.8944C11.6853 29.9719 10.7953 30.5144 10.2828 31.3594C9.77276 32.2019 9.69776 33.2406 10.0865 34.1456C10.259 34.5469 10.3415 34.9969 10.309 35.4681C10.2115 36.8806 9.07276 38.0144 7.66026 38.1056L7.65901 38.1081Z" fill="white"/>
<path d="M42.9978 18.3957C44.1278 16.8057 43.3878 14.5144 41.3578 13.9719C40.2691 13.6819 39.1166 14.1094 38.4316 15.0019C38.4191 15.0182 38.4066 15.0344 38.3953 15.0507C37.8103 15.8457 36.8941 16.3294 35.9066 16.3207H35.8578C35.8491 16.3207 35.8403 16.3207 35.8316 16.3207C34.0528 16.2894 32.9591 14.3294 33.8678 12.7994C33.8728 12.7919 33.8766 12.7844 33.8816 12.7769L33.9378 12.6831C34.4353 11.8619 35.3066 11.3557 36.2653 11.2882C36.2753 11.2882 36.2853 11.2869 36.2953 11.2857C37.6128 11.1782 38.6991 10.1557 38.8766 8.84565C39.1228 7.01815 37.6328 5.4694 35.8228 5.6144C34.4241 5.7269 33.3053 6.8694 33.2191 8.2694C33.1903 8.73315 33.2728 9.17566 33.4428 9.57066C33.8316 10.4757 33.7578 11.5144 33.2466 12.3569C32.7341 13.2019 31.8453 13.7444 30.8591 13.8219C30.8578 13.8219 30.8566 13.8219 30.8553 13.8219C30.5716 13.8444 30.2891 13.9094 30.0166 14.0219C30.0103 14.0244 30.0028 14.0269 29.9966 14.0306C29.9853 14.0356 29.9741 14.0394 29.9641 14.0444C29.9366 14.0556 29.9103 14.0694 29.8841 14.0819C29.8653 14.0907 29.8466 14.0994 29.8278 14.1081C29.7891 14.1269 29.7516 14.1469 29.7153 14.1681C29.7016 14.1756 29.6878 14.1819 29.6741 14.1907C29.6241 14.2194 29.5753 14.2494 29.5278 14.2806C29.5253 14.2831 29.5216 14.2844 29.5191 14.2857C29.4378 14.3394 29.3616 14.3957 29.2866 14.4557C29.2778 14.4632 29.2691 14.4707 29.2591 14.4782C29.2316 14.5007 29.2041 14.5244 29.1778 14.5482C29.1653 14.5594 29.1528 14.5719 29.1403 14.5832C29.1191 14.6032 29.0991 14.6232 29.0791 14.6432C29.0641 14.6582 29.0478 14.6744 29.0328 14.6894C29.0191 14.7032 29.0066 14.7181 28.9941 14.7319C28.3991 15.3769 28.1366 16.2657 28.2816 17.1294C28.2816 17.1344 28.2828 17.1382 28.2841 17.1432C28.2891 17.1757 28.2953 17.2082 28.3028 17.2394C28.3066 17.2557 28.3103 17.2732 28.3141 17.2894C28.3203 17.3144 28.3253 17.3407 28.3328 17.3657C28.3391 17.3919 28.3466 17.4182 28.3541 17.4432C28.3591 17.4607 28.3641 17.4794 28.3691 17.4969C28.3978 17.5894 28.4316 17.6807 28.4703 17.7719C28.4753 17.7832 28.4803 17.7932 28.4853 17.8044C28.4953 17.8282 28.5053 17.8519 28.5166 17.8744C28.5203 17.8831 28.5253 17.8919 28.5291 17.9006C28.5403 17.9244 28.5528 17.9482 28.5653 17.9732C28.5778 17.9969 28.5903 18.0206 28.6028 18.0444C28.6153 18.0681 28.6291 18.0907 28.6441 18.1144C28.6578 18.1382 28.6716 18.1606 28.6866 18.1831C28.6916 18.1919 28.6966 18.1994 28.7016 18.2082C28.7153 18.2294 28.7303 18.2507 28.7453 18.2719C28.7516 18.2819 28.7591 18.2919 28.7653 18.3019C28.8216 18.3819 28.8828 18.4594 28.9466 18.5319C28.9591 18.5457 28.9716 18.5594 28.9841 18.5731C29.0028 18.5931 29.0203 18.6132 29.0391 18.6319C29.0578 18.6507 29.0753 18.6694 29.0941 18.6869C29.1066 18.6994 29.1191 18.7107 29.1316 18.7232C29.1553 18.7457 29.1791 18.7682 29.2041 18.7894C29.2078 18.7919 29.2116 18.7957 29.2141 18.7982C29.8728 19.3744 30.7666 19.6181 31.6278 19.4506C31.6466 19.4469 31.6666 19.4432 31.6853 19.4394C31.7066 19.4344 31.7278 19.4294 31.7491 19.4244C31.7766 19.4182 31.8053 19.4106 31.8328 19.4031C31.8491 19.3981 31.8653 19.3944 31.8828 19.3894C31.9166 19.3794 31.9516 19.3681 31.9853 19.3569C31.9966 19.3531 32.0078 19.3494 32.0191 19.3457C32.1091 19.3144 32.1978 19.2794 32.2866 19.2382C32.2903 19.2369 32.2928 19.2344 32.2966 19.2331C32.3478 19.2094 32.3991 19.1831 32.4491 19.1556C32.4628 19.1481 32.4766 19.1394 32.4903 19.1319C32.5278 19.1107 32.5641 19.0894 32.6003 19.0669C32.6178 19.0557 32.6353 19.0444 32.6528 19.0332C32.6778 19.0169 32.7016 19.0019 32.7266 18.9844C32.7366 18.9781 32.7453 18.9706 32.7553 18.9631C32.7616 18.9581 32.7678 18.9544 32.7741 18.9494C33.0116 18.7769 33.2166 18.5706 33.3841 18.3406C33.3841 18.3406 33.3853 18.3382 33.3866 18.3369C33.9703 17.5394 34.8991 17.0669 35.8878 17.0756C36.8728 17.0844 37.7953 17.5656 38.3616 18.3731C38.6128 18.7306 38.9516 19.0382 39.3703 19.2582C40.6228 19.9169 42.1853 19.5444 43.0053 18.3894L42.9978 18.3957Z" fill="white"/>
<path d="M51.2839 11.7344H71.4589V16.4231H64.0802V37.1794H58.6277V16.4231H51.2852V11.7344H51.2839Z" fill="white"/>
<path d="M69.9678 27.8383C69.9678 22.0946 73.8578 18.2783 79.819 18.2783C85.7803 18.2783 89.6703 22.0946 89.6703 27.8383C89.6703 33.5821 85.7803 37.3983 79.819 37.3983C73.8578 37.3983 69.9678 33.5821 69.9678 27.8383ZM84.4715 27.8383C84.4715 24.6758 82.6903 22.4583 79.819 22.4583C76.9478 22.4583 75.2028 24.6758 75.2028 27.8383C75.2028 31.0008 76.9478 33.2183 79.819 33.2183C82.6903 33.2183 84.4715 31.0008 84.4715 27.8383Z" fill="white"/>
<path d="M111.915 27.8743C111.915 33.6906 108.28 37.3981 103.264 37.3981C100.683 37.3981 98.8289 36.3444 97.6301 34.8169V44.4493H92.5051V18.4956H96.9764L97.4851 21.0768C98.6851 19.4768 100.575 18.2781 103.229 18.2781C108.281 18.2418 111.916 21.9856 111.916 27.8743H111.915ZM106.718 27.8019C106.718 24.6394 104.9 22.4581 102.101 22.4581C99.3026 22.4581 97.5576 24.6394 97.5576 27.8019C97.5576 30.9644 99.3026 33.2181 102.101 33.2181C104.9 33.2181 106.718 31.0006 106.718 27.8019Z" fill="white"/>
<path d="M114.133 24.4583C114.133 16.6433 118.894 11.5171 126.601 11.5171C132.635 11.5171 136.889 15.2971 137.543 20.8233H132.018C131.364 17.9883 129.328 16.1346 126.31 16.1346C122.166 16.1346 119.694 19.5521 119.694 24.4583C119.694 29.3646 122.129 32.7821 126.236 32.7821C129.326 32.7821 131.361 30.9283 132.016 28.0933H137.505C136.888 33.6183 132.489 37.3996 126.273 37.3996C118.711 37.3996 114.131 32.2746 114.131 24.4583H114.133Z" fill="white"/>
<path d="M139.47 27.8383C139.47 22.0946 143.36 18.2783 149.321 18.2783C155.283 18.2783 159.173 22.0946 159.173 27.8383C159.173 33.5821 155.283 37.3983 149.321 37.3983C143.36 37.3983 139.47 33.5821 139.47 27.8383ZM153.974 27.8383C153.974 24.6758 152.193 22.4583 149.321 22.4583C146.45 22.4583 144.705 24.6758 144.705 27.8383C144.705 31.0008 146.45 33.2183 149.321 33.2183C152.193 33.2183 153.974 31.0008 153.974 27.8383Z" fill="white"/>
<path d="M191.269 26.4569V37.1807H186.144V26.7482C186.144 23.9494 185.127 22.4957 182.909 22.4957C180.692 22.4957 179.202 24.1319 179.202 26.9669V37.1819H174.077V26.7494C174.077 23.9507 173.059 22.4969 170.805 22.4969C168.552 22.4969 167.134 24.2057 167.134 27.0044V37.1819H162.009V18.4982H166.48L166.953 20.8244C168.08 19.3707 169.715 18.3157 172.442 18.2794C174.732 18.2432 176.877 19.0795 178.039 21.442C179.348 19.4432 181.529 18.2794 184.364 18.2794C188.217 18.2794 191.27 20.4607 191.27 26.4582L191.269 26.4569Z" fill="white"/>
</svg>
