<svg width="197" height="51" viewBox="0 0 197 51" fill="none" xmlns="http://www.w3.org/2000/svg">
<path d="M103.631 42.6032H104.56L106.435 45.7619L108.338 42.6032H109.23L106.828 46.617V48.9745H106.036V46.617L103.634 42.6032H103.631Z" fill="#FF3B00"/>
<path d="M108.865 46.6532C108.865 45.2419 109.811 44.2782 111.168 44.2782C112.524 44.2782 113.47 45.2432 113.47 46.6532C113.47 48.0632 112.524 49.0282 111.168 49.0282C109.811 49.0282 108.865 48.0632 108.865 46.6532ZM112.706 46.6532C112.706 45.6607 112.088 44.942 111.168 44.942C110.248 44.942 109.629 45.6607 109.629 46.6532C109.629 47.6457 110.248 48.3645 111.168 48.3645C112.088 48.3645 112.706 47.6457 112.706 46.6532Z" fill="#FF3B00"/>
<path d="M117.575 44.3332H118.321V48.9757H117.675L117.575 48.3569C117.303 48.7032 116.856 49.0307 116.091 49.0307C115.071 49.0307 114.261 48.4569 114.261 46.9194V44.3344H115.008V46.8744C115.008 47.8394 115.445 48.3494 116.218 48.3494C117.064 48.3494 117.574 47.7032 117.574 46.6569V44.3357L117.575 44.3332Z" fill="#FF3B00"/>
<path d="M121.699 44.3332V45.0619H121.325C120.351 45.0619 120.088 45.8719 120.088 46.6094V48.9757H119.341V44.3332H119.988L120.088 45.0344C120.306 44.6794 120.661 44.3332 121.489 44.3332H121.698H121.699Z" fill="#FF3B00"/>
<path d="M128.488 44.3332H129.134V48.7482C129.134 50.0857 128.424 50.8507 126.831 50.8507C125.648 50.8507 124.82 50.2957 124.701 49.2757H125.466C125.594 49.8582 126.113 50.1857 126.886 50.1857C127.86 50.1857 128.388 49.7307 128.388 48.7207V48.1745C128.078 48.702 127.578 49.0295 126.795 49.0295C125.511 49.0295 124.565 48.1645 124.565 46.6545C124.565 45.2345 125.511 44.2795 126.795 44.2795C127.578 44.2795 128.096 44.6157 128.388 45.1345L128.488 44.3332ZM128.396 46.672C128.396 45.652 127.778 44.9432 126.868 44.9432C125.958 44.9432 125.329 45.6445 125.329 46.6545C125.329 47.6645 125.948 48.3657 126.868 48.3657C127.788 48.3657 128.396 47.6645 128.396 46.6732V46.672Z" fill="#FF3B00"/>
<path d="M129.99 46.6532C129.99 45.2419 130.936 44.2782 132.293 44.2782C133.649 44.2782 134.595 45.2432 134.595 46.6532C134.595 48.0632 133.649 49.0282 132.293 49.0282C130.936 49.0282 129.99 48.0632 129.99 46.6532ZM133.83 46.6532C133.83 45.6607 133.211 44.942 132.291 44.942C131.371 44.942 130.753 45.6607 130.753 46.6532C130.753 47.6457 131.371 48.3645 132.291 48.3645C133.211 48.3645 133.83 47.6457 133.83 46.6532Z" fill="#FF3B00"/>
<path d="M139.793 48.292V48.9745H139.383C138.764 48.9745 138.554 48.7107 138.545 48.2557C138.254 48.6745 137.79 49.0295 136.989 49.0295C135.969 49.0295 135.278 48.5195 135.278 47.6732C135.278 46.7445 135.924 46.2257 137.144 46.2257H138.509V45.907C138.509 45.3057 138.082 44.942 137.353 44.942C136.698 44.942 136.26 45.252 136.169 45.7245H135.423C135.532 44.8145 136.269 44.277 137.389 44.277C138.573 44.277 139.255 44.8682 139.255 45.952V47.982C139.255 48.2282 139.347 48.292 139.555 48.292H139.792H139.793ZM138.509 46.8545H137.072C136.407 46.8545 136.034 47.1007 136.034 47.6282C136.034 48.0832 136.425 48.3932 137.044 48.3932C137.973 48.3932 138.509 47.8557 138.509 47.082V46.8545Z" fill="#FF3B00"/>
<path d="M140.365 42.6032H141.111V48.9745H140.365V42.6032Z" fill="#FF3B00"/>
<path d="M142.704 47.4457C142.731 47.9919 143.214 48.3919 143.988 48.3919C144.643 48.3919 145.108 48.1094 145.108 47.6819C145.108 47.0994 144.598 47.0544 143.906 46.9719C142.869 46.8444 142.04 46.6357 142.04 45.6707C142.04 44.8244 142.814 44.2694 143.86 44.2782C144.916 44.2869 145.68 44.7782 145.754 45.7432H144.989C144.934 45.2694 144.498 44.9144 143.86 44.9144C143.223 44.9144 142.776 45.1869 142.776 45.6157C142.776 46.1257 143.268 46.1894 143.941 46.2707C144.998 46.3982 145.844 46.5982 145.844 47.6269C145.844 48.4919 145.015 49.0282 143.988 49.0282C142.786 49.0282 141.958 48.4644 141.94 47.4444H142.705L142.704 47.4457Z" fill="#FF3B00"/>
<path d="M147.655 48.9469C147.655 49.7207 147.173 50.1844 146.371 50.2032V49.7757C146.954 49.7669 147.136 49.3569 147.136 49.0469C147.136 49.0019 147.136 48.9644 147.128 48.9282C147.055 49.0007 146.928 49.0369 146.818 49.0369C146.545 49.0369 146.335 48.8732 146.335 48.5457C146.335 48.2457 146.554 48.0182 146.936 48.0182C147.383 48.0182 147.655 48.4457 147.655 48.9469Z" fill="#FF3B00"/>
<path d="M150.695 46.6532C150.695 45.2419 151.642 44.2782 152.998 44.2782C154.354 44.2782 155.3 45.2432 155.3 46.6532C155.3 48.0632 154.354 49.0282 152.998 49.0282C151.642 49.0282 150.695 48.0632 150.695 46.6532ZM154.537 46.6532C154.537 45.6607 153.918 44.942 152.998 44.942C152.078 44.942 151.459 45.6607 151.459 46.6532C151.459 47.6457 152.078 48.3645 152.998 48.3645C153.918 48.3645 154.537 47.6457 154.537 46.6532Z" fill="#FF3B00"/>
<path d="M159.405 44.3332H160.152V48.9757H159.505L159.405 48.3569C159.133 48.7032 158.687 49.0307 157.922 49.0307C156.902 49.0307 156.092 48.4569 156.092 46.9194V44.3344H156.838V46.8744C156.838 47.8394 157.275 48.3494 158.048 48.3494C158.894 48.3494 159.404 47.7032 159.404 46.6569V44.3357L159.405 44.3332Z" fill="#FF3B00"/>
<path d="M163.529 44.3332V45.0619H163.155C162.181 45.0619 161.918 45.8719 161.918 46.6094V48.9757H161.171V44.3332H161.818L161.918 45.0344C162.136 44.6794 162.491 44.3332 163.319 44.3332H163.528H163.529Z" fill="#FF3B00"/>
<path d="M173.495 46.2982V48.9745H172.749V46.3445C172.749 45.4345 172.349 44.9607 171.648 44.9607C170.874 44.9607 170.4 45.5432 170.4 46.4895V48.9745H169.654V46.3445C169.654 45.4345 169.244 44.9607 168.534 44.9607C167.769 44.9607 167.305 45.5982 167.305 46.5257V48.9745H166.559V44.332H167.205L167.305 44.9695C167.552 44.6332 167.943 44.2782 168.662 44.2782C169.308 44.2782 169.863 44.5695 170.127 45.1607C170.409 44.6607 170.909 44.2782 171.738 44.2782C172.703 44.2782 173.494 44.8332 173.494 46.2982H173.495Z" fill="#FF3B00"/>
<path d="M174.35 43.067C174.35 42.7845 174.559 42.5845 174.833 42.5845C175.106 42.5845 175.315 42.7845 175.315 43.067C175.315 43.3495 175.106 43.5495 174.833 43.5495C174.559 43.5495 174.35 43.3495 174.35 43.067ZM174.45 44.3332H175.196V48.9757H174.45V44.3332Z" fill="#FF3B00"/>
<path d="M176.789 47.4457C176.816 47.9919 177.299 48.3919 178.073 48.3919C178.728 48.3919 179.193 48.1094 179.193 47.6819C179.193 47.0994 178.683 47.0544 177.991 46.9719C176.954 46.8444 176.125 46.6357 176.125 45.6707C176.125 44.8244 176.899 44.2694 177.945 44.2782C179.001 44.2869 179.765 44.7782 179.839 45.7432H179.074C179.019 45.2694 178.583 44.9144 177.945 44.9144C177.308 44.9144 176.861 45.1869 176.861 45.6157C176.861 46.1257 177.353 46.1894 178.026 46.2707C179.083 46.3982 179.929 46.5982 179.929 47.6269C179.929 48.4919 179.1 49.0282 178.073 49.0282C176.871 49.0282 176.043 48.4644 176.025 47.4444H176.79L176.789 47.4457Z" fill="#FF3B00"/>
<path d="M181.24 47.4457C181.268 47.9919 181.75 48.3919 182.524 48.3919C183.179 48.3919 183.644 48.1094 183.644 47.6819C183.644 47.0994 183.134 47.0544 182.443 46.9719C181.405 46.8444 180.577 46.6357 180.577 45.6707C180.577 44.8244 181.35 44.2694 182.397 44.2782C183.453 44.2869 184.217 44.7782 184.29 45.7432H183.525C183.47 45.2694 183.034 44.9144 182.397 44.9144C181.759 44.9144 181.313 45.1869 181.313 45.6157C181.313 46.1257 181.804 46.1894 182.478 46.2707C183.534 46.3982 184.38 46.5982 184.38 47.6269C184.38 48.4919 183.552 49.0282 182.524 49.0282C181.323 49.0282 180.494 48.4644 180.477 47.4444H181.242L181.24 47.4457Z" fill="#FF3B00"/>
<path d="M185.108 43.067C185.108 42.7845 185.316 42.5845 185.59 42.5845C185.864 42.5845 186.073 42.7845 186.073 43.067C186.073 43.3495 185.864 43.5495 185.59 43.5495C185.316 43.5495 185.108 43.3495 185.108 43.067ZM185.208 44.3332H185.954V48.9757H185.208V44.3332Z" fill="#FF3B00"/>
<path d="M186.81 46.6532C186.81 45.2419 187.757 44.2782 189.113 44.2782C190.469 44.2782 191.415 45.2432 191.415 46.6532C191.415 48.0632 190.469 49.0282 189.113 49.0282C187.757 49.0282 186.81 48.0632 186.81 46.6532ZM190.65 46.6532C190.65 45.6607 190.032 44.942 189.112 44.942C188.192 44.942 187.573 45.6607 187.573 46.6532C187.573 47.6457 188.192 48.3645 189.112 48.3645C190.032 48.3645 190.65 47.6457 190.65 46.6532Z" fill="#FF3B00"/>
<path d="M196.421 46.3895V48.9745H195.675V46.4344C195.675 45.4694 195.229 44.9595 194.419 44.9595C193.545 44.9595 193.018 45.6057 193.018 46.6519V48.9732H192.271V44.3307H192.918L193.018 44.9582C193.29 44.6032 193.764 44.2757 194.546 44.2757C195.593 44.2757 196.421 44.8494 196.421 46.3869V46.3895Z" fill="#FF3B00"/>
<path d="M29.0815 1.62822C28.2428 -0.133027 25.8815 -0.603031 24.419 0.905719C23.6353 1.71447 23.4465 2.92946 23.8928 3.96321C23.9015 3.98196 23.909 4.00072 23.9178 4.01947C24.3278 4.91822 24.304 5.95322 23.8153 6.81197L23.7915 6.85447C23.7878 6.86197 23.7828 6.86947 23.779 6.87697C22.8853 8.41572 20.6415 8.41572 19.7478 6.87697C19.7428 6.86947 19.739 6.86197 19.7353 6.85447L19.6815 6.75948C19.2065 5.92448 19.189 4.91697 19.5965 4.04697C19.6003 4.03822 19.6053 4.02822 19.609 4.01947C20.1565 2.81697 19.794 1.36947 18.7353 0.576969C17.2603 -0.528031 15.1803 0.0182174 14.4253 1.66947C13.8428 2.94572 14.2953 4.47947 15.4765 5.23697C15.8678 5.48822 16.294 5.63072 16.7228 5.67447C17.7028 5.77572 18.5728 6.34697 19.0603 7.20322C19.549 8.06197 19.589 9.10322 19.1765 10.002C19.1765 10.002 19.1765 10.0045 19.1753 10.0057C19.0565 10.2645 18.9765 10.5432 18.9415 10.8345C18.9415 10.842 18.9403 10.8495 18.939 10.857C18.9378 10.8682 18.9353 10.8807 18.9353 10.892C18.9328 10.922 18.9315 10.9507 18.929 10.9795C18.9278 10.9995 18.9253 11.0207 18.924 11.0407C18.9215 11.0832 18.9215 11.1257 18.9215 11.1682C18.9215 11.1845 18.9215 11.1995 18.9215 11.2145C18.9215 11.272 18.924 11.3295 18.929 11.3857C18.929 11.3895 18.929 11.3932 18.929 11.3957C18.9365 11.492 18.949 11.587 18.9653 11.682C18.9678 11.6932 18.9703 11.7057 18.9715 11.717C18.9778 11.752 18.9853 11.787 18.994 11.822C18.9978 11.8382 19.0015 11.8557 19.0065 11.872C19.014 11.8995 19.0215 11.927 19.029 11.9545C19.0353 11.9757 19.0403 11.997 19.0478 12.017C19.054 12.0357 19.0603 12.0532 19.0653 12.072C19.339 12.9057 19.9878 13.5682 20.8115 13.862C20.8153 13.8632 20.8203 13.8657 20.824 13.867C20.8553 13.8782 20.8865 13.8882 20.9178 13.8982C20.934 13.9032 20.9503 13.9082 20.9665 13.9132C20.9915 13.9207 21.0165 13.9282 21.0415 13.9345C21.0678 13.942 21.094 13.9482 21.1203 13.9532C21.139 13.957 21.1565 13.962 21.1753 13.9657C21.2703 13.9857 21.3665 14.0007 21.464 14.012C21.4753 14.012 21.4878 14.0145 21.499 14.0157C21.5253 14.0182 21.5503 14.0207 21.5765 14.022C21.5865 14.022 21.5953 14.022 21.6053 14.022C21.6315 14.0232 21.659 14.0245 21.6865 14.0245C21.714 14.0245 21.7403 14.0257 21.7678 14.0257C21.7953 14.0257 21.8215 14.0257 21.849 14.0245C21.8765 14.0245 21.9028 14.0232 21.9303 14.022C21.9403 14.022 21.949 14.022 21.959 14.022C21.9853 14.0207 22.0103 14.017 22.0365 14.0157C22.0478 14.0157 22.0603 14.0132 22.0715 14.012C22.169 14.002 22.2653 13.9857 22.3603 13.9657C22.379 13.962 22.3965 13.957 22.4153 13.9532C22.4415 13.947 22.4678 13.9407 22.494 13.9345C22.519 13.9282 22.544 13.9207 22.569 13.9132C22.5853 13.9082 22.6015 13.9032 22.6178 13.8982C22.649 13.8882 22.6803 13.8782 22.7115 13.867C22.7153 13.8657 22.7203 13.8632 22.724 13.862C23.5478 13.5682 24.1965 12.9045 24.4703 12.072C24.4765 12.0532 24.4828 12.0345 24.489 12.017C24.4953 11.9957 24.5015 11.9757 24.5065 11.9545C24.514 11.927 24.5215 11.8995 24.529 11.8707C24.5328 11.8545 24.5365 11.837 24.5415 11.8207C24.549 11.7857 24.5565 11.7507 24.564 11.7157C24.5665 11.7045 24.569 11.6932 24.5703 11.6807C24.5865 11.587 24.599 11.492 24.6065 11.3945C24.6065 11.3907 24.6065 11.387 24.6065 11.3845C24.6103 11.3282 24.6128 11.2707 24.614 11.2132C24.614 11.197 24.614 11.182 24.614 11.1657C24.614 11.1232 24.614 11.0807 24.6115 11.0382C24.6115 11.017 24.609 10.997 24.6065 10.9757C24.604 10.947 24.6028 10.917 24.6003 10.8882C24.6003 10.877 24.5978 10.8645 24.5965 10.8532C24.5965 10.8457 24.5953 10.8382 24.594 10.8307C24.559 10.5382 24.4778 10.2607 24.3603 10.002C24.3603 10.0007 24.3603 9.99947 24.359 9.99822C23.9465 9.09947 23.9865 8.05822 24.4753 7.19947C24.9628 6.34322 25.8328 5.77197 26.8128 5.67072C27.2478 5.62572 27.6803 5.47947 28.0765 5.22072C29.2628 4.44697 29.6978 2.90072 29.089 1.62322L29.0815 1.62822Z" fill="#FF3B00"/>
<path d="M29.0815 42.0919C28.2428 43.8532 25.8815 44.3232 24.419 42.8145C23.6353 42.0057 23.4465 40.7907 23.8928 39.757C23.9015 39.7382 23.909 39.7194 23.9178 39.7007C24.3278 38.8019 24.304 37.767 23.8153 36.9082L23.7915 36.8657C23.7878 36.8582 23.7828 36.8507 23.779 36.8432C22.8853 35.3045 20.6415 35.3045 19.7478 36.8432C19.7428 36.8507 19.739 36.8582 19.7353 36.8657L19.6815 36.9607C19.2065 37.7957 19.189 38.8032 19.5965 39.6732C19.6003 39.682 19.6053 39.6919 19.609 39.7007C20.1565 40.9032 19.794 42.3507 18.7353 43.1432C17.2603 44.2482 15.1803 43.702 14.4253 42.0507C13.8428 40.7745 14.2953 39.2407 15.4765 38.4832C15.8678 38.2319 16.294 38.0894 16.7228 38.0457C17.7028 37.9445 18.5728 37.3732 19.0603 36.517C19.549 35.6582 19.589 34.617 19.1765 33.7182C19.1765 33.7182 19.1765 33.7157 19.1753 33.7144C19.0565 33.4557 18.9765 33.1769 18.9415 32.8857C18.9415 32.8782 18.9403 32.8707 18.939 32.8632C18.9378 32.852 18.9353 32.8395 18.9353 32.8282C18.9328 32.7982 18.9315 32.7695 18.929 32.7407C18.9278 32.7207 18.9253 32.6995 18.924 32.6795C18.9215 32.637 18.9215 32.5945 18.9215 32.552C18.9215 32.5357 18.9215 32.5207 18.9215 32.5057C18.9215 32.4482 18.924 32.3907 18.929 32.3345C18.929 32.3307 18.929 32.3269 18.929 32.3244C18.9365 32.2282 18.949 32.1332 18.9653 32.0382C18.9678 32.027 18.9703 32.0145 18.9715 32.0032C18.9778 31.9682 18.9853 31.9332 18.994 31.8982C18.9978 31.882 19.0015 31.8645 19.0065 31.8482C19.014 31.8207 19.0215 31.7932 19.029 31.7657C19.0353 31.7445 19.0403 31.7232 19.0478 31.7032C19.054 31.6845 19.0603 31.667 19.0653 31.6482C19.339 30.8145 19.9878 30.152 20.8115 29.8582C20.8153 29.857 20.8203 29.8545 20.824 29.8532C20.8553 29.842 20.8865 29.832 20.9178 29.822C20.934 29.817 20.9503 29.8119 20.9665 29.8069C20.9915 29.7994 21.0165 29.792 21.0415 29.7857C21.0678 29.7782 21.094 29.772 21.1203 29.767C21.139 29.7632 21.1565 29.7582 21.1753 29.7545C21.2703 29.7345 21.3665 29.7195 21.464 29.7082C21.4753 29.7082 21.4878 29.7057 21.499 29.7045C21.5253 29.702 21.5503 29.6994 21.5765 29.6982C21.5865 29.6982 21.5953 29.6982 21.6053 29.6982C21.6315 29.6969 21.659 29.6957 21.6865 29.6957C21.714 29.6957 21.7403 29.6945 21.7678 29.6945C21.7953 29.6945 21.8215 29.6945 21.849 29.6957C21.8765 29.6957 21.9028 29.6969 21.9303 29.6982C21.9403 29.6982 21.949 29.6982 21.959 29.6982C21.9853 29.6994 22.0103 29.7032 22.0365 29.7045C22.0478 29.7045 22.0603 29.707 22.0715 29.7082C22.169 29.7182 22.2653 29.7345 22.3603 29.7545C22.379 29.7582 22.3965 29.7632 22.4153 29.767C22.4415 29.7732 22.4678 29.7795 22.494 29.7857C22.519 29.792 22.544 29.7994 22.569 29.8069C22.5853 29.8119 22.6015 29.817 22.6178 29.822C22.649 29.832 22.6803 29.842 22.7115 29.8532C22.7153 29.8545 22.7203 29.857 22.724 29.8582C23.5478 30.152 24.1965 30.8157 24.4703 31.6482C24.4765 31.667 24.4828 31.6857 24.489 31.7032C24.4953 31.7245 24.5015 31.7445 24.5065 31.7657C24.514 31.7932 24.5215 31.8207 24.529 31.8495C24.5328 31.8657 24.5365 31.8832 24.5415 31.8995C24.549 31.9345 24.5565 31.9695 24.564 32.0045C24.5665 32.0157 24.569 32.027 24.5703 32.0395C24.5865 32.1332 24.599 32.2282 24.6065 32.3257C24.6065 32.3294 24.6065 32.3332 24.6065 32.3357C24.6103 32.392 24.6128 32.4495 24.614 32.507C24.614 32.5232 24.614 32.5382 24.614 32.5545C24.614 32.597 24.614 32.6394 24.6115 32.6819C24.6115 32.7032 24.609 32.7232 24.6065 32.7444C24.604 32.7732 24.6028 32.8032 24.6003 32.832C24.6003 32.8432 24.5978 32.8557 24.5965 32.867C24.5965 32.8745 24.5953 32.882 24.594 32.8895C24.559 33.182 24.4778 33.4595 24.3603 33.7182C24.3603 33.7195 24.3603 33.7207 24.359 33.722C23.9465 34.6207 23.9865 35.662 24.4753 36.5207C24.9628 37.377 25.8328 37.9482 26.8128 38.0495C27.2478 38.0945 27.6803 38.2407 28.0765 38.4995C29.2628 39.2732 29.6978 40.8195 29.089 42.097L29.0815 42.0919Z" fill="#FF3B00"/>
<path d="M7.65901 5.61322C5.71151 5.48697 4.15151 7.32072 4.75776 9.33322C5.08276 10.412 6.05151 11.1682 7.17151 11.282C7.19151 11.2845 7.21275 11.2857 7.23275 11.287C8.21651 11.367 9.11026 11.892 9.62151 12.737L9.64651 12.7782C9.65151 12.7857 9.65526 12.7932 9.66026 12.8007C10.5678 14.3307 9.47526 16.2907 7.69651 16.322C7.68776 16.322 7.679 16.322 7.67025 16.322H7.56026C6.60026 16.3307 5.71151 15.8557 5.15026 15.0757C5.14401 15.067 5.13901 15.0595 5.13276 15.0507C4.34901 13.9857 2.909 13.5982 1.7015 14.137C0.0177546 14.887 -0.518492 16.9695 0.556508 18.4332C1.38651 19.5645 2.94776 19.9157 4.18401 19.2532C4.59401 19.0332 4.92651 18.7307 5.17401 18.3782C5.74026 17.5707 6.66276 17.0895 7.64776 17.0807C8.63651 17.072 9.56526 17.5445 10.149 18.342C10.149 18.342 10.1503 18.3445 10.1515 18.3457C10.319 18.5757 10.524 18.7807 10.7615 18.9545C10.7678 18.9582 10.774 18.9632 10.779 18.967C10.789 18.9745 10.7978 18.9807 10.8078 18.9882C10.8315 19.0057 10.8565 19.0207 10.8815 19.037C10.899 19.0482 10.9153 19.0595 10.9328 19.0707C10.969 19.0932 11.0065 19.1145 11.0428 19.1357C11.0565 19.1432 11.069 19.152 11.0828 19.1595C11.1328 19.187 11.184 19.2132 11.2353 19.237C11.239 19.2382 11.2415 19.2407 11.244 19.242C11.3315 19.2832 11.4215 19.3182 11.5115 19.3495C11.5228 19.3532 11.534 19.357 11.5453 19.3607C11.579 19.372 11.6128 19.3832 11.6478 19.3932C11.664 19.3982 11.6815 19.4032 11.6978 19.407C11.7253 19.4145 11.7528 19.422 11.7815 19.4282C11.8028 19.4332 11.824 19.4382 11.8453 19.4432C11.864 19.447 11.8828 19.4507 11.9028 19.4545C12.764 19.6207 13.659 19.3782 14.3178 18.802C14.3215 18.7995 14.324 18.7957 14.3278 18.7932C14.3528 18.772 14.3765 18.7495 14.4003 18.727C14.4128 18.7157 14.4253 18.7032 14.4378 18.6907C14.4565 18.672 14.4753 18.6545 14.4928 18.6357C14.5115 18.6157 14.5303 18.597 14.5478 18.577C14.5603 18.5632 14.5728 18.5495 14.5853 18.5357C14.649 18.4632 14.709 18.3857 14.7665 18.3057C14.7728 18.2957 14.7803 18.2857 14.7865 18.2757C14.8015 18.2545 14.8165 18.2332 14.8303 18.212C14.8353 18.2032 14.8403 18.1957 14.8453 18.187C14.859 18.1645 14.874 18.1407 14.8878 18.1182C14.9015 18.0945 14.9153 18.072 14.929 18.0482C14.9428 18.0245 14.954 18.0007 14.9665 17.977C14.979 17.9532 14.9915 17.9295 15.0028 17.9045C15.0065 17.8957 15.0115 17.887 15.0153 17.8782C15.0265 17.8545 15.0365 17.8307 15.0465 17.8082C15.0515 17.797 15.0565 17.787 15.0615 17.7757C15.1003 17.6857 15.134 17.5932 15.1628 17.5007C15.1678 17.4832 15.1728 17.4645 15.1778 17.447C15.1853 17.4207 15.1928 17.3945 15.199 17.3695C15.2053 17.3445 15.2115 17.3182 15.2178 17.2932C15.2215 17.277 15.2253 17.2595 15.229 17.2432C15.2353 17.2107 15.2415 17.1795 15.2478 17.147C15.2478 17.142 15.249 17.1382 15.2503 17.1332C15.3953 16.2707 15.1315 15.382 14.5378 14.7357C14.524 14.722 14.5115 14.707 14.4978 14.6932C14.4828 14.677 14.4678 14.662 14.4515 14.647C14.4315 14.627 14.4103 14.607 14.389 14.587C14.3765 14.5757 14.364 14.5632 14.3515 14.552C14.3253 14.5282 14.2978 14.5045 14.2703 14.482C14.2615 14.4745 14.2528 14.467 14.2428 14.4595C14.169 14.3995 14.0915 14.342 14.0103 14.2895C14.0078 14.287 14.004 14.2857 14.0015 14.2845C13.954 14.2532 13.9053 14.2232 13.8553 14.1945C13.8415 14.187 13.8278 14.1795 13.814 14.172C13.7765 14.152 13.739 14.132 13.7015 14.112C13.6828 14.1032 13.664 14.0945 13.6453 14.0857C13.619 14.0732 13.5928 14.0607 13.5653 14.0482C13.554 14.0432 13.5428 14.0395 13.5328 14.0345C13.5253 14.032 13.519 14.0282 13.5115 14.0257C13.239 13.9145 12.9565 13.8495 12.674 13.827C12.6728 13.827 12.6715 13.827 12.6703 13.827C11.6853 13.7495 10.7953 13.207 10.2828 12.362C9.77276 11.5195 9.69776 10.4807 10.0865 9.57571C10.259 9.17446 10.3415 8.72447 10.309 8.25322C10.2115 6.84072 9.07276 5.70697 7.66026 5.61572L7.65901 5.61322Z" fill="#FF3B00"/>
<path d="M42.9978 25.3257C44.1278 26.9157 43.3878 29.2069 41.3578 29.7494C40.2691 30.0394 39.1166 29.6119 38.4316 28.7194C38.4191 28.7032 38.4066 28.6869 38.3953 28.6707C37.8103 27.8757 36.8941 27.3919 35.9066 27.4007H35.8578C35.8491 27.4007 35.8403 27.4007 35.8316 27.4007C34.0528 27.4319 32.9591 29.3919 33.8678 30.9219C33.8728 30.9294 33.8766 30.937 33.8816 30.9445L33.9378 31.0382C34.4353 31.8595 35.3066 32.3657 36.2653 32.4332C36.2753 32.4332 36.2853 32.4344 36.2953 32.4357C37.6128 32.5432 38.6991 33.5657 38.8766 34.8757C39.1228 36.7032 37.6328 38.2519 35.8228 38.1069C34.4241 37.9944 33.3053 36.8519 33.2191 35.4519C33.1903 34.9882 33.2728 34.5457 33.4428 34.1507C33.8316 33.2457 33.7578 32.2069 33.2466 31.3644C32.7341 30.5194 31.8453 29.977 30.8591 29.8995C30.8578 29.8995 30.8566 29.8995 30.8553 29.8995C30.5716 29.877 30.2891 29.8119 30.0166 29.6994C30.0103 29.6969 30.0028 29.6944 29.9966 29.6907C29.9853 29.6857 29.9741 29.6819 29.9641 29.6769C29.9366 29.6657 29.9103 29.6519 29.8841 29.6394C29.8653 29.6307 29.8466 29.6219 29.8278 29.6132C29.7891 29.5944 29.7516 29.5745 29.7153 29.5532C29.7016 29.5457 29.6878 29.5394 29.6741 29.5307C29.6241 29.5019 29.5753 29.4719 29.5278 29.4407C29.5253 29.4382 29.5216 29.4369 29.5191 29.4357C29.4378 29.3819 29.3616 29.3257 29.2866 29.2657C29.2778 29.2582 29.2691 29.2507 29.2591 29.2432C29.2316 29.2207 29.2041 29.1969 29.1778 29.1732C29.1653 29.1619 29.1528 29.1494 29.1403 29.1382C29.1191 29.1182 29.0991 29.0982 29.0791 29.0782C29.0641 29.0632 29.0478 29.0469 29.0328 29.0319C29.0191 29.0182 29.0066 29.0032 28.9941 28.9894C28.3991 28.3444 28.1366 27.4557 28.2816 26.5919C28.2816 26.5869 28.2828 26.5832 28.2841 26.5782C28.2891 26.5457 28.2953 26.5132 28.3028 26.4819C28.3066 26.4657 28.3103 26.4482 28.3141 26.4319C28.3203 26.4069 28.3253 26.3807 28.3328 26.3557C28.3391 26.3294 28.3466 26.3032 28.3541 26.2782C28.3591 26.2607 28.3641 26.2419 28.3691 26.2244C28.3978 26.1319 28.4316 26.0407 28.4703 25.9494C28.4753 25.9382 28.4803 25.9282 28.4853 25.9169C28.4953 25.8932 28.5053 25.8694 28.5166 25.8469C28.5203 25.8382 28.5253 25.8295 28.5291 25.8207C28.5403 25.797 28.5528 25.7732 28.5653 25.7482C28.5778 25.7244 28.5903 25.7007 28.6028 25.6769C28.6153 25.6532 28.6291 25.6307 28.6441 25.6069C28.6578 25.5832 28.6716 25.5607 28.6866 25.5382C28.6916 25.5295 28.6966 25.5219 28.7016 25.5132C28.7153 25.4919 28.7303 25.4707 28.7453 25.4494C28.7516 25.4394 28.7591 25.4294 28.7653 25.4194C28.8216 25.3394 28.8828 25.2619 28.9466 25.1894C28.9591 25.1757 28.9716 25.162 28.9841 25.1482C29.0028 25.1282 29.0203 25.1082 29.0391 25.0894C29.0578 25.0707 29.0753 25.0519 29.0941 25.0344C29.1066 25.0219 29.1191 25.0107 29.1316 24.9982C29.1553 24.9757 29.1791 24.9532 29.2041 24.9319C29.2078 24.9294 29.2116 24.9257 29.2141 24.9232C29.8728 24.3469 30.7666 24.1032 31.6278 24.2707C31.6466 24.2744 31.6666 24.2782 31.6853 24.2819C31.7066 24.2869 31.7278 24.2919 31.7491 24.2969C31.7766 24.3032 31.8053 24.3107 31.8328 24.3182C31.8491 24.3232 31.8653 24.3269 31.8828 24.3319C31.9166 24.3419 31.9516 24.3532 31.9853 24.3644C31.9966 24.3682 32.0078 24.3719 32.0191 24.3757C32.1091 24.4069 32.1978 24.4419 32.2866 24.4832C32.2903 24.4844 32.2928 24.4869 32.2966 24.4882C32.3478 24.5119 32.3991 24.5382 32.4491 24.5657C32.4628 24.5732 32.4766 24.5819 32.4903 24.5894C32.5278 24.6107 32.5641 24.6319 32.6003 24.6544C32.6178 24.6657 32.6353 24.6769 32.6528 24.6882C32.6778 24.7044 32.7016 24.7194 32.7266 24.7369C32.7366 24.7432 32.7453 24.7507 32.7553 24.7582C32.7616 24.7632 32.7678 24.767 32.7741 24.772C33.0116 24.9445 33.2166 25.1507 33.3841 25.3807C33.3841 25.3807 33.3853 25.3832 33.3866 25.3845C33.9703 26.182 34.8991 26.6544 35.8878 26.6457C36.8728 26.6369 37.7953 26.1557 38.3616 25.3482C38.6128 24.9907 38.9516 24.6832 39.3703 24.4632C40.6228 23.8044 42.1853 24.1769 43.0053 25.3319L42.9978 25.3257Z" fill="#FF3B00"/>
<path d="M7.65901 38.1082C5.71151 38.2344 4.15151 36.4007 4.75776 34.3882C5.08276 33.3094 6.05151 32.5532 7.17151 32.4394C7.19151 32.4369 7.21275 32.4357 7.23275 32.4344C8.21651 32.3544 9.11026 31.8294 9.62151 30.9844L9.64651 30.9432C9.65151 30.9357 9.65526 30.9282 9.66026 30.9207C10.5678 29.3907 9.47526 27.4307 7.69651 27.3995C7.68776 27.3995 7.679 27.3995 7.67025 27.3995H7.56026C6.60026 27.3907 5.71151 27.8657 5.15026 28.6457C5.14401 28.6544 5.13901 28.6619 5.13276 28.6707C4.34901 29.7357 2.909 30.1232 1.7015 29.5845C0.0177546 28.8345 -0.518492 26.752 0.556508 25.2882C1.38651 24.157 2.94776 23.8057 4.18401 24.4682C4.59401 24.6882 4.92651 24.9907 5.17401 25.3432C5.74026 26.1507 6.66276 26.6319 7.64776 26.6407C8.63651 26.6494 9.56526 26.1769 10.149 25.3794C10.149 25.3794 10.1503 25.3769 10.1515 25.3757C10.319 25.1457 10.524 24.9407 10.7615 24.7669C10.7678 24.7632 10.774 24.7582 10.779 24.7544C10.789 24.7469 10.7978 24.7407 10.8078 24.7332C10.8315 24.7157 10.8565 24.7007 10.8815 24.6844C10.899 24.6732 10.9153 24.6619 10.9328 24.6507C10.969 24.6282 11.0065 24.607 11.0428 24.5857C11.0565 24.5782 11.069 24.5694 11.0828 24.5619C11.1328 24.5344 11.184 24.5082 11.2353 24.4844C11.239 24.4832 11.2415 24.4807 11.244 24.4794C11.3315 24.4382 11.4215 24.4032 11.5115 24.3719C11.5228 24.3682 11.534 24.3644 11.5453 24.3607C11.579 24.3494 11.6128 24.3382 11.6478 24.3282C11.664 24.3232 11.6815 24.3182 11.6978 24.3144C11.7253 24.3069 11.7528 24.2994 11.7815 24.2932C11.8028 24.2882 11.824 24.2832 11.8453 24.2782C11.864 24.2744 11.8828 24.2707 11.9028 24.2669C12.764 24.1007 13.659 24.3432 14.3178 24.9194C14.3215 24.9219 14.324 24.9257 14.3278 24.9282C14.3528 24.9495 14.3765 24.9719 14.4003 24.9944C14.4128 25.0057 14.4253 25.0182 14.4378 25.0307C14.4565 25.0494 14.4753 25.067 14.4928 25.0857C14.5115 25.1057 14.5303 25.1244 14.5478 25.1444C14.5603 25.1582 14.5728 25.1719 14.5853 25.1857C14.649 25.2582 14.709 25.3357 14.7665 25.4157C14.7728 25.4257 14.7803 25.4357 14.7865 25.4457C14.8015 25.467 14.8165 25.4882 14.8303 25.5095C14.8353 25.5182 14.8403 25.5257 14.8453 25.5344C14.859 25.5569 14.874 25.5807 14.8878 25.6032C14.9015 25.627 14.9153 25.6494 14.929 25.6732C14.9428 25.6969 14.954 25.7207 14.9665 25.7444C14.979 25.7682 14.9915 25.7919 15.0028 25.8169C15.0065 25.8257 15.0115 25.8344 15.0153 25.8432C15.0265 25.8669 15.0365 25.8907 15.0465 25.9132C15.0515 25.9245 15.0565 25.9345 15.0615 25.9457C15.1003 26.0357 15.134 26.1282 15.1628 26.2207C15.1678 26.2382 15.1728 26.257 15.1778 26.2745C15.1853 26.3007 15.1928 26.327 15.199 26.352C15.2053 26.377 15.2115 26.4032 15.2178 26.4282C15.2215 26.4445 15.2253 26.462 15.229 26.4782C15.2353 26.5107 15.2415 26.5419 15.2478 26.5744C15.2478 26.5794 15.249 26.5832 15.2503 26.5882C15.3953 27.4507 15.1315 28.3394 14.5378 28.9857C14.524 28.9994 14.5115 29.0144 14.4978 29.0282C14.4828 29.0444 14.4678 29.0594 14.4515 29.0744C14.4315 29.0944 14.4103 29.1145 14.389 29.1345C14.3765 29.1457 14.364 29.1582 14.3515 29.1694C14.3253 29.1932 14.2978 29.2169 14.2703 29.2394C14.2615 29.2469 14.2528 29.2544 14.2428 29.2619C14.169 29.3219 14.0915 29.3794 14.0103 29.4319C14.0078 29.4344 14.004 29.4357 14.0015 29.4369C13.954 29.4682 13.9053 29.4982 13.8553 29.5269C13.8415 29.5344 13.8278 29.5419 13.814 29.5494C13.7765 29.5694 13.739 29.5894 13.7015 29.6094C13.6828 29.6182 13.664 29.6269 13.6453 29.6357C13.619 29.6482 13.5928 29.6607 13.5653 29.6732C13.554 29.6782 13.5428 29.6819 13.5328 29.6869C13.5253 29.6894 13.519 29.6932 13.5115 29.6957C13.239 29.807 12.9565 29.8719 12.674 29.8944C12.6728 29.8944 12.6715 29.8944 12.6703 29.8944C11.6853 29.9719 10.7953 30.5144 10.2828 31.3594C9.77276 32.2019 9.69776 33.2407 10.0865 34.1457C10.259 34.5469 10.3415 34.9969 10.309 35.4682C10.2115 36.8807 9.07276 38.0144 7.66026 38.1057L7.65901 38.1082Z" fill="#FF3B00"/>
<path d="M42.9978 18.3957C44.1278 16.8057 43.3878 14.5145 41.3578 13.972C40.2691 13.682 39.1166 14.1095 38.4316 15.002C38.4191 15.0182 38.4066 15.0345 38.3953 15.0507C37.8103 15.8457 36.8941 16.3295 35.9066 16.3207H35.8578C35.8491 16.3207 35.8403 16.3207 35.8316 16.3207C34.0528 16.2895 32.9591 14.3295 33.8678 12.7995C33.8728 12.792 33.8766 12.7845 33.8816 12.777L33.9378 12.6832C34.4353 11.862 35.3066 11.3557 36.2653 11.2882C36.2753 11.2882 36.2853 11.287 36.2953 11.2857C37.6128 11.1782 38.6991 10.1557 38.8766 8.84571C39.1228 7.01821 37.6328 5.46947 35.8228 5.61447C34.4241 5.72697 33.3053 6.86946 33.2191 8.26946C33.1903 8.73321 33.2728 9.17572 33.4428 9.57072C33.8316 10.4757 33.7578 11.5145 33.2466 12.357C32.7341 13.202 31.8453 13.7445 30.8591 13.822C30.8578 13.822 30.8566 13.822 30.8553 13.822C30.5716 13.8445 30.2891 13.9095 30.0166 14.022C30.0103 14.0245 30.0028 14.027 29.9966 14.0307C29.9853 14.0357 29.9741 14.0395 29.9641 14.0445C29.9366 14.0557 29.9103 14.0695 29.8841 14.082C29.8653 14.0907 29.8466 14.0995 29.8278 14.1082C29.7891 14.127 29.7516 14.147 29.7153 14.1682C29.7016 14.1757 29.6878 14.182 29.6741 14.1907C29.6241 14.2195 29.5753 14.2495 29.5278 14.2807C29.5253 14.2832 29.5216 14.2845 29.5191 14.2857C29.4378 14.3395 29.3616 14.3957 29.2866 14.4557C29.2778 14.4632 29.2691 14.4707 29.2591 14.4782C29.2316 14.5007 29.2041 14.5245 29.1778 14.5482C29.1653 14.5595 29.1528 14.572 29.1403 14.5832C29.1191 14.6032 29.0991 14.6232 29.0791 14.6432C29.0641 14.6582 29.0478 14.6745 29.0328 14.6895C29.0191 14.7032 29.0066 14.7182 28.9941 14.732C28.3991 15.377 28.1366 16.2657 28.2816 17.1295C28.2816 17.1345 28.2828 17.1382 28.2841 17.1432C28.2891 17.1757 28.2953 17.2082 28.3028 17.2395C28.3066 17.2557 28.3103 17.2732 28.3141 17.2895C28.3203 17.3145 28.3253 17.3407 28.3328 17.3657C28.3391 17.392 28.3466 17.4182 28.3541 17.4432C28.3591 17.4607 28.3641 17.4795 28.3691 17.497C28.3978 17.5895 28.4316 17.6807 28.4703 17.772C28.4753 17.7832 28.4803 17.7932 28.4853 17.8045C28.4953 17.8282 28.5053 17.852 28.5166 17.8745C28.5203 17.8832 28.5253 17.892 28.5291 17.9007C28.5403 17.9245 28.5528 17.9482 28.5653 17.9732C28.5778 17.997 28.5903 18.0207 28.6028 18.0445C28.6153 18.0682 28.6291 18.0907 28.6441 18.1145C28.6578 18.1382 28.6716 18.1607 28.6866 18.1832C28.6916 18.192 28.6966 18.1995 28.7016 18.2082C28.7153 18.2295 28.7303 18.2507 28.7453 18.272C28.7516 18.282 28.7591 18.292 28.7653 18.302C28.8216 18.382 28.8828 18.4595 28.9466 18.532C28.9591 18.5457 28.9716 18.5595 28.9841 18.5732C29.0028 18.5932 29.0203 18.6132 29.0391 18.632C29.0578 18.6507 29.0753 18.6695 29.0941 18.687C29.1066 18.6995 29.1191 18.7107 29.1316 18.7232C29.1553 18.7457 29.1791 18.7682 29.2041 18.7895C29.2078 18.792 29.2116 18.7957 29.2141 18.7982C29.8728 19.3745 30.7666 19.6182 31.6278 19.4507C31.6466 19.447 31.6666 19.4432 31.6853 19.4395C31.7066 19.4345 31.7278 19.4295 31.7491 19.4245C31.7766 19.4182 31.8053 19.4107 31.8328 19.4032C31.8491 19.3982 31.8653 19.3945 31.8828 19.3895C31.9166 19.3795 31.9516 19.3682 31.9853 19.357C31.9966 19.3532 32.0078 19.3495 32.0191 19.3457C32.1091 19.3145 32.1978 19.2795 32.2866 19.2382C32.2903 19.237 32.2928 19.2345 32.2966 19.2332C32.3478 19.2095 32.3991 19.1832 32.4491 19.1557C32.4628 19.1482 32.4766 19.1395 32.4903 19.132C32.5278 19.1107 32.5641 19.0895 32.6003 19.067C32.6178 19.0557 32.6353 19.0445 32.6528 19.0332C32.6778 19.017 32.7016 19.002 32.7266 18.9845C32.7366 18.9782 32.7453 18.9707 32.7553 18.9632C32.7616 18.9582 32.7678 18.9545 32.7741 18.9495C33.0116 18.777 33.2166 18.5707 33.3841 18.3407C33.3841 18.3407 33.3853 18.3382 33.3866 18.337C33.9703 17.5395 34.8991 17.067 35.8878 17.0757C36.8728 17.0845 37.7953 17.5657 38.3616 18.3732C38.6128 18.7307 38.9516 19.0382 39.3703 19.2582C40.6228 19.917 42.1853 19.5445 43.0053 18.3895L42.9978 18.3957Z" fill="#FF3B00"/>
<path d="M51.2841 11.7344H71.4591V16.4232H64.0803V37.1794H58.6278V16.4232H51.2853V11.7344H51.2841Z" fill="white"/>
<path d="M69.9678 27.8382C69.9678 22.0944 73.8578 18.2782 79.819 18.2782C85.7803 18.2782 89.6703 22.0944 89.6703 27.8382C89.6703 33.5819 85.7803 37.3982 79.819 37.3982C73.8578 37.3982 69.9678 33.5819 69.9678 27.8382ZM84.4715 27.8382C84.4715 24.6757 82.6903 22.4582 79.819 22.4582C76.9478 22.4582 75.2028 24.6757 75.2028 27.8382C75.2028 31.0007 76.9478 33.2182 79.819 33.2182C82.6903 33.2182 84.4715 31.0007 84.4715 27.8382Z" fill="white"/>
<path d="M111.915 27.8744C111.915 33.6907 108.28 37.3982 103.264 37.3982C100.683 37.3982 98.8291 36.3444 97.6304 34.8169V44.4494H92.5054V18.4957H96.9766L97.4854 21.0769C98.6854 19.4769 100.575 18.2782 103.229 18.2782C108.282 18.2419 111.917 21.9857 111.917 27.8744H111.915ZM106.718 27.8019C106.718 24.6394 104.9 22.4582 102.102 22.4582C99.3029 22.4582 97.5579 24.6394 97.5579 27.8019C97.5579 30.9644 99.3029 33.2182 102.102 33.2182C104.9 33.2182 106.718 31.0007 106.718 27.8019Z" fill="white"/>
<path d="M114.133 24.4582C114.133 16.6432 118.894 11.5169 126.602 11.5169C132.635 11.5169 136.889 15.2969 137.543 20.8232H132.018C131.364 17.9882 129.328 16.1344 126.31 16.1344C122.167 16.1344 119.694 19.5519 119.694 24.4582C119.694 29.3644 122.129 32.7819 126.237 32.7819C129.327 32.7819 131.362 30.9282 132.017 28.0932H137.505C136.888 33.6182 132.489 37.3994 126.273 37.3994C118.712 37.3994 114.132 32.2744 114.132 24.4582H114.133Z" fill="white"/>
<path d="M139.47 27.8382C139.47 22.0944 143.36 18.2782 149.321 18.2782C155.283 18.2782 159.173 22.0944 159.173 27.8382C159.173 33.5819 155.283 37.3982 149.321 37.3982C143.36 37.3982 139.47 33.5819 139.47 27.8382ZM153.974 27.8382C153.974 24.6757 152.193 22.4582 149.321 22.4582C146.45 22.4582 144.705 24.6757 144.705 27.8382C144.705 31.0007 146.45 33.2182 149.321 33.2182C152.193 33.2182 153.974 31.0007 153.974 27.8382Z" fill="white"/>
<path d="M191.269 26.4569V37.1807H186.144V26.7482C186.144 23.9494 185.127 22.4957 182.909 22.4957C180.692 22.4957 179.202 24.1319 179.202 26.9669V37.1819H174.077V26.7494C174.077 23.9507 173.059 22.4969 170.805 22.4969C168.552 22.4969 167.134 24.2057 167.134 27.0044V37.1819H162.009V18.4982H166.48L166.953 20.8244C168.08 19.3707 169.715 18.3157 172.442 18.2794C174.732 18.2432 176.877 19.0795 178.039 21.442C179.348 19.4432 181.529 18.2794 184.364 18.2794C188.217 18.2794 191.27 20.4607 191.27 26.4582L191.269 26.4569Z" fill="white"/>
</svg>
