<svg width="164" height="40" viewBox="0 0 164 40" fill="none" xmlns="http://www.w3.org/2000/svg">
<path d="M24.9351 1.46524C24.2159 -0.119711 22.1913 -0.542666 20.9374 0.815056C20.2654 1.54285 20.1035 2.63622 20.4861 3.56649C20.4936 3.58336 20.5001 3.60025 20.5076 3.61712C20.8591 4.4259 20.8388 5.35729 20.4197 6.13008L20.3993 6.16832C20.3961 6.17507 20.3918 6.18183 20.3886 6.18858C19.6223 7.5733 17.6984 7.5733 16.9321 6.18858C16.9278 6.18183 16.9246 6.17507 16.9214 6.16832L16.8753 6.08285C16.468 5.33143 16.453 4.42477 16.8024 3.64186C16.8056 3.63399 16.8099 3.62499 16.8131 3.61712C17.2826 2.53499 16.9718 1.23238 16.064 0.519213C14.7993 -0.475175 13.0158 0.0163939 12.3685 1.50235C11.869 2.65085 12.257 4.03107 13.2698 4.71274C13.6053 4.93884 13.9708 5.06708 14.3384 5.10645C15.1787 5.19756 15.9246 5.71163 16.3426 6.48217C16.7617 7.25495 16.796 8.19198 16.4423 9.00076C16.4423 9.00076 16.4423 9.00301 16.4412 9.00414C16.3394 9.23699 16.2708 9.48783 16.2408 9.74993C16.2408 9.75668 16.2397 9.76342 16.2387 9.77017C16.2376 9.78029 16.2355 9.79155 16.2355 9.80167C16.2333 9.82867 16.2322 9.85453 16.2301 9.8804C16.229 9.8984 16.2269 9.91754 16.2258 9.93554C16.2237 9.97378 16.2237 10.012 16.2237 10.0503C16.2237 10.0649 16.2237 10.0784 16.2237 10.0919C16.2237 10.1436 16.2258 10.1954 16.2301 10.246C16.2301 10.2494 16.2301 10.2527 16.2301 10.255C16.2365 10.3416 16.2472 10.4271 16.2612 10.5126C16.2633 10.5227 16.2655 10.534 16.2665 10.5441C16.2719 10.5756 16.2783 10.6071 16.2858 10.6386C16.289 10.6532 16.2923 10.6689 16.2965 10.6836C16.303 10.7083 16.3094 10.7331 16.3158 10.7578C16.3212 10.7769 16.3255 10.7961 16.3319 10.8141C16.3373 10.8309 16.3426 10.8467 16.3469 10.8636C16.5816 11.6138 17.1379 12.21 17.8442 12.4744C17.8474 12.4755 17.8517 12.4777 17.8549 12.4789C17.8817 12.489 17.9085 12.498 17.9353 12.507C17.9492 12.5115 17.9632 12.516 17.9771 12.5205C17.9985 12.5272 18.02 12.534 18.0414 12.5396C18.0639 12.5464 18.0864 12.552 18.1089 12.5565C18.125 12.5599 18.14 12.5644 18.1561 12.5677C18.2375 12.5857 18.3201 12.5992 18.4037 12.6093C18.4133 12.6093 18.424 12.6116 18.4337 12.6127C18.4562 12.615 18.4776 12.6172 18.5001 12.6184C18.5087 12.6184 18.5162 12.6184 18.5248 12.6184C18.5473 12.6195 18.5709 12.6206 18.5944 12.6206C18.618 12.6206 18.6405 12.6217 18.6641 12.6217C18.6877 12.6217 18.7102 12.6217 18.7338 12.6206C18.7574 12.6206 18.7799 12.6195 18.8034 12.6184C18.812 12.6184 18.8195 12.6184 18.8281 12.6184C18.8506 12.6172 18.872 12.6139 18.8945 12.6127C18.9042 12.6127 18.9149 12.6105 18.9246 12.6093C19.0082 12.6003 19.0907 12.5857 19.1721 12.5677C19.1882 12.5644 19.2032 12.5599 19.2193 12.5565C19.2418 12.5509 19.2643 12.5452 19.2868 12.5396C19.3083 12.534 19.3297 12.5272 19.3511 12.5205C19.3651 12.516 19.379 12.5115 19.3929 12.507C19.4197 12.498 19.4465 12.489 19.4733 12.4789C19.4765 12.4777 19.4808 12.4755 19.484 12.4744C20.1903 12.21 20.7466 11.6127 20.9813 10.8636C20.9867 10.8467 20.992 10.8298 20.9974 10.8141C21.0027 10.7949 21.0081 10.7769 21.0124 10.7578C21.0188 10.7331 21.0253 10.7083 21.0317 10.6824C21.0349 10.6678 21.0381 10.6521 21.0424 10.6375C21.0488 10.606 21.0553 10.5745 21.0617 10.543C21.0638 10.5328 21.066 10.5227 21.067 10.5115C21.081 10.4271 21.0917 10.3416 21.0981 10.2539C21.0981 10.2505 21.0981 10.2471 21.0981 10.2449C21.1013 10.1943 21.1035 10.1425 21.1046 10.0908C21.1046 10.0761 21.1046 10.0626 21.1046 10.048C21.1046 10.0098 21.1046 9.97153 21.1024 9.93328C21.1024 9.91416 21.1003 9.89616 21.0981 9.87704C21.096 9.85117 21.0949 9.82416 21.0928 9.79829C21.0928 9.78817 21.0906 9.77693 21.0896 9.76681C21.0896 9.76006 21.0885 9.7533 21.0874 9.74655C21.0574 9.48333 20.9877 9.23361 20.887 9.00076C20.887 8.99964 20.887 8.99851 20.8859 8.99738C20.5322 8.1886 20.5665 7.25158 20.9856 6.47879C21.4036 5.70825 22.1495 5.19419 22.9898 5.10307C23.3628 5.06258 23.7336 4.93097 24.0734 4.69812C25.0905 4.00182 25.4635 2.61035 24.9415 1.46073L24.9351 1.46524Z" fill="#FF3B00"/>
<path d="M24.9351 37.8786C24.2159 39.4635 22.1913 39.8865 20.9374 38.5288C20.2654 37.801 20.1035 36.7076 20.4861 35.7773C20.4936 35.7605 20.5001 35.7436 20.5076 35.7267C20.8591 34.9179 20.8388 33.9865 20.4197 33.2137L20.3993 33.1755C20.3961 33.1687 20.3918 33.162 20.3886 33.1552C19.6223 31.7705 17.6984 31.7705 16.9321 33.1552C16.9278 33.162 16.9246 33.1687 16.9214 33.1755L16.8753 33.261C16.468 34.0124 16.453 34.919 16.8024 35.702C16.8056 35.7098 16.8099 35.7188 16.8131 35.7267C17.2826 36.8088 16.9718 38.1114 16.064 38.8246C14.7993 39.819 13.0158 39.3274 12.3685 37.8415C11.869 36.693 12.257 35.3127 13.2698 34.6311C13.6053 34.405 13.9708 34.2767 14.3384 34.2374C15.1787 34.1463 15.9246 33.6322 16.3426 32.8617C16.7617 32.0889 16.796 31.1518 16.4423 30.3431C16.4423 30.3431 16.4423 30.3408 16.4412 30.3397C16.3394 30.1068 16.2708 29.856 16.2408 29.5939C16.2408 29.5871 16.2397 29.5804 16.2387 29.5737C16.2376 29.5635 16.2355 29.5523 16.2355 29.5422C16.2333 29.5152 16.2322 29.4893 16.2301 29.4634C16.229 29.4454 16.2269 29.4263 16.2258 29.4083C16.2237 29.3701 16.2237 29.3318 16.2237 29.2936C16.2237 29.2789 16.2237 29.2654 16.2237 29.2519C16.2237 29.2002 16.2258 29.1485 16.2301 29.0978C16.2301 29.0945 16.2301 29.0911 16.2301 29.0888C16.2365 29.0022 16.2472 28.9167 16.2612 28.8312C16.2633 28.8211 16.2655 28.8099 16.2665 28.7997C16.2719 28.7682 16.2783 28.7367 16.2858 28.7053C16.289 28.6906 16.2923 28.6749 16.2965 28.6603C16.303 28.6355 16.3094 28.6108 16.3158 28.586C16.3212 28.5669 16.3255 28.5478 16.3319 28.5298C16.3373 28.5129 16.3426 28.4971 16.3469 28.4803C16.5816 27.73 17.1379 27.1338 17.8442 26.8695C17.8474 26.8683 17.8517 26.8661 17.8549 26.865C17.8817 26.8548 17.9085 26.8458 17.9353 26.8368C17.9492 26.8323 17.9632 26.8278 17.9771 26.8233C17.9985 26.8166 18.02 26.8098 18.0414 26.8042C18.0639 26.7975 18.0864 26.7918 18.1089 26.7873C18.125 26.784 18.14 26.7795 18.1561 26.7761C18.2375 26.7581 18.3201 26.7446 18.4037 26.7345C18.4133 26.7345 18.424 26.7322 18.4337 26.7311C18.4562 26.7288 18.4776 26.7266 18.5001 26.7255C18.5087 26.7255 18.5162 26.7255 18.5248 26.7255C18.5473 26.7243 18.5709 26.7232 18.5944 26.7232C18.618 26.7232 18.6405 26.7221 18.6641 26.7221C18.6877 26.7221 18.7102 26.7221 18.7338 26.7232C18.7574 26.7232 18.7799 26.7243 18.8034 26.7255C18.812 26.7255 18.8195 26.7255 18.8281 26.7255C18.8506 26.7266 18.872 26.73 18.8945 26.7311C18.9042 26.7311 18.9149 26.7333 18.9246 26.7345C19.0082 26.7435 19.0907 26.7581 19.1721 26.7761C19.1882 26.7795 19.2032 26.784 19.2193 26.7873C19.2418 26.793 19.2643 26.7986 19.2868 26.8042C19.3083 26.8098 19.3297 26.8166 19.3511 26.8233C19.3651 26.8278 19.379 26.8323 19.3929 26.8368C19.4197 26.8458 19.4465 26.8548 19.4733 26.865C19.4765 26.8661 19.4808 26.8683 19.484 26.8695C20.1903 27.1338 20.7466 27.7311 20.9813 28.4803C20.9867 28.4971 20.992 28.514 20.9974 28.5298C21.0027 28.5489 21.0081 28.5669 21.0124 28.586C21.0188 28.6108 21.0253 28.6355 21.0317 28.6614C21.0349 28.676 21.0381 28.6918 21.0424 28.7064C21.0488 28.7379 21.0553 28.7694 21.0617 28.8009C21.0638 28.811 21.066 28.8211 21.067 28.8324C21.081 28.9167 21.0917 29.0022 21.0981 29.0899C21.0981 29.0933 21.0981 29.0967 21.0981 29.099C21.1013 29.1496 21.1035 29.2013 21.1046 29.2531C21.1046 29.2677 21.1046 29.2812 21.1046 29.2958C21.1046 29.3341 21.1046 29.3723 21.1024 29.4105C21.1024 29.4297 21.1003 29.4477 21.0981 29.4668C21.096 29.4927 21.0949 29.5197 21.0928 29.5455C21.0928 29.5557 21.0906 29.5669 21.0896 29.577C21.0896 29.5838 21.0885 29.5905 21.0874 29.5973C21.0574 29.8605 20.9877 30.1102 20.887 30.3431C20.887 30.3442 20.887 30.3453 20.8859 30.3464C20.5322 31.1552 20.5665 32.0922 20.9856 32.865C21.4036 33.6356 22.1495 34.1496 22.9898 34.2407C23.3628 34.2812 23.7336 34.4129 24.0734 34.6457C25.0905 35.342 25.4635 36.7335 24.9415 37.8831L24.9351 37.8786Z" fill="#FF3B00"/>
<path d="M6.56703 5.05135C4.89719 4.93774 3.55961 6.58793 4.07942 8.39897C4.35808 9.36974 5.18872 10.0503 6.14903 10.1526C6.16618 10.1549 6.1844 10.156 6.20155 10.1572C7.04504 10.2291 7.81137 10.7016 8.24973 11.462L8.27116 11.4991C8.27545 11.5059 8.27867 11.5126 8.28295 11.5194C9.06107 12.8962 8.12433 14.66 6.59918 14.6881C6.59168 14.6881 6.58417 14.6881 6.57667 14.6881H6.48236C5.65923 14.696 4.89719 14.2686 4.41596 13.5666C4.4106 13.5588 4.40631 13.552 4.40096 13.5441C3.72895 12.5857 2.49425 12.237 1.45891 12.7219C0.0152232 13.3968 -0.444568 15.2708 0.477164 16.588C1.18883 17.6061 2.52748 17.9221 3.58748 17.326C3.93902 17.128 4.22411 16.8558 4.43633 16.5386C4.92184 15.8119 5.71282 15.3788 6.55738 15.3709C7.40516 15.3631 8.20149 15.7883 8.70202 16.5059C8.70202 16.5059 8.70309 16.5082 8.70416 16.5093C8.84778 16.7163 9.02355 16.9008 9.22719 17.0571C9.23255 17.0605 9.23791 17.065 9.2422 17.0684C9.25077 17.0751 9.25827 17.0807 9.26685 17.0875C9.28721 17.1032 9.30864 17.1167 9.33008 17.1314C9.34508 17.1415 9.35902 17.1516 9.37403 17.1617C9.40511 17.182 9.43726 17.2011 9.46834 17.2202C9.48013 17.227 9.49085 17.2348 9.50264 17.2416C9.54551 17.2663 9.58945 17.29 9.6334 17.3113C9.63661 17.3125 9.63876 17.3147 9.6409 17.3158C9.71592 17.353 9.79309 17.3845 9.87026 17.4126C9.87991 17.416 9.88955 17.4193 9.8992 17.4227C9.92813 17.4328 9.95707 17.443 9.98708 17.4519C10.001 17.4564 10.016 17.4609 10.03 17.4643C10.0535 17.4711 10.0771 17.4778 10.1018 17.4834C10.12 17.4879 10.1382 17.4924 10.1564 17.4969C10.1725 17.5003 10.1886 17.5037 10.2057 17.5071C10.9442 17.6567 11.7116 17.4385 12.2764 16.9199C12.2796 16.9176 12.2818 16.9143 12.285 16.912C12.3064 16.8929 12.3268 16.8726 12.3471 16.8524C12.3579 16.8423 12.3686 16.831 12.3793 16.8198C12.3954 16.8029 12.4115 16.7871 12.4265 16.7703C12.4425 16.7523 12.4586 16.7354 12.4736 16.7174C12.4843 16.705 12.4951 16.6927 12.5058 16.6803C12.5604 16.615 12.6119 16.5453 12.6612 16.4733C12.6665 16.4643 12.673 16.4553 12.6783 16.4463C12.6912 16.4272 12.7041 16.4081 12.7158 16.389C12.7201 16.3811 12.7244 16.3743 12.7287 16.3664C12.7405 16.3462 12.7534 16.3248 12.7651 16.3046C12.7769 16.2832 12.7887 16.263 12.8005 16.2416C12.8123 16.2202 12.822 16.1988 12.8327 16.1775C12.8434 16.1561 12.8541 16.1347 12.8637 16.1122C12.867 16.1043 12.8712 16.0965 12.8745 16.0886C12.8841 16.0672 12.8927 16.0459 12.9013 16.0256C12.9055 16.0155 12.9098 16.0065 12.9141 15.9964C12.9473 15.9154 12.9763 15.8321 13.0009 15.7489C13.0052 15.7331 13.0095 15.7163 13.0138 15.7005C13.0202 15.6769 13.0267 15.6533 13.032 15.6308C13.0374 15.6083 13.0427 15.5847 13.0481 15.5622C13.0513 15.5475 13.0545 15.5318 13.0577 15.5172C13.0631 15.4879 13.0685 15.4598 13.0738 15.4306C13.0738 15.4261 13.0749 15.4227 13.076 15.4182C13.2003 14.642 12.9741 13.8422 12.465 13.2607C12.4533 13.2483 12.4425 13.2348 12.4307 13.2224C12.4179 13.2078 12.405 13.1943 12.3911 13.1808C12.3739 13.1628 12.3557 13.1448 12.3375 13.1268C12.3268 13.1167 12.3161 13.1054 12.3053 13.0953C12.2828 13.0739 12.2593 13.0526 12.2357 13.0323C12.2282 13.0256 12.2207 13.0188 12.2121 13.0121C12.1489 12.9581 12.0824 12.9063 12.0128 12.8591C12.0106 12.8568 12.0074 12.8557 12.0052 12.8546C11.9645 12.8265 11.9227 12.7995 11.8799 12.7736C11.8681 12.7669 11.8563 12.7601 11.8445 12.7534C11.8123 12.7354 11.7802 12.7174 11.748 12.6994C11.7319 12.6915 11.7159 12.6836 11.6998 12.6757C11.6773 12.6645 11.6548 12.6532 11.6312 12.642C11.6216 12.6375 11.6119 12.6341 11.6033 12.6296C11.5969 12.6274 11.5915 12.624 11.5851 12.6217C11.3515 12.5216 11.1092 12.4631 10.867 12.4429C10.8659 12.4429 10.8649 12.4429 10.8638 12.4429C10.0192 12.3731 9.25613 11.885 8.8167 11.1245C8.37941 10.3664 8.3151 9.4316 8.64843 8.61719C8.79633 8.25611 8.86707 7.85116 8.83921 7.42708C8.75561 6.15598 7.77922 5.13572 6.5681 5.0536L6.56703 5.05135Z" fill="#FF3B00"/>
<path d="M36.8673 22.7905C37.8361 24.2213 37.2016 26.2832 35.4611 26.7714C34.5275 27.0324 33.5394 26.6477 32.952 25.8445C32.9413 25.8299 32.9306 25.8153 32.9209 25.8006C32.4194 25.0852 31.6337 24.6499 30.787 24.6578H30.7452C30.7377 24.6578 30.7302 24.6578 30.7227 24.6578C29.1976 24.6859 28.2598 26.4497 29.039 27.8265C29.0432 27.8333 29.0465 27.84 29.0507 27.8468L29.099 27.9312C29.5255 28.6702 30.2726 29.1258 31.0946 29.1865C31.1032 29.1865 31.1118 29.1876 31.1203 29.1888C32.25 29.2855 33.1814 30.2056 33.3336 31.3845C33.5447 33.0291 32.2672 34.4228 30.7152 34.2923C29.5159 34.1911 28.5566 33.1629 28.4827 31.9031C28.458 31.4858 28.5288 31.0875 28.6745 30.7321C29.0079 29.9177 28.9446 28.9829 28.5063 28.2247C28.0668 27.4643 27.3048 26.9761 26.4592 26.9064C26.4581 26.9064 26.457 26.9064 26.456 26.9064C26.2127 26.8862 25.9704 26.8276 25.7368 26.7264C25.7314 26.7242 25.725 26.7219 25.7196 26.7185C25.71 26.714 25.7004 26.7107 25.6918 26.7062C25.6682 26.696 25.6457 26.6837 25.6232 26.6724C25.6071 26.6645 25.591 26.6567 25.575 26.6488C25.5417 26.6319 25.5096 26.6139 25.4785 26.5948C25.4667 26.5881 25.4549 26.5824 25.4431 26.5746C25.4003 26.5487 25.3585 26.5217 25.3177 26.4936C25.3156 26.4913 25.3124 26.4902 25.3102 26.4891C25.2406 26.4407 25.1752 26.3901 25.1109 26.3361C25.1034 26.3293 25.0959 26.3226 25.0873 26.3158C25.0637 26.2956 25.0401 26.2742 25.0176 26.2528C25.0069 26.2427 24.9962 26.2315 24.9855 26.2213C24.9673 26.2033 24.9501 26.1853 24.933 26.1674C24.9201 26.1539 24.9062 26.1392 24.8933 26.1257C24.8815 26.1134 24.8708 26.0999 24.8601 26.0875C24.3499 25.5071 24.1248 24.7073 24.2492 23.93C24.2492 23.9255 24.2502 23.9221 24.2513 23.9176C24.2556 23.8884 24.261 23.8591 24.2674 23.831C24.2706 23.8164 24.2738 23.8006 24.277 23.786C24.2824 23.7635 24.2867 23.7399 24.2931 23.7174C24.2985 23.6938 24.3049 23.6701 24.3113 23.6476C24.3156 23.6319 24.3199 23.615 24.3242 23.5993C24.3488 23.516 24.3778 23.4339 24.411 23.3518C24.4153 23.3417 24.4196 23.3327 24.4239 23.3225C24.4324 23.3012 24.441 23.2798 24.4507 23.2596C24.4539 23.2517 24.4582 23.2438 24.4614 23.2359C24.471 23.2146 24.4817 23.1932 24.4925 23.1707C24.5032 23.1493 24.5139 23.1279 24.5246 23.1066C24.5353 23.0852 24.5471 23.0649 24.56 23.0436C24.5718 23.0222 24.5836 23.002 24.5964 22.9817C24.6007 22.9738 24.605 22.9671 24.6093 22.9592C24.6211 22.9401 24.6339 22.921 24.6468 22.9018C24.6521 22.8928 24.6586 22.8838 24.6639 22.8748C24.7122 22.8029 24.7647 22.7331 24.8193 22.6679C24.8301 22.6555 24.8408 22.6431 24.8515 22.6308C24.8676 22.6128 24.8826 22.5948 24.8987 22.5779C24.9147 22.561 24.9297 22.5441 24.9458 22.5284C24.9565 22.5171 24.9672 22.507 24.978 22.4958C24.9983 22.4755 25.0187 22.4553 25.0401 22.4361C25.0433 22.4339 25.0466 22.4305 25.0487 22.4283C25.6135 21.9097 26.3799 21.6904 27.1183 21.8411C27.1344 21.8445 27.1515 21.8478 27.1676 21.8512C27.1858 21.8557 27.2041 21.8602 27.2223 21.8647C27.2459 21.8703 27.2705 21.8771 27.2941 21.8838C27.308 21.8883 27.322 21.8917 27.337 21.8962C27.3659 21.9052 27.3959 21.9153 27.4248 21.9255C27.4345 21.9288 27.4441 21.9322 27.4538 21.9356C27.531 21.9637 27.6071 21.9952 27.6832 22.0323C27.6864 22.0334 27.6885 22.0357 27.6917 22.0368C27.7357 22.0582 27.7796 22.0818 27.8225 22.1066C27.8343 22.1133 27.8461 22.1212 27.8579 22.1279C27.89 22.1471 27.9211 22.1662 27.9522 22.1864C27.9672 22.1965 27.9822 22.2067 27.9972 22.2168C28.0186 22.2314 28.039 22.2449 28.0604 22.2607C28.069 22.2663 28.0765 22.273 28.0851 22.2798C28.0904 22.2843 28.0958 22.2877 28.1011 22.2922C28.3048 22.4474 28.4806 22.633 28.6242 22.84C28.6242 22.84 28.6252 22.8422 28.6263 22.8434C29.1268 23.561 29.9232 23.9862 30.771 23.9784C31.6155 23.9705 32.4065 23.5374 32.892 22.8107C33.1074 22.489 33.3979 22.2123 33.7569 22.0143C34.8309 21.4215 36.1706 21.7567 36.8737 22.7961L36.8673 22.7905Z" fill="#FF3B00"/>
<path d="M6.56703 34.2935C4.89719 34.4071 3.55961 32.757 4.07942 30.9459C4.35808 29.9751 5.18872 29.2946 6.14903 29.1922C6.16618 29.19 6.1844 29.1889 6.20155 29.1877C7.04504 29.1157 7.81137 28.6433 8.24973 27.8829L8.27116 27.8458C8.27545 27.839 8.27867 27.8323 8.28295 27.8255C9.06107 26.4487 8.12433 24.6849 6.59918 24.6567C6.59168 24.6567 6.58417 24.6567 6.57667 24.6567H6.48236C5.65923 24.6489 4.89719 25.0763 4.41596 25.7782C4.4106 25.7861 4.40631 25.7929 4.40096 25.8007C3.72895 26.7591 2.49425 27.1078 1.45891 26.623C0.0152232 25.9481 -0.444568 24.0741 0.477164 22.7568C1.18883 21.7388 2.52748 21.4227 3.58748 22.0189C3.93902 22.2169 4.22411 22.4891 4.43633 22.8063C4.92184 23.533 5.71282 23.9661 6.55738 23.9739C7.40516 23.9818 8.20149 23.5566 8.70202 22.839C8.70202 22.839 8.70309 22.8367 8.70416 22.8356C8.84778 22.6286 9.02355 22.4441 9.22719 22.2878C9.23255 22.2844 9.23791 22.2799 9.2422 22.2765C9.25077 22.2698 9.25827 22.2641 9.26685 22.2574C9.28721 22.2416 9.30864 22.2281 9.33008 22.2135C9.34508 22.2034 9.35902 22.1933 9.37403 22.1831C9.40511 22.1629 9.43726 22.1438 9.46834 22.1247C9.48013 22.1179 9.49085 22.11 9.50264 22.1033C9.54551 22.0785 9.58945 22.0549 9.6334 22.0335C9.63661 22.0324 9.63876 22.0302 9.6409 22.029C9.71592 21.9919 9.79309 21.9604 9.87026 21.9323C9.87991 21.9289 9.88955 21.9256 9.8992 21.9222C9.92813 21.9121 9.95707 21.9019 9.98708 21.8929C10.001 21.8884 10.016 21.8839 10.03 21.8806C10.0535 21.8738 10.0771 21.8671 10.1018 21.8614C10.12 21.8569 10.1382 21.8524 10.1564 21.8479C10.1725 21.8446 10.1886 21.8412 10.2057 21.8378C10.9442 21.6882 11.7116 21.9064 12.2764 22.425C12.2796 22.4272 12.2818 22.4306 12.285 22.4329C12.3064 22.452 12.3268 22.4722 12.3471 22.4925C12.3579 22.5026 12.3686 22.5139 12.3793 22.5251C12.3954 22.542 12.4115 22.5577 12.4265 22.5746C12.4425 22.5926 12.4586 22.6095 12.4736 22.6275C12.4843 22.6398 12.4951 22.6522 12.5058 22.6646C12.5604 22.7298 12.6119 22.7996 12.6612 22.8716C12.6665 22.8806 12.673 22.8896 12.6783 22.8986C12.6912 22.9177 12.7041 22.9368 12.7158 22.9559C12.7201 22.9638 12.7244 22.9706 12.7287 22.9784C12.7405 22.9987 12.7534 23.0201 12.7651 23.0403C12.7769 23.0617 12.7887 23.0819 12.8005 23.1033C12.8123 23.1247 12.822 23.146 12.8327 23.1674C12.8434 23.1888 12.8541 23.2102 12.8637 23.2327C12.867 23.2405 12.8712 23.2484 12.8745 23.2563C12.8841 23.2776 12.8927 23.299 12.9013 23.3193C12.9055 23.3294 12.9098 23.3384 12.9141 23.3485C12.9473 23.4295 12.9763 23.5127 13.0009 23.596C13.0052 23.6117 13.0095 23.6286 13.0138 23.6444C13.0202 23.668 13.0267 23.6916 13.032 23.7141C13.0374 23.7366 13.0427 23.7602 13.0481 23.7827C13.0513 23.7973 13.0545 23.8131 13.0577 23.8277C13.0631 23.857 13.0685 23.8851 13.0738 23.9143C13.0738 23.9188 13.0749 23.9222 13.076 23.9267C13.2003 24.7029 12.9741 25.5026 12.465 26.0842C12.4533 26.0966 12.4425 26.1101 12.4307 26.1224C12.4179 26.1371 12.405 26.1506 12.3911 26.1641C12.3739 26.1821 12.3557 26.2001 12.3375 26.2181C12.3268 26.2282 12.3161 26.2394 12.3053 26.2496C12.2828 26.2709 12.2593 26.2923 12.2357 26.3126C12.2282 26.3193 12.2207 26.3261 12.2121 26.3328C12.1489 26.3868 12.0824 26.4385 12.0128 26.4858C12.0106 26.488 12.0074 26.4892 12.0052 26.4903C11.9645 26.5184 11.9227 26.5454 11.8799 26.5713C11.8681 26.578 11.8563 26.5848 11.8445 26.5915C11.8123 26.6095 11.7802 26.6275 11.748 26.6455C11.7319 26.6534 11.7159 26.6613 11.6998 26.6691C11.6773 26.6804 11.6548 26.6916 11.6312 26.7029C11.6216 26.7074 11.6119 26.7108 11.6033 26.7153C11.5969 26.7175 11.5915 26.7209 11.5851 26.7231C11.3515 26.8233 11.1092 26.8817 10.867 26.902C10.8659 26.902 10.8649 26.902 10.8638 26.902C10.0192 26.9717 9.25613 27.4599 8.8167 28.2203C8.37941 28.9785 8.3151 29.9133 8.64843 30.7277C8.79633 31.0888 8.86707 31.4937 8.83921 31.9178C8.75561 33.1889 7.77922 34.2092 6.5681 34.2913L6.56703 34.2935Z" fill="#FF3B00"/>
<path d="M36.8673 16.5543C37.8361 15.1235 37.2016 13.0616 35.4611 12.5734C34.5275 12.3124 33.5394 12.6971 32.952 13.5003C32.9413 13.5149 32.9306 13.5295 32.9209 13.5441C32.4194 14.2596 31.6337 14.6949 30.787 14.687H30.7452C30.7377 14.687 30.7302 14.687 30.7227 14.687C29.1976 14.6589 28.2598 12.8951 29.039 11.5182C29.0432 11.5115 29.0465 11.5047 29.0507 11.498L29.099 11.4136C29.5255 10.6746 30.2726 10.219 31.0946 10.1583C31.1032 10.1583 31.1118 10.1571 31.1203 10.156C32.25 10.0593 33.1814 9.13913 33.3336 7.96026C33.5447 6.3157 32.2672 4.92198 30.7152 5.05247C29.5159 5.15371 28.5566 6.18184 28.4827 7.4417C28.458 7.85903 28.5288 8.25723 28.6745 8.61269C29.0079 9.4271 28.9446 10.3619 28.5063 11.12C28.0668 11.8804 27.3048 12.3686 26.4592 12.4384C26.4581 12.4384 26.457 12.4384 26.456 12.4384C26.2127 12.4586 25.9704 12.5171 25.7368 12.6184C25.7314 12.6206 25.725 12.6229 25.7196 12.6262C25.71 12.6307 25.7004 12.6341 25.6918 12.6386C25.6682 12.6487 25.6457 12.6611 25.6232 12.6724C25.6071 12.6802 25.591 12.6881 25.575 12.696C25.5417 12.7128 25.5096 12.7308 25.4785 12.75C25.4667 12.7567 25.4549 12.7623 25.4431 12.7702C25.4003 12.7961 25.3585 12.8231 25.3177 12.8512C25.3156 12.8535 25.3124 12.8546 25.3102 12.8557C25.2406 12.9041 25.1752 12.9547 25.1109 13.0087C25.1034 13.0154 25.0959 13.0222 25.0873 13.0289C25.0637 13.0492 25.0401 13.0706 25.0176 13.0919C25.0069 13.1021 24.9962 13.1133 24.9855 13.1234C24.9673 13.1414 24.9501 13.1594 24.933 13.1774C24.9201 13.1909 24.9062 13.2055 24.8933 13.219C24.8815 13.2314 24.8708 13.2449 24.8601 13.2573C24.3499 13.8377 24.1248 14.6375 24.2492 15.4148C24.2492 15.4193 24.2502 15.4227 24.2513 15.4272C24.2556 15.4564 24.261 15.4857 24.2674 15.5138C24.2706 15.5284 24.2738 15.5442 24.277 15.5588C24.2824 15.5813 24.2867 15.6049 24.2931 15.6274C24.2985 15.651 24.3049 15.6746 24.3113 15.6971C24.3156 15.7129 24.3199 15.7298 24.3242 15.7455C24.3488 15.8287 24.3778 15.9109 24.411 15.993C24.4153 16.0031 24.4196 16.0121 24.4239 16.0222C24.4324 16.0436 24.441 16.065 24.4507 16.0852C24.4539 16.0931 24.4582 16.101 24.4614 16.1088C24.471 16.1302 24.4817 16.1516 24.4925 16.1741C24.5032 16.1955 24.5139 16.2168 24.5246 16.2382C24.5353 16.2596 24.5471 16.2798 24.56 16.3012C24.5718 16.3226 24.5836 16.3428 24.5964 16.3631C24.6007 16.3709 24.605 16.3777 24.6093 16.3856C24.6211 16.4047 24.6339 16.4238 24.6468 16.4429C24.6521 16.4519 24.6586 16.4609 24.6639 16.4699C24.7122 16.5419 24.7647 16.6117 24.8193 16.6769C24.8301 16.6893 24.8408 16.7016 24.8515 16.714C24.8676 16.732 24.8826 16.75 24.8987 16.7669C24.9147 16.7838 24.9297 16.8006 24.9458 16.8164C24.9565 16.8276 24.9672 16.8378 24.978 16.849C24.9983 16.8693 25.0187 16.8895 25.0401 16.9086C25.0433 16.9109 25.0466 16.9143 25.0487 16.9165C25.6135 17.4351 26.3799 17.6544 27.1183 17.5037C27.1344 17.5003 27.1515 17.4969 27.1676 17.4936C27.1858 17.4891 27.2041 17.4846 27.2223 17.4801C27.2459 17.4744 27.2705 17.4677 27.2941 17.4609C27.308 17.4564 27.322 17.4531 27.337 17.4486C27.3659 17.4396 27.3959 17.4294 27.4248 17.4193C27.4345 17.4159 27.4441 17.4126 27.4538 17.4092C27.531 17.3811 27.6071 17.3496 27.6832 17.3125C27.6864 17.3113 27.6885 17.3091 27.6917 17.308C27.7357 17.2866 27.7796 17.263 27.8225 17.2382C27.8343 17.2315 27.8461 17.2236 27.8579 17.2168C27.89 17.1977 27.9211 17.1786 27.9522 17.1584C27.9672 17.1482 27.9822 17.1381 27.9972 17.128C28.0186 17.1134 28.039 17.0999 28.0604 17.0841C28.069 17.0785 28.0765 17.0717 28.0851 17.065C28.0904 17.0605 28.0958 17.0571 28.1011 17.0526C28.3048 16.8974 28.4806 16.7118 28.6242 16.5048C28.6242 16.5048 28.6252 16.5026 28.6263 16.5014C29.1268 15.7838 29.9232 15.3585 30.771 15.3664C31.6155 15.3743 32.4065 15.8074 32.892 16.534C33.1074 16.8558 33.3979 17.1325 33.7569 17.3305C34.8309 17.9233 36.1706 17.588 36.8737 16.5487L36.8673 16.5543Z" fill="#FF3B00"/>
<path d="M43.9723 10.5599H61.2708V14.7793H54.9441V33.4578H50.269V14.7793H43.9733V10.5599H43.9723Z" fill="black"/>
<path d="M59.9922 25.0516C59.9922 19.8828 63.3276 16.4486 68.4389 16.4486C73.5502 16.4486 76.8856 19.8828 76.8856 25.0516C76.8856 30.2204 73.5502 33.6547 68.4389 33.6547C63.3276 33.6547 59.9922 30.2204 59.9922 25.0516ZM72.4281 25.0516C72.4281 22.2057 70.9008 20.2102 68.4389 20.2102C65.977 20.2102 64.4808 22.2057 64.4808 25.0516C64.4808 27.8976 65.977 29.8931 68.4389 29.8931C70.9008 29.8931 72.4281 27.8976 72.4281 25.0516Z" fill="black"/>
<path d="M95.959 25.0842C95.959 30.3183 92.8423 33.6547 88.5412 33.6547C86.328 33.6547 84.7386 32.7064 83.7107 31.3318V40.0001H79.3164V16.6443H83.1502L83.5864 18.9672C84.6153 17.5273 86.2358 16.4486 88.5112 16.4486C92.8434 16.416 95.9601 19.785 95.9601 25.0842H95.959ZM91.5026 25.019C91.5026 22.1731 89.9442 20.2102 87.5445 20.2102C85.1448 20.2102 83.6485 22.1731 83.6485 25.019C83.6485 27.8649 85.1448 29.8931 87.5445 29.8931C89.9442 29.8931 91.5026 27.8976 91.5026 25.019Z" fill="black"/>
<path d="M97.8605 22.01C97.8605 14.9773 101.944 10.3642 108.552 10.3642C113.725 10.3642 117.372 13.7658 117.933 18.7388H113.196C112.635 16.1876 110.889 14.5195 108.302 14.5195C104.749 14.5195 102.629 17.5949 102.629 22.01C102.629 26.4251 104.717 29.5005 108.239 29.5005C110.888 29.5005 112.633 27.8323 113.194 25.2811H117.901C117.371 30.253 113.6 33.6558 108.27 33.6558C101.786 33.6558 97.8594 29.0438 97.8594 22.01H97.8605Z" fill="black"/>
<path d="M119.585 25.0516C119.585 19.8828 122.921 16.4486 128.032 16.4486C133.143 16.4486 136.479 19.8828 136.479 25.0516C136.479 30.2204 133.143 33.6547 128.032 33.6547C122.921 33.6547 119.585 30.2204 119.585 25.0516ZM132.021 25.0516C132.021 22.2057 130.494 20.2102 128.032 20.2102C125.57 20.2102 124.074 22.2057 124.074 25.0516C124.074 27.8976 125.57 29.8931 128.032 29.8931C130.494 29.8931 132.021 27.8976 132.021 25.0516Z" fill="black"/>
<path d="M163.999 23.8086V33.4589H159.605V24.0707C159.605 21.5521 158.732 20.2439 156.831 20.2439C154.929 20.2439 153.652 21.7164 153.652 24.2676V33.4589H149.258V24.0707C149.258 21.5521 148.385 20.2439 146.453 20.2439C144.52 20.2439 143.305 21.7816 143.305 24.3002V33.4589H138.911V16.6454H142.744L143.15 18.7388C144.116 17.4306 145.518 16.4812 147.856 16.4486C149.819 16.416 151.658 17.1685 152.655 19.2945C153.777 17.4958 155.648 16.4486 158.078 16.4486C161.382 16.4486 164 18.4115 164 23.8086H163.999Z" fill="black"/>
</svg>
