<svg width="194" height="46" viewBox="0 0 194 46" fill="none" xmlns="http://www.w3.org/2000/svg">
<path d="M29.4967 1.65146C28.646 -0.134926 26.251 -0.611637 24.7677 0.918645C23.9727 1.73894 23.7813 2.97127 24.2339 4.01978C24.2428 4.03879 24.2504 4.05782 24.2593 4.07684C24.6751 4.98841 24.651 6.03818 24.1553 6.90919L24.1312 6.95229C24.1274 6.9599 24.1223 6.96751 24.1185 6.97512C23.212 8.53583 20.9363 8.53583 20.0298 6.97512C20.0247 6.96751 20.0209 6.9599 20.0171 6.95229L19.9626 6.85595C19.4808 6.00903 19.463 4.98714 19.8763 4.10473C19.8801 4.09585 19.8852 4.08571 19.889 4.07684C20.4443 2.85718 20.0767 1.38901 19.0028 0.585203C17.5067 -0.535567 15.3971 0.0184774 14.6313 1.69329C14.0405 2.98776 14.4994 4.5434 15.6975 5.31171C16.0944 5.56655 16.5267 5.71108 16.9616 5.75546C17.9556 5.85815 18.838 6.43755 19.3324 7.30602C19.8282 8.17703 19.8687 9.23314 19.4503 10.1447C19.4503 10.1447 19.4503 10.1473 19.4491 10.1485C19.3286 10.411 19.2475 10.6937 19.212 10.9891C19.212 10.9967 19.2107 11.0043 19.2095 11.0119C19.2082 11.0233 19.2057 11.036 19.2057 11.0474C19.2031 11.0778 19.2018 11.107 19.1993 11.1362C19.198 11.1564 19.1955 11.178 19.1942 11.1983C19.1917 11.2414 19.1917 11.2845 19.1917 11.3276C19.1917 11.3441 19.1917 11.3593 19.1917 11.3745C19.1917 11.4328 19.1942 11.4912 19.1993 11.5482C19.1993 11.552 19.1993 11.5558 19.1993 11.5584C19.2069 11.656 19.2196 11.7523 19.2361 11.8487C19.2386 11.8601 19.2412 11.8728 19.2424 11.8842C19.2488 11.9197 19.2564 11.9552 19.2652 11.9907C19.269 12.0072 19.2728 12.0249 19.2779 12.0414C19.2855 12.0693 19.2931 12.0972 19.3007 12.1251C19.3071 12.1466 19.3122 12.1682 19.3198 12.1885C19.3261 12.2075 19.3324 12.2252 19.3375 12.2443C19.6152 13.0899 20.2732 13.7619 21.1087 14.0598C21.1125 14.0611 21.1176 14.0636 21.1214 14.0649C21.1531 14.0763 21.1848 14.0864 21.2164 14.0966C21.2329 14.1016 21.2494 14.1067 21.2659 14.1118C21.2913 14.1194 21.3166 14.127 21.342 14.1333C21.3686 14.1409 21.3952 14.1473 21.4218 14.1524C21.4409 14.1562 21.4586 14.1612 21.4776 14.165C21.574 14.1853 21.6716 14.2005 21.7705 14.2119C21.7819 14.2119 21.7946 14.2145 21.806 14.2157C21.8326 14.2183 21.858 14.2208 21.8846 14.2221C21.8947 14.2221 21.9036 14.2221 21.9138 14.2221C21.9404 14.2234 21.9683 14.2246 21.9962 14.2246C22.0241 14.2246 22.0507 14.2259 22.0786 14.2259C22.1065 14.2259 22.1331 14.2259 22.161 14.2246C22.1889 14.2246 22.2155 14.2234 22.2434 14.2221C22.2535 14.2221 22.2624 14.2221 22.2726 14.2221C22.2992 14.2208 22.3245 14.217 22.3512 14.2157C22.3626 14.2157 22.3753 14.2132 22.3867 14.2119C22.4856 14.2018 22.5832 14.1853 22.6795 14.165C22.6985 14.1612 22.7163 14.1562 22.7353 14.1524C22.7619 14.146 22.7886 14.1397 22.8152 14.1333C22.8405 14.127 22.8659 14.1194 22.8913 14.1118C22.9077 14.1067 22.9242 14.1016 22.9407 14.0966C22.9724 14.0864 23.0041 14.0763 23.0358 14.0649C23.0396 14.0636 23.0447 14.0611 23.0485 14.0598C23.884 13.7619 24.542 13.0886 24.8196 12.2443C24.826 12.2252 24.8323 12.2062 24.8387 12.1885C24.845 12.1669 24.8513 12.1466 24.8564 12.1251C24.864 12.0972 24.8716 12.0693 24.8792 12.0401C24.883 12.0236 24.8868 12.0059 24.8919 11.9894C24.8995 11.9539 24.9071 11.9184 24.9147 11.8829C24.9173 11.8715 24.9198 11.8601 24.9211 11.8474C24.9376 11.7523 24.9502 11.656 24.9578 11.5571C24.9578 11.5533 24.9578 11.5495 24.9578 11.547C24.9616 11.4899 24.9642 11.4316 24.9655 11.3732C24.9655 11.3568 24.9655 11.3416 24.9655 11.3251C24.9655 11.282 24.9654 11.2389 24.9629 11.1958C24.9629 11.1742 24.9604 11.1539 24.9578 11.1324C24.9553 11.1032 24.954 11.0728 24.9515 11.0436C24.9515 11.0322 24.949 11.0195 24.9477 11.0081C24.9477 11.0005 24.9464 10.9929 24.9452 10.9853C24.9097 10.6886 24.8273 10.4072 24.7081 10.1447C24.7081 10.1434 24.7081 10.1422 24.7068 10.1409C24.2884 9.22933 24.329 8.17322 24.8247 7.30221C25.3192 6.43374 26.2016 5.85434 27.1956 5.75165C27.6368 5.70601 28.0755 5.55767 28.4774 5.29523C29.6805 4.51044 30.1218 2.94212 29.5043 1.64638L29.4967 1.65146Z" fill="#FF3B00"/>
<path d="M29.4967 42.6927C28.646 44.4791 26.251 44.9558 24.7677 43.4255C23.9727 42.6052 23.7813 41.3729 24.2339 40.3244C24.2428 40.3054 24.2504 40.2864 24.2593 40.2673C24.6751 39.3558 24.651 38.306 24.1553 37.435L24.1312 37.3919C24.1274 37.3843 24.1223 37.3767 24.1185 37.3691C23.212 35.8083 20.9363 35.8083 20.0298 37.3691C20.0247 37.3767 20.0209 37.3843 20.0171 37.3919L19.9626 37.4882C19.4808 38.3352 19.463 39.357 19.8763 40.2394C19.8801 40.2483 19.8852 40.2585 19.889 40.2673C20.4443 41.487 20.0767 42.9552 19.0028 43.759C17.5067 44.8797 15.3971 44.3257 14.6313 42.6509C14.0405 41.3564 14.4994 39.8008 15.6975 39.0325C16.0944 38.7776 16.5267 38.6331 16.9616 38.5887C17.9556 38.486 18.838 37.9066 19.3324 37.0381C19.8282 36.1671 19.8687 35.111 19.4503 34.1995C19.4503 34.1995 19.4503 34.1969 19.4491 34.1956C19.3286 33.9332 19.2475 33.6505 19.212 33.3551C19.212 33.3475 19.2107 33.3399 19.2095 33.3323C19.2082 33.3208 19.2057 33.3082 19.2057 33.2968C19.2031 33.2663 19.2018 33.2372 19.1993 33.208C19.198 33.1877 19.1955 33.1662 19.1942 33.1459C19.1917 33.1028 19.1917 33.0597 19.1917 33.0166C19.1917 33.0001 19.1917 32.9849 19.1917 32.9697C19.1917 32.9113 19.1942 32.853 19.1993 32.796C19.1993 32.7922 19.1993 32.7883 19.1993 32.7858C19.2069 32.6882 19.2196 32.5918 19.2361 32.4955C19.2386 32.4841 19.2412 32.4714 19.2424 32.46C19.2488 32.4245 19.2564 32.389 19.2652 32.3535C19.269 32.337 19.2728 32.3193 19.2779 32.3028C19.2855 32.2749 19.2931 32.247 19.3007 32.2191C19.3071 32.1975 19.3122 32.176 19.3198 32.1557C19.3261 32.1367 19.3324 32.1189 19.3375 32.0999C19.6152 31.2543 20.2732 30.5823 21.1087 30.2844C21.1125 30.2831 21.1176 30.2806 21.1214 30.2793C21.1531 30.2679 21.1848 30.2578 21.2164 30.2476C21.2329 30.2425 21.2494 30.2375 21.2659 30.2324C21.2913 30.2248 21.3166 30.2172 21.342 30.2108C21.3686 30.2032 21.3952 30.1969 21.4218 30.1918C21.4409 30.188 21.4586 30.1829 21.4776 30.1791C21.574 30.1589 21.6716 30.1436 21.7705 30.1322C21.7819 30.1322 21.7946 30.1297 21.806 30.1284C21.8326 30.1259 21.858 30.1233 21.8846 30.1221C21.8947 30.1221 21.9036 30.1221 21.9138 30.1221C21.9404 30.1208 21.9683 30.1196 21.9962 30.1196C22.0241 30.1196 22.0507 30.1183 22.0786 30.1183C22.1065 30.1183 22.1331 30.1183 22.161 30.1196C22.1889 30.1196 22.2155 30.1208 22.2434 30.1221C22.2535 30.1221 22.2624 30.1221 22.2726 30.1221C22.2992 30.1233 22.3245 30.1272 22.3512 30.1284C22.3626 30.1284 22.3753 30.131 22.3867 30.1322C22.4856 30.1424 22.5832 30.1589 22.6795 30.1791C22.6985 30.1829 22.7163 30.188 22.7353 30.1918C22.7619 30.1982 22.7886 30.2045 22.8152 30.2108C22.8405 30.2172 22.8659 30.2248 22.8913 30.2324C22.9077 30.2375 22.9242 30.2425 22.9407 30.2476C22.9724 30.2578 23.0041 30.2679 23.0358 30.2793C23.0396 30.2806 23.0447 30.2831 23.0485 30.2844C23.884 30.5823 24.542 31.2555 24.8196 32.0999C24.826 32.1189 24.8323 32.1379 24.8387 32.1557C24.845 32.1773 24.8513 32.1975 24.8564 32.2191C24.864 32.247 24.8716 32.2749 24.8792 32.304C24.883 32.3205 24.8868 32.3383 24.8919 32.3548C24.8995 32.3903 24.9071 32.4258 24.9147 32.4613C24.9173 32.4727 24.9198 32.4841 24.9211 32.4968C24.9376 32.5918 24.9502 32.6882 24.9578 32.7871C24.9578 32.7909 24.9578 32.7947 24.9578 32.7972C24.9616 32.8543 24.9642 32.9126 24.9655 32.9709C24.9655 32.9874 24.9655 33.0026 24.9655 33.0191C24.9655 33.0622 24.9654 33.1053 24.9629 33.1484C24.9629 33.17 24.9604 33.1902 24.9578 33.2118C24.9553 33.241 24.954 33.2714 24.9515 33.3006C24.9515 33.312 24.949 33.3247 24.9477 33.3361C24.9477 33.3437 24.9464 33.3513 24.9452 33.3589C24.9097 33.6556 24.8273 33.937 24.7081 34.1995C24.7081 34.2007 24.7081 34.202 24.7068 34.2033C24.2884 35.1148 24.329 36.1709 24.8247 37.042C25.3192 37.9104 26.2016 38.4898 27.1956 38.5925C27.6368 38.6382 28.0755 38.7865 28.4774 39.0489C29.6805 39.8337 30.1218 41.4021 29.5043 42.6978L29.4967 42.6927Z" fill="#FF3B00"/>
<path d="M7.76832 5.69332C5.79302 5.56527 4.21075 7.42519 4.82566 9.46641C5.1553 10.5606 6.13787 11.3276 7.27385 11.443C7.29414 11.4455 7.31569 11.4468 7.33598 11.448C8.33377 11.5292 9.24028 12.0617 9.75883 12.9187L9.78418 12.9606C9.78926 12.9682 9.79306 12.9758 9.79813 12.9834C10.7186 14.5352 9.61049 16.5232 7.80635 16.5549C7.79747 16.5549 7.7886 16.5549 7.77972 16.5549H7.66816C6.69446 16.5638 5.79302 16.082 5.22376 15.2909C5.21742 15.282 5.21235 15.2744 5.20601 15.2655C4.41107 14.1853 2.95052 13.7923 1.72579 14.3387C0.0180079 15.0994 -0.525892 17.2116 0.56445 18.6963C1.4063 19.8437 2.98983 20.1999 4.24372 19.528C4.65957 19.3048 4.99682 18.998 5.24785 18.6405C5.82218 17.8215 6.75784 17.3334 7.7569 17.3245C8.75976 17.3156 9.70177 17.7948 10.2938 18.6037C10.2938 18.6037 10.2951 18.6063 10.2964 18.6075C10.4663 18.8408 10.6742 19.0487 10.9151 19.225C10.9214 19.2288 10.9278 19.2338 10.9328 19.2376C10.943 19.2453 10.9519 19.2516 10.962 19.2592C10.9861 19.277 11.0114 19.2922 11.0368 19.3087C11.0546 19.3201 11.071 19.3315 11.0888 19.3429C11.1256 19.3657 11.1636 19.3872 11.2004 19.4088C11.2143 19.4164 11.227 19.4253 11.2409 19.4329C11.2916 19.4608 11.3436 19.4874 11.3956 19.5115C11.3994 19.5128 11.4019 19.5153 11.4045 19.5166C11.4932 19.5584 11.5845 19.5939 11.6758 19.6256C11.6872 19.6294 11.6986 19.6332 11.71 19.637C11.7443 19.6484 11.7785 19.6598 11.814 19.67C11.8305 19.6751 11.8482 19.6801 11.8647 19.6839C11.8926 19.6915 11.9205 19.6991 11.9496 19.7055C11.9712 19.7106 11.9928 19.7156 12.0143 19.7207C12.0333 19.7245 12.0523 19.7283 12.0726 19.7321C12.9462 19.9007 13.8539 19.6548 14.5221 19.0703C14.5259 19.0678 14.5284 19.0639 14.5322 19.0614C14.5576 19.0399 14.5817 19.0171 14.6058 18.9942C14.6185 18.9828 14.6311 18.9701 14.6438 18.9575C14.6628 18.9384 14.6818 18.9207 14.6996 18.9017C14.7186 18.8814 14.7376 18.8624 14.7554 18.8421C14.7681 18.8281 14.7807 18.8142 14.7934 18.8002C14.8581 18.7267 14.9189 18.6481 14.9772 18.567C14.9836 18.5568 14.9912 18.5467 14.9975 18.5365C15.0128 18.515 15.028 18.4934 15.0419 18.4719C15.047 18.463 15.0521 18.4554 15.0571 18.4465C15.0711 18.4237 15.0863 18.3996 15.1002 18.3768C15.1142 18.3527 15.1281 18.3299 15.1421 18.3058C15.156 18.2817 15.1674 18.2576 15.1801 18.2335C15.1928 18.2094 15.2055 18.1853 15.2169 18.16C15.2207 18.1511 15.2257 18.1422 15.2295 18.1334C15.241 18.1093 15.2511 18.0852 15.2612 18.0624C15.2663 18.0509 15.2714 18.0408 15.2765 18.0294C15.3158 17.9381 15.35 17.8443 15.3792 17.7505C15.3842 17.7327 15.3893 17.7137 15.3944 17.696C15.402 17.6693 15.4096 17.6427 15.4159 17.6173C15.4223 17.592 15.4286 17.5654 15.4349 17.54C15.4387 17.5235 15.4425 17.5058 15.4464 17.4893C15.4527 17.4563 15.459 17.4246 15.4654 17.3917C15.4654 17.3866 15.4666 17.3828 15.4679 17.3777C15.615 16.5029 15.3475 15.6015 14.7452 14.946C14.7313 14.9321 14.7186 14.9169 14.7047 14.9029C14.6895 14.8864 14.6742 14.8712 14.6578 14.856C14.6375 14.8357 14.6159 14.8154 14.5944 14.7951C14.5817 14.7837 14.569 14.7711 14.5563 14.7596C14.5297 14.7356 14.5018 14.7115 14.4739 14.6886C14.465 14.681 14.4562 14.6734 14.446 14.6658C14.3712 14.605 14.2926 14.5466 14.2102 14.4934C14.2077 14.4909 14.2039 14.4896 14.2013 14.4883C14.1532 14.4566 14.1037 14.4262 14.053 14.397C14.0391 14.3894 14.0251 14.3818 14.0112 14.3742C13.9731 14.3539 13.9351 14.3336 13.897 14.3134C13.878 14.3045 13.859 14.2956 13.84 14.2867C13.8134 14.2741 13.7867 14.2614 13.7589 14.2487C13.7474 14.2436 13.736 14.2398 13.7259 14.2348C13.7183 14.2322 13.7119 14.2284 13.7043 14.2259C13.428 14.113 13.1414 14.0471 12.8549 14.0243C12.8536 14.0243 12.8523 14.0243 12.8511 14.0243C11.852 13.9457 10.9493 13.3954 10.4295 12.5384C9.91223 11.6839 9.83616 10.6303 10.2305 9.71237C10.4054 9.30539 10.4891 8.84897 10.4561 8.371C10.3572 6.93834 9.20224 5.78841 7.76958 5.69586L7.76832 5.69332Z" fill="#FF3B00"/>
<path d="M43.6115 25.6871C44.7576 27.2998 44.007 29.6238 41.9481 30.174C40.8438 30.4682 39.6748 30.0346 38.9801 29.1293C38.9674 29.1128 38.9547 29.0964 38.9433 29.0799C38.3499 28.2735 37.4206 27.7829 36.419 27.7918H36.3696C36.3607 27.7918 36.3518 27.7918 36.3429 27.7918C34.5388 27.8234 33.4295 29.8114 34.3512 31.3633C34.3562 31.3709 34.36 31.3785 34.3651 31.3861L34.4222 31.4812C34.9268 32.3141 35.8105 32.8276 36.7829 32.8961C36.793 32.8961 36.8032 32.8973 36.8133 32.8986C38.1496 33.0076 39.2514 34.0447 39.4314 35.3734C39.6812 37.227 38.1699 38.7979 36.3341 38.6508C34.9154 38.5367 33.7806 37.3779 33.6932 35.9579C33.664 35.4875 33.7477 35.0387 33.9201 34.6381C34.3144 33.7202 34.2396 32.6666 33.7211 31.8121C33.2012 30.955 32.2998 30.4048 31.2995 30.3262C31.2982 30.3262 31.2969 30.3262 31.2957 30.3262C31.0079 30.3034 30.7213 30.2374 30.445 30.1233C30.4386 30.1208 30.431 30.1182 30.4247 30.1144C30.4133 30.1094 30.4019 30.1056 30.3917 30.1005C30.3638 30.0891 30.3372 30.0751 30.3106 30.0625C30.2915 30.0536 30.2725 30.0447 30.2535 30.0358C30.2142 30.0168 30.1762 29.9965 30.1394 29.975C30.1255 29.9674 30.1115 29.961 30.0976 29.9522C30.0469 29.923 29.9974 29.8926 29.9492 29.8609C29.9467 29.8583 29.9429 29.8571 29.9404 29.8558C29.858 29.8013 29.7806 29.7442 29.7045 29.6834C29.6957 29.6758 29.6868 29.6682 29.6766 29.6606C29.6488 29.6377 29.6209 29.6136 29.5942 29.5896C29.5816 29.5781 29.5689 29.5655 29.5562 29.5541C29.5346 29.5338 29.5144 29.5135 29.4941 29.4932C29.4789 29.478 29.4624 29.4615 29.4472 29.4463C29.4332 29.4323 29.4205 29.4171 29.4079 29.4032C28.8044 28.749 28.5381 27.8475 28.6852 26.9715C28.6852 26.9664 28.6865 26.9626 28.6877 26.9575C28.6928 26.9246 28.6991 26.8916 28.7068 26.8599C28.7106 26.8434 28.7144 26.8257 28.7182 26.8092C28.7245 26.7838 28.7296 26.7572 28.7372 26.7318C28.7435 26.7052 28.7511 26.6786 28.7587 26.6532C28.7638 26.6355 28.7689 26.6165 28.7739 26.5987C28.8031 26.5049 28.8373 26.4123 28.8766 26.3198C28.8817 26.3084 28.8868 26.2982 28.8919 26.2868C28.902 26.2627 28.9121 26.2387 28.9235 26.2158C28.9274 26.207 28.9324 26.1981 28.9362 26.1892C28.9476 26.1651 28.9603 26.141 28.973 26.1157C28.9857 26.0916 28.9984 26.0675 29.011 26.0434C29.0237 26.0193 29.0377 25.9965 29.0529 25.9724C29.0668 25.9483 29.0808 25.9255 29.096 25.9027C29.101 25.8938 29.1061 25.8862 29.1112 25.8773C29.1251 25.8558 29.1404 25.8342 29.1556 25.8127C29.1619 25.8025 29.1695 25.7924 29.1758 25.7822C29.2329 25.7011 29.295 25.6225 29.3597 25.549C29.3724 25.535 29.385 25.5211 29.3977 25.5071C29.4167 25.4868 29.4345 25.4665 29.4535 25.4475C29.4725 25.4285 29.4903 25.4095 29.5093 25.3917C29.522 25.3791 29.5346 25.3676 29.5473 25.355C29.5714 25.3321 29.5955 25.3093 29.6209 25.2878C29.6247 25.2852 29.6285 25.2814 29.631 25.2789C30.2992 24.6944 31.2057 24.4472 32.0792 24.6171C32.0982 24.6209 32.1185 24.6247 32.1375 24.6285C32.1591 24.6336 32.1806 24.6386 32.2022 24.6437C32.2301 24.6501 32.2592 24.6577 32.2871 24.6653C32.3036 24.6703 32.3201 24.6741 32.3378 24.6792C32.3721 24.6894 32.4076 24.7008 32.4418 24.7122C32.4532 24.716 32.4646 24.7198 32.476 24.7236C32.5673 24.7553 32.6573 24.7908 32.7474 24.8326C32.7512 24.8339 32.7537 24.8364 32.7575 24.8377C32.8095 24.8618 32.8615 24.8884 32.9122 24.9163C32.9261 24.9239 32.9401 24.9328 32.954 24.9404C32.9921 24.9619 33.0288 24.9835 33.0656 25.0063C33.0833 25.0177 33.1011 25.0291 33.1188 25.0405C33.1442 25.057 33.1683 25.0722 33.1936 25.09C33.2038 25.0963 33.2127 25.1039 33.2228 25.1116C33.2291 25.1166 33.2355 25.1204 33.2418 25.1255C33.4827 25.3005 33.6906 25.5097 33.8605 25.7429C33.8605 25.7429 33.8618 25.7455 33.8631 25.7467C34.4551 26.5556 35.3971 27.0349 36.4 27.026C37.3991 27.0171 38.3347 26.529 38.9091 25.71C39.1639 25.3474 39.5075 25.0355 39.9322 24.8123C41.2026 24.1442 42.7874 24.522 43.6191 25.6935L43.6115 25.6871Z" fill="#FF3B00"/>
<path d="M7.76832 38.6521C5.79302 38.7801 4.21075 36.9202 4.82566 34.879C5.1553 33.7848 6.13787 33.0178 7.27385 32.9024C7.29414 32.8999 7.31569 32.8986 7.33598 32.8973C8.33377 32.8162 9.24028 32.2837 9.75883 31.4267L9.78418 31.3848C9.78926 31.3772 9.79306 31.3696 9.79813 31.362C10.7186 29.8102 9.61049 27.8222 7.80635 27.7905C7.79747 27.7905 7.7886 27.7905 7.77972 27.7905H7.66816C6.69446 27.7816 5.79302 28.2634 5.22376 29.0545C5.21742 29.0634 5.21235 29.071 5.20601 29.0799C4.41107 30.1601 2.95052 30.5531 1.72579 30.0067C0.0180079 29.246 -0.525892 27.1338 0.56445 25.6491C1.4063 24.5017 2.98983 24.1454 4.24372 24.8174C4.65957 25.0405 4.99682 25.3474 5.24785 25.7049C5.82218 26.5239 6.75784 27.012 7.7569 27.0209C8.75976 27.0298 9.70177 26.5505 10.2938 25.7417C10.2938 25.7417 10.2951 25.7391 10.2964 25.7379C10.4663 25.5046 10.6742 25.2966 10.9151 25.1204C10.9214 25.1166 10.9278 25.1115 10.9328 25.1077C10.943 25.1001 10.9519 25.0938 10.962 25.0862C10.9861 25.0684 11.0114 25.0532 11.0368 25.0367C11.0546 25.0253 11.071 25.0139 11.0888 25.0025C11.1256 24.9797 11.1636 24.9581 11.2004 24.9366C11.2143 24.929 11.227 24.9201 11.2409 24.9125C11.2916 24.8846 11.3436 24.858 11.3956 24.8339C11.3994 24.8326 11.4019 24.8301 11.4045 24.8288C11.4932 24.787 11.5845 24.7515 11.6758 24.7198C11.6872 24.716 11.6986 24.7122 11.71 24.7084C11.7443 24.697 11.7785 24.6855 11.814 24.6754C11.8305 24.6703 11.8482 24.6653 11.8647 24.6615C11.8926 24.6539 11.9205 24.6462 11.9496 24.6399C11.9712 24.6348 11.9928 24.6298 12.0143 24.6247C12.0333 24.6209 12.0523 24.6171 12.0726 24.6133C12.9462 24.4447 13.8539 24.6906 14.5221 25.2751C14.5259 25.2776 14.5284 25.2814 14.5322 25.284C14.5576 25.3055 14.5817 25.3283 14.6058 25.3512C14.6185 25.3626 14.6311 25.3753 14.6438 25.3879C14.6628 25.4069 14.6818 25.4247 14.6996 25.4437C14.7186 25.464 14.7376 25.483 14.7554 25.5033C14.7681 25.5173 14.7807 25.5312 14.7934 25.5451C14.8581 25.6187 14.9189 25.6973 14.9772 25.7784C14.9836 25.7886 14.9912 25.7987 14.9975 25.8089C15.0128 25.8304 15.028 25.852 15.0419 25.8735C15.047 25.8824 15.0521 25.89 15.0571 25.8989C15.0711 25.9217 15.0863 25.9458 15.1002 25.9686C15.1142 25.9927 15.1281 26.0155 15.1421 26.0396C15.156 26.0637 15.1674 26.0878 15.1801 26.1119C15.1928 26.136 15.2055 26.1601 15.2169 26.1854C15.2207 26.1943 15.2257 26.2032 15.2295 26.212C15.241 26.2361 15.2511 26.2602 15.2612 26.283C15.2663 26.2944 15.2714 26.3046 15.2765 26.316C15.3158 26.4073 15.35 26.5011 15.3792 26.5949C15.3842 26.6127 15.3893 26.6317 15.3944 26.6494C15.402 26.6761 15.4096 26.7027 15.4159 26.728C15.4223 26.7534 15.4286 26.78 15.4349 26.8054C15.4387 26.8219 15.4425 26.8396 15.4464 26.8561C15.4527 26.8891 15.459 26.9207 15.4654 26.9537C15.4654 26.9588 15.4666 26.9626 15.4679 26.9677C15.615 27.8425 15.3475 28.7439 14.7452 29.3994C14.7313 29.4133 14.7186 29.4285 14.7047 29.4425C14.6895 29.459 14.6742 29.4742 14.6578 29.4894C14.6375 29.5097 14.6159 29.53 14.5944 29.5503C14.5817 29.5617 14.569 29.5743 14.5563 29.5857C14.5297 29.6098 14.5018 29.6339 14.4739 29.6568C14.465 29.6644 14.4562 29.672 14.446 29.6796C14.3712 29.7404 14.2926 29.7987 14.2102 29.852C14.2077 29.8545 14.2039 29.8558 14.2013 29.8571C14.1532 29.8888 14.1037 29.9192 14.053 29.9483C14.0391 29.956 14.0251 29.9636 14.0112 29.9712C13.9731 29.9915 13.9351 30.0117 13.897 30.032C13.878 30.0409 13.859 30.0498 13.84 30.0586C13.8134 30.0713 13.7867 30.084 13.7589 30.0967C13.7474 30.1018 13.736 30.1056 13.7259 30.1106C13.7183 30.1132 13.7119 30.117 13.7043 30.1195C13.428 30.2324 13.1414 30.2983 12.8549 30.3211C12.8536 30.3211 12.8523 30.3211 12.8511 30.3211C11.852 30.3997 10.9493 30.9499 10.4295 31.807C9.91223 32.6615 9.83616 33.7151 10.2305 34.633C10.4054 35.04 10.4891 35.4964 10.4561 35.9744C10.3572 37.4071 9.20224 38.557 7.76958 38.6495L7.76832 38.6521Z" fill="#FF3B00"/>
<path d="M43.6115 18.6582C44.7576 17.0456 44.007 14.7216 41.9481 14.1714C40.8438 13.8772 39.6748 14.3108 38.9801 15.2161C38.9674 15.2325 38.9547 15.249 38.9433 15.2655C38.3499 16.0719 37.4206 16.5625 36.419 16.5536H36.3696C36.3607 16.5536 36.3518 16.5536 36.3429 16.5536C34.5388 16.5219 33.4295 14.534 34.3512 12.9821C34.3562 12.9745 34.36 12.9669 34.3651 12.9593L34.4222 12.8642C34.9268 12.0312 35.8105 11.5178 36.7829 11.4493C36.793 11.4493 36.8032 11.448 36.8133 11.4468C38.1496 11.3377 39.2514 10.3006 39.4314 8.97195C39.6812 7.11837 38.1699 5.54752 36.3341 5.69459C34.9154 5.80869 33.7806 6.9675 33.6932 8.38748C33.664 8.85784 33.7477 9.30666 33.9201 9.7073C34.3144 10.6252 34.2396 11.6788 33.7211 12.5333C33.2012 13.3904 32.2998 13.9406 31.2995 14.0192C31.2982 14.0192 31.2969 14.0192 31.2957 14.0192C31.0079 14.042 30.7213 14.108 30.445 14.2221C30.4386 14.2246 30.431 14.2271 30.4247 14.2309C30.4133 14.236 30.4019 14.2398 30.3917 14.2449C30.3638 14.2563 30.3372 14.2703 30.3106 14.2829C30.2915 14.2918 30.2725 14.3007 30.2535 14.3096C30.2142 14.3286 30.1762 14.3489 30.1394 14.3704C30.1255 14.378 30.1115 14.3844 30.0976 14.3932C30.0469 14.4224 29.9974 14.4528 29.9492 14.4845C29.9467 14.487 29.9429 14.4883 29.9404 14.4896C29.858 14.5441 29.7806 14.6012 29.7045 14.662C29.6957 14.6696 29.6868 14.6772 29.6766 14.6848C29.6488 14.7077 29.6209 14.7317 29.5942 14.7558C29.5816 14.7672 29.5689 14.7799 29.5562 14.7913C29.5346 14.8116 29.5144 14.8319 29.4941 14.8522C29.4789 14.8674 29.4624 14.8839 29.4472 14.8991C29.4332 14.913 29.4205 14.9283 29.4079 14.9422C28.8044 15.5964 28.5381 16.4978 28.6852 17.3739C28.6852 17.379 28.6865 17.3828 28.6877 17.3879C28.6928 17.4208 28.6991 17.4538 28.7068 17.4855C28.7106 17.502 28.7144 17.5197 28.7182 17.5362C28.7245 17.5616 28.7296 17.5882 28.7372 17.6135C28.7435 17.6402 28.7511 17.6668 28.7587 17.6922C28.7638 17.7099 28.7689 17.7289 28.7739 17.7467C28.8031 17.8405 28.8373 17.933 28.8766 18.0256C28.8817 18.037 28.8868 18.0471 28.8919 18.0586C28.902 18.0826 28.9121 18.1067 28.9235 18.1296C28.9274 18.1384 28.9324 18.1473 28.9362 18.1562C28.9476 18.1803 28.9603 18.2044 28.973 18.2297C28.9857 18.2538 28.9984 18.2779 29.011 18.302C29.0237 18.3261 29.0377 18.3489 29.0529 18.373C29.0668 18.3971 29.0808 18.4199 29.096 18.4427C29.101 18.4516 29.1061 18.4592 29.1112 18.4681C29.1251 18.4896 29.1404 18.5112 29.1556 18.5327C29.1619 18.5429 29.1695 18.553 29.1758 18.5632C29.2329 18.6443 29.295 18.7229 29.3597 18.7964C29.3724 18.8104 29.385 18.8243 29.3977 18.8383C29.4167 18.8586 29.4345 18.8789 29.4535 18.8979C29.4725 18.9169 29.4903 18.9359 29.5093 18.9536C29.522 18.9663 29.5346 18.9777 29.5473 18.9904C29.5714 19.0132 29.5955 19.0361 29.6209 19.0576C29.6247 19.0602 29.6285 19.064 29.631 19.0665C30.2992 19.651 31.2057 19.8982 32.0792 19.7283C32.0982 19.7245 32.1185 19.7207 32.1375 19.7169C32.1591 19.7118 32.1806 19.7067 32.2022 19.7017C32.2301 19.6953 32.2592 19.6877 32.2871 19.6801C32.3036 19.675 32.3201 19.6712 32.3378 19.6662C32.3721 19.656 32.4076 19.6446 32.4418 19.6332C32.4532 19.6294 32.4646 19.6256 32.476 19.6218C32.5673 19.5901 32.6573 19.5546 32.7474 19.5128C32.7512 19.5115 32.7537 19.509 32.7575 19.5077C32.8095 19.4836 32.8615 19.457 32.9122 19.4291C32.9261 19.4215 32.9401 19.4126 32.954 19.405C32.9921 19.3835 33.0288 19.3619 33.0656 19.3391C33.0833 19.3277 33.1011 19.3163 33.1188 19.3048C33.1442 19.2884 33.1683 19.2731 33.1936 19.2554C33.2038 19.2491 33.2127 19.2414 33.2228 19.2338C33.2291 19.2288 33.2355 19.225 33.2418 19.2199C33.4827 19.0449 33.6906 18.8357 33.8605 18.6025C33.8605 18.6025 33.8618 18.5999 33.8631 18.5987C34.4551 17.7898 35.3971 17.3105 36.4 17.3194C37.3991 17.3283 38.3347 17.8164 38.9091 18.6354C39.1639 18.998 39.5075 19.3099 39.9322 19.5331C41.2026 20.2012 42.7874 19.8234 43.6191 18.6519L43.6115 18.6582Z" fill="#FF3B00"/>
<path d="M52.0159 11.902H72.4788V16.6577H64.9947V37.7102H59.4644V16.6577H52.0171V11.902H52.0159Z" fill="white"/>
<path d="M70.9663 28.2356C70.9663 22.4098 74.9118 18.5391 80.9582 18.5391C87.0045 18.5391 90.95 22.4098 90.95 28.2356C90.95 34.0613 87.0045 37.932 80.9582 37.932C74.9118 37.932 70.9663 34.0613 70.9663 28.2356ZM85.6771 28.2356C85.6771 25.0279 83.8704 22.7788 80.9582 22.7788C78.0459 22.7788 76.276 25.0279 76.276 28.2356C76.276 31.4432 78.0459 33.6923 80.9582 33.6923C83.8704 33.6923 85.6771 31.4432 85.6771 28.2356Z" fill="white"/>
<path d="M113.512 28.2723C113.512 34.1716 109.826 37.932 104.738 37.932C102.12 37.932 100.239 36.8632 99.0236 35.3139V45.0839H93.8254V18.7597H98.3605L98.8765 21.3778C100.094 19.755 102.011 18.5391 104.702 18.5391C109.827 18.5023 113.514 22.2995 113.514 28.2723H113.512ZM108.241 28.1988C108.241 24.9912 106.397 22.7788 103.559 22.7788C100.72 22.7788 98.95 24.9912 98.95 28.1988C98.95 31.4064 100.72 33.6923 103.559 33.6923C106.397 33.6923 108.241 31.4432 108.241 28.1988Z" fill="white"/>
<path d="M115.762 24.8073C115.762 16.8808 120.592 11.6814 128.408 11.6814C134.528 11.6814 138.843 15.5153 139.506 21.1205H133.902C133.239 18.245 131.174 16.3648 128.113 16.3648C123.91 16.3648 121.402 19.8311 121.402 24.8073C121.402 29.7836 123.872 33.2499 128.038 33.2499C131.172 33.2499 133.236 31.3697 133.901 28.4942H139.468C138.842 34.0981 134.38 37.9333 128.075 37.9333C120.406 37.9333 115.76 32.7351 115.76 24.8073H115.762Z" fill="white"/>
<path d="M141.461 28.2356C141.461 22.4098 145.406 18.5391 151.453 18.5391C157.499 18.5391 161.444 22.4098 161.444 28.2356C161.444 34.0613 157.499 37.932 151.453 37.932C145.406 37.932 141.461 34.0613 141.461 28.2356ZM156.171 28.2356C156.171 25.0279 154.365 22.7788 151.453 22.7788C148.54 22.7788 146.77 25.0279 146.77 28.2356C146.77 31.4432 148.54 33.6923 151.453 33.6923C154.365 33.6923 156.171 31.4432 156.171 28.2356Z" fill="white"/>
<path d="M193.999 26.8346V37.7114H188.8V27.13C188.8 24.2913 187.768 22.8168 185.519 22.8168C183.27 22.8168 181.759 24.4764 181.759 27.3519V37.7114H176.561V27.13C176.561 24.2913 175.529 22.8168 173.243 22.8168C170.957 22.8168 169.519 24.5499 169.519 27.3886V37.7114H164.321V18.761H168.856L169.335 21.1204C170.479 19.6459 172.137 18.5759 174.902 18.5391C177.225 18.5023 179.401 19.3505 180.58 21.7467C181.907 19.7195 184.12 18.5391 186.995 18.5391C190.903 18.5391 194 20.7515 194 26.8346H193.999Z" fill="white"/>
</svg>
