<svg width="162" height="38" viewBox="0 0 162 38" fill="none" xmlns="http://www.w3.org/2000/svg">
<path d="M24.5803 1.37622C23.8714 -0.112438 21.8756 -0.509697 20.6395 0.765538C19.977 1.44911 19.8175 2.47606 20.1947 3.34981C20.2021 3.36566 20.2084 3.38152 20.2158 3.39737C20.5624 4.15701 20.5423 5.03182 20.1292 5.75766L20.1091 5.79357C20.1059 5.79991 20.1017 5.80626 20.0985 5.8126C19.3431 7.11319 17.4466 7.11319 16.6912 5.8126C16.687 5.80626 16.6838 5.79991 16.6806 5.79357L16.6352 5.71329C16.2337 5.00753 16.2189 4.15595 16.5634 3.42061C16.5665 3.41321 16.5708 3.40476 16.5739 3.39737C17.0367 2.38098 16.7303 1.15751 15.8354 0.487669C14.5887 -0.446306 12.8306 0.0153979 12.1925 1.41108C11.7002 2.4898 12.0826 3.78617 13.081 4.42643C13.4117 4.63879 13.772 4.75924 14.1344 4.79621C14.9627 4.88179 15.6981 5.36463 16.1101 6.08835C16.5232 6.81419 16.557 7.69428 16.2084 8.45393C16.2084 8.45393 16.2084 8.45605 16.2073 8.4571C16.107 8.67581 16.0393 8.91141 16.0098 9.15759C16.0098 9.16393 16.0087 9.17026 16.0076 9.1766C16.0066 9.1861 16.0045 9.19667 16.0045 9.20618C16.0024 9.23154 16.0013 9.25583 15.9992 9.28013C15.9981 9.29704 15.996 9.31501 15.995 9.33192C15.9928 9.36784 15.9928 9.40375 15.9928 9.43967C15.9928 9.45341 15.9928 9.46608 15.9928 9.47876C15.9928 9.52736 15.995 9.57596 15.9992 9.62351C15.9992 9.62668 15.9992 9.62986 15.9992 9.63197C16.0055 9.71332 16.0161 9.79361 16.0298 9.87391C16.0319 9.88341 16.034 9.89398 16.0351 9.90349C16.0404 9.93307 16.0467 9.96267 16.0541 9.99225C16.0573 10.006 16.0605 10.0208 16.0647 10.0345C16.071 10.0577 16.0774 10.081 16.0837 10.1042C16.089 10.1222 16.0932 10.1402 16.0996 10.1571C16.1048 10.1729 16.1101 10.1877 16.1143 10.2036C16.3457 10.9083 16.8941 11.4682 17.5903 11.7165C17.5935 11.7176 17.5977 11.7197 17.6009 11.7207C17.6273 11.7302 17.6537 11.7387 17.6801 11.7471C17.6939 11.7514 17.7076 11.7556 17.7213 11.7598C17.7425 11.7662 17.7636 11.7725 17.7847 11.7778C17.8069 11.7841 17.8291 11.7894 17.8513 11.7936C17.8671 11.7968 17.8819 11.801 17.8978 11.8042C17.9781 11.8211 18.0594 11.8338 18.1418 11.8433C18.1513 11.8433 18.1619 11.8454 18.1714 11.8465C18.1936 11.8486 18.2147 11.8507 18.2369 11.8517C18.2454 11.8517 18.2528 11.8517 18.2612 11.8517C18.2834 11.8528 18.3066 11.8539 18.3299 11.8539C18.3531 11.8539 18.3753 11.8549 18.3986 11.8549C18.4218 11.8549 18.444 11.8549 18.4672 11.8539C18.4905 11.8539 18.5127 11.8528 18.5359 11.8517C18.5444 11.8517 18.5518 11.8517 18.5602 11.8517C18.5824 11.8507 18.6035 11.8475 18.6257 11.8465C18.6352 11.8465 18.6458 11.8443 18.6553 11.8433C18.7377 11.8348 18.8191 11.8211 18.8994 11.8042C18.9152 11.801 18.93 11.7968 18.9459 11.7936C18.968 11.7883 18.9902 11.7831 19.0124 11.7778C19.0335 11.7725 19.0547 11.7662 19.0758 11.7598C19.0895 11.7556 19.1033 11.7514 19.117 11.7471C19.1434 11.7387 19.1698 11.7302 19.1963 11.7207C19.1994 11.7197 19.2037 11.7176 19.2068 11.7165C19.9031 11.4682 20.4514 10.9072 20.6828 10.2036C20.6881 10.1877 20.6934 10.1719 20.6986 10.1571C20.7039 10.1391 20.7092 10.1222 20.7134 10.1042C20.7198 10.081 20.7261 10.0577 20.7325 10.0334C20.7356 10.0197 20.7388 10.0049 20.743 9.99119C20.7494 9.96161 20.7557 9.93202 20.762 9.90243C20.7641 9.89293 20.7663 9.88343 20.7673 9.87286C20.781 9.79362 20.7916 9.71332 20.798 9.63091C20.798 9.62774 20.798 9.62458 20.798 9.62246C20.8011 9.57492 20.8032 9.52631 20.8043 9.47771C20.8043 9.46397 20.8043 9.4513 20.8043 9.43757C20.8043 9.40165 20.8043 9.36572 20.8022 9.3298C20.8022 9.31184 20.8001 9.29494 20.798 9.27697C20.7958 9.25267 20.7948 9.22731 20.7927 9.20301C20.7927 9.1935 20.7906 9.18295 20.7895 9.17344C20.7895 9.1671 20.7884 9.16075 20.7874 9.15441C20.7578 8.90718 20.6891 8.67263 20.5898 8.45393C20.5898 8.45287 20.5898 8.45181 20.5888 8.45076C20.2401 7.69111 20.2739 6.81102 20.687 6.08518C21.0991 5.36145 21.8344 4.87862 22.6627 4.79304C23.0304 4.75501 23.396 4.63139 23.7309 4.41269C24.7335 3.7587 25.1012 2.45176 24.5867 1.37199L24.5803 1.37622Z" fill="#FF3B00"/>
<path d="M24.5803 35.5773C23.8714 37.066 21.8756 37.4632 20.6395 36.188C19.977 35.5044 19.8175 34.4775 20.1947 33.6037C20.2021 33.5879 20.2084 33.572 20.2158 33.5562C20.5624 32.7965 20.5423 31.9217 20.1292 31.1959L20.1091 31.16C20.1059 31.1536 20.1017 31.1473 20.0985 31.1409C19.3431 29.8403 17.4466 29.8403 16.6912 31.1409C16.687 31.1473 16.6838 31.1536 16.6806 31.16L16.6352 31.2403C16.2337 31.946 16.2189 32.7976 16.5634 33.5329C16.5665 33.5403 16.5708 33.5488 16.5739 33.5562C17.0367 34.5726 16.7303 35.796 15.8354 36.4659C14.5887 37.3998 12.8306 36.9381 12.1925 35.5425C11.7002 34.4637 12.0826 33.1674 13.081 32.5271C13.4117 32.3147 13.772 32.1943 14.1344 32.1573C14.9627 32.0717 15.6981 31.5889 16.1101 30.8652C16.5232 30.1393 16.557 29.2593 16.2084 28.4996C16.2084 28.4996 16.2084 28.4975 16.2073 28.4964C16.107 28.2777 16.0393 28.0421 16.0098 27.796C16.0098 27.7896 16.0087 27.7833 16.0076 27.7769C16.0066 27.7674 16.0045 27.7569 16.0045 27.7474C16.0024 27.722 16.0013 27.6977 15.9992 27.6734C15.9981 27.6565 15.996 27.6385 15.995 27.6216C15.9928 27.5857 15.9928 27.5498 15.9928 27.5139C15.9928 27.5001 15.9928 27.4875 15.9928 27.4748C15.9928 27.4262 15.995 27.3776 15.9992 27.33C15.9992 27.3269 15.9992 27.3237 15.9992 27.3216C16.0055 27.2402 16.0161 27.1599 16.0298 27.0796C16.0319 27.0701 16.034 27.0596 16.0351 27.05C16.0404 27.0205 16.0467 26.9909 16.0541 26.9613C16.0573 26.9476 16.0605 26.9328 16.0647 26.919C16.071 26.8958 16.0774 26.8725 16.0837 26.8493C16.089 26.8313 16.0932 26.8134 16.0996 26.7965C16.1048 26.7806 16.1101 26.7658 16.1143 26.75C16.3457 26.0453 16.8941 25.4853 17.5903 25.237C17.5935 25.236 17.5977 25.2339 17.6009 25.2328C17.6273 25.2233 17.6537 25.2149 17.6801 25.2064C17.6939 25.2022 17.7076 25.1979 17.7213 25.1937C17.7425 25.1874 17.7636 25.181 17.7847 25.1758C17.8069 25.1694 17.8291 25.1641 17.8513 25.1599C17.8671 25.1567 17.8819 25.1525 17.8978 25.1493C17.9781 25.1324 18.0594 25.1198 18.1418 25.1103C18.1513 25.1103 18.1619 25.1081 18.1714 25.1071C18.1936 25.105 18.2147 25.1028 18.2369 25.1018C18.2454 25.1018 18.2528 25.1018 18.2612 25.1018C18.2834 25.1007 18.3066 25.0997 18.3299 25.0997C18.3531 25.0997 18.3753 25.0986 18.3986 25.0986C18.4218 25.0986 18.444 25.0986 18.4672 25.0997C18.4905 25.0997 18.5127 25.1007 18.5359 25.1018C18.5444 25.1018 18.5518 25.1018 18.5602 25.1018C18.5824 25.1028 18.6035 25.106 18.6257 25.1071C18.6352 25.1071 18.6458 25.1092 18.6553 25.1103C18.7377 25.1187 18.8191 25.1324 18.8994 25.1493C18.9152 25.1525 18.93 25.1567 18.9459 25.1599C18.968 25.1652 18.9902 25.1705 19.0124 25.1758C19.0335 25.181 19.0547 25.1874 19.0758 25.1937C19.0895 25.1979 19.1033 25.2022 19.117 25.2064C19.1434 25.2149 19.1698 25.2233 19.1963 25.2328C19.1994 25.2339 19.2037 25.236 19.2068 25.237C19.9031 25.4853 20.4514 26.0463 20.6828 26.75C20.6881 26.7658 20.6934 26.7817 20.6986 26.7965C20.7039 26.8144 20.7092 26.8313 20.7134 26.8493C20.7198 26.8725 20.7261 26.8958 20.7325 26.9201C20.7356 26.9338 20.7388 26.9486 20.743 26.9624C20.7494 26.9919 20.7557 27.0215 20.762 27.0511C20.7641 27.0606 20.7663 27.0701 20.7673 27.0807C20.781 27.1599 20.7916 27.2402 20.798 27.3226C20.798 27.3258 20.798 27.329 20.798 27.3311C20.8011 27.3786 20.8032 27.4272 20.8043 27.4758C20.8043 27.4896 20.8043 27.5022 20.8043 27.516C20.8043 27.5519 20.8043 27.5878 20.8022 27.6237C20.8022 27.6417 20.8001 27.6586 20.798 27.6766C20.7958 27.7009 20.7948 27.7262 20.7927 27.7505C20.7927 27.76 20.7906 27.7706 20.7895 27.7801C20.7895 27.7865 20.7884 27.7928 20.7874 27.7991C20.7578 28.0464 20.6891 28.2809 20.5898 28.4996C20.5898 28.5007 20.5898 28.5017 20.5888 28.5028C20.2401 29.2624 20.2739 30.1425 20.687 30.8684C21.0991 31.5921 21.8344 32.0749 22.6627 32.1605C23.0304 32.1985 23.396 32.3221 23.7309 32.5408C24.7335 33.1948 25.1012 34.5018 24.5867 35.5816L24.5803 35.5773Z" fill="#FF3B00"/>
<path d="M6.4736 4.74446C4.82752 4.63775 3.50896 6.18769 4.02138 7.88871C4.29608 8.8005 5.11489 9.43969 6.06155 9.53584C6.07845 9.53795 6.09641 9.53901 6.11331 9.54007C6.94481 9.60769 7.70023 10.0514 8.13235 10.7656L8.15349 10.8005C8.15771 10.8068 8.16088 10.8132 8.16511 10.8195C8.93215 12.1127 8.00874 13.7694 6.50529 13.7958C6.4979 13.7958 6.4905 13.7958 6.4831 13.7958H6.39013C5.57872 13.8032 4.82752 13.4017 4.35313 12.7424C4.34785 12.735 4.34362 12.7287 4.33834 12.7213C3.67589 11.8211 2.45877 11.4936 1.43816 11.949C0.0150066 12.5829 -0.438243 14.3431 0.470375 15.5803C1.17191 16.5364 2.49152 16.8333 3.53644 16.2734C3.88298 16.0874 4.16401 15.8317 4.37321 15.5338C4.85182 14.8513 5.63154 14.4445 6.46408 14.4371C7.2998 14.4297 8.08481 14.8291 8.57821 15.5031C8.57821 15.5031 8.57927 15.5053 8.58032 15.5063C8.7219 15.7007 8.89517 15.874 9.09591 16.0208C9.10119 16.024 9.10648 16.0282 9.1107 16.0314C9.11916 16.0377 9.12655 16.043 9.135 16.0494C9.15508 16.0642 9.1762 16.0768 9.19733 16.0906C9.21213 16.1001 9.22586 16.1096 9.24066 16.1191C9.2713 16.1381 9.30299 16.1561 9.33363 16.174C9.34525 16.1804 9.35582 16.1878 9.36744 16.1941C9.4097 16.2174 9.45302 16.2395 9.49634 16.2596C9.49951 16.2607 9.50162 16.2628 9.50373 16.2638C9.57769 16.2987 9.65376 16.3283 9.72983 16.3547C9.73934 16.3579 9.74885 16.361 9.75835 16.3642C9.78688 16.3737 9.81541 16.3832 9.84499 16.3917C9.85872 16.3959 9.87352 16.4001 9.88725 16.4033C9.9105 16.4096 9.93374 16.416 9.95804 16.4213C9.976 16.4255 9.99396 16.4297 10.0119 16.4339C10.0278 16.4371 10.0436 16.4403 10.0605 16.4435C10.7885 16.584 11.545 16.379 12.1017 15.8919C12.1049 15.8898 12.107 15.8867 12.1102 15.8845C12.1313 15.8666 12.1514 15.8476 12.1715 15.8286C12.182 15.819 12.1926 15.8085 12.2032 15.7979C12.219 15.7821 12.2349 15.7673 12.2497 15.7514C12.2655 15.7345 12.2814 15.7187 12.2961 15.7018C12.3067 15.6901 12.3173 15.6785 12.3278 15.6669C12.3817 15.6056 12.4324 15.5401 12.481 15.4725C12.4863 15.4641 12.4927 15.4556 12.4979 15.4471C12.5106 15.4292 12.5233 15.4112 12.5349 15.3933C12.5392 15.3859 12.5434 15.3795 12.5476 15.3721C12.5592 15.3531 12.5719 15.333 12.5835 15.314C12.5951 15.294 12.6068 15.2749 12.6184 15.2549C12.63 15.2348 12.6395 15.2147 12.6501 15.1946C12.6607 15.1746 12.6712 15.1545 12.6807 15.1333C12.6839 15.126 12.6881 15.1186 12.6913 15.1112C12.7008 15.0911 12.7093 15.071 12.7177 15.052C12.7219 15.0425 12.7262 15.034 12.7304 15.0245C12.7631 14.9485 12.7917 14.8703 12.816 14.7921C12.8202 14.7773 12.8244 14.7615 12.8286 14.7467C12.835 14.7245 12.8413 14.7023 12.8466 14.6811C12.8519 14.66 12.8572 14.6378 12.8624 14.6167C12.8656 14.603 12.8688 14.5882 12.872 14.5745C12.8772 14.547 12.8825 14.5206 12.8878 14.4931C12.8878 14.4889 12.8889 14.4857 12.8899 14.4815C13.0125 13.7525 12.7895 13.0013 12.2877 12.455C12.2761 12.4434 12.2655 12.4307 12.2539 12.4191C12.2412 12.4054 12.2285 12.3927 12.2148 12.38C12.1979 12.3631 12.1799 12.3462 12.162 12.3293C12.1514 12.3198 12.1408 12.3092 12.1303 12.2997C12.1081 12.2797 12.0848 12.2596 12.0616 12.2406C12.0542 12.2342 12.0468 12.2279 12.0384 12.2216C11.976 12.1708 11.9105 12.1222 11.8418 12.0779C11.8397 12.0758 11.8366 12.0747 11.8344 12.0736C11.7943 12.0472 11.7531 12.0219 11.7108 11.9976C11.6992 11.9912 11.6876 11.9849 11.676 11.9785C11.6443 11.9616 11.6126 11.9447 11.5809 11.9278C11.565 11.9204 11.5492 11.913 11.5333 11.9056C11.5111 11.8951 11.489 11.8845 11.4657 11.8739C11.4562 11.8697 11.4467 11.8666 11.4382 11.8623C11.4319 11.8602 11.4266 11.857 11.4203 11.8549C11.19 11.7609 10.9512 11.706 10.7124 11.6869C10.7113 11.6869 10.7103 11.6869 10.7092 11.6869C9.87669 11.6214 9.12444 11.1629 8.69126 10.4487C8.26019 9.73658 8.1968 8.8586 8.52538 8.09367C8.67118 7.75452 8.74092 7.37417 8.71345 6.97586C8.63104 5.78198 7.66854 4.82371 6.47465 4.74658L6.4736 4.74446Z" fill="#FF3B00"/>
<path d="M36.3427 21.4059C37.2978 22.7498 36.6724 24.6864 34.9566 25.1449C34.0363 25.3901 33.0622 25.0287 32.4832 24.2744C32.4727 24.2606 32.4621 24.2469 32.4526 24.2332C31.9581 23.5612 31.1837 23.1523 30.349 23.1597H30.3078C30.3004 23.1597 30.293 23.1597 30.2856 23.1597C28.7822 23.1861 27.8577 24.8428 28.6258 26.136C28.63 26.1423 28.6332 26.1487 28.6374 26.155L28.685 26.2342C29.1055 26.9284 29.8419 27.3563 30.6522 27.4133C30.6607 27.4133 30.6691 27.4144 30.6776 27.4154C31.7912 27.5063 32.7093 28.3705 32.8593 29.4778C33.0675 31.0224 31.8081 32.3315 30.2782 32.2089C29.096 32.1138 28.1504 31.1482 28.0775 29.9648C28.0532 29.5729 28.1229 29.1989 28.2666 28.865C28.5952 28.1001 28.5328 27.2221 28.1007 26.51C27.6675 25.7958 26.9163 25.3372 26.0827 25.2717C26.0817 25.2717 26.0806 25.2717 26.0796 25.2717C25.8397 25.2527 25.601 25.1978 25.3706 25.1027C25.3654 25.1006 25.359 25.0985 25.3537 25.0953C25.3442 25.0911 25.3347 25.0879 25.3263 25.0837C25.303 25.0742 25.2808 25.0625 25.2586 25.052C25.2428 25.0446 25.2269 25.0372 25.2111 25.0298C25.1783 25.0139 25.1467 24.997 25.116 24.9791C25.1044 24.9727 25.0928 24.9674 25.0811 24.9601C25.0389 24.9358 24.9977 24.9104 24.9575 24.884C24.9554 24.8819 24.9523 24.8808 24.9501 24.8798C24.8815 24.8343 24.817 24.7868 24.7536 24.7361C24.7462 24.7297 24.7388 24.7234 24.7304 24.7171C24.7071 24.698 24.6839 24.678 24.6617 24.6579C24.6511 24.6484 24.6406 24.6378 24.63 24.6283C24.612 24.6114 24.5951 24.5945 24.5782 24.5776C24.5656 24.5649 24.5518 24.5512 24.5391 24.5385C24.5275 24.5269 24.517 24.5142 24.5064 24.5026C24.0035 23.9574 23.7816 23.2062 23.9042 22.4761C23.9042 22.4719 23.9052 22.4687 23.9063 22.4645C23.9105 22.4371 23.9158 22.4096 23.9221 22.3832C23.9253 22.3694 23.9285 22.3546 23.9316 22.3409C23.9369 22.3198 23.9411 22.2976 23.9475 22.2765C23.9528 22.2543 23.9591 22.2321 23.9654 22.211C23.9697 22.1962 23.9739 22.1803 23.9781 22.1655C24.0024 22.0873 24.031 22.0102 24.0637 21.9331C24.0679 21.9236 24.0722 21.9151 24.0764 21.9056C24.0848 21.8855 24.0933 21.8655 24.1028 21.8465C24.106 21.8391 24.1102 21.8317 24.1134 21.8243C24.1229 21.8042 24.1334 21.7841 24.144 21.763C24.1546 21.7429 24.1651 21.7228 24.1757 21.7028C24.1863 21.6827 24.1979 21.6637 24.2106 21.6436C24.2222 21.6235 24.2338 21.6045 24.2465 21.5855C24.2507 21.5781 24.2549 21.5718 24.2592 21.5644C24.2708 21.5464 24.2835 21.5284 24.2961 21.5105C24.3014 21.502 24.3078 21.4936 24.313 21.4851C24.3606 21.4175 24.4124 21.352 24.4662 21.2907C24.4768 21.2791 24.4874 21.2675 24.4979 21.2559C24.5138 21.239 24.5286 21.222 24.5444 21.2062C24.5603 21.1903 24.5751 21.1745 24.5909 21.1597C24.6015 21.1491 24.612 21.1396 24.6226 21.1291C24.6427 21.11 24.6628 21.091 24.6839 21.0731C24.6871 21.071 24.6902 21.0678 24.6923 21.0657C25.2491 20.5786 26.0046 20.3726 26.7325 20.5142C26.7484 20.5173 26.7653 20.5205 26.7811 20.5237C26.7991 20.5279 26.817 20.5321 26.835 20.5363C26.8582 20.5416 26.8825 20.548 26.9058 20.5543C26.9195 20.5585 26.9332 20.5617 26.948 20.5659C26.9766 20.5744 27.0061 20.5839 27.0347 20.5934C27.0442 20.5966 27.0537 20.5997 27.0632 20.6029C27.1393 20.6293 27.2143 20.6589 27.2893 20.6938C27.2925 20.6948 27.2946 20.6969 27.2977 20.698C27.3411 20.7181 27.3844 20.7403 27.4267 20.7635C27.4383 20.7698 27.4499 20.7772 27.4615 20.7836C27.4932 20.8015 27.5238 20.8195 27.5545 20.8385C27.5693 20.848 27.5841 20.8575 27.5989 20.867C27.62 20.8808 27.6401 20.8935 27.6612 20.9083C27.6696 20.9135 27.6771 20.9199 27.6855 20.9262C27.6908 20.9304 27.6961 20.9336 27.7013 20.9378C27.9021 21.0836 28.0754 21.258 28.2169 21.4524C28.2169 21.4524 28.218 21.4545 28.2191 21.4555C28.7125 22.1296 29.4975 22.529 30.3332 22.5216C31.1657 22.5142 31.9454 22.1074 32.4241 21.4249C32.6364 21.1227 32.9227 20.8628 33.2767 20.6769C34.3353 20.1201 35.656 20.4349 36.3491 21.4112L36.3427 21.4059Z" fill="#FF3B00"/>
<path d="M6.4736 32.2101C4.82752 32.3168 3.50896 30.7668 4.02138 29.0658C4.29608 28.154 5.11489 27.5148 6.06155 27.4187C6.07845 27.4166 6.09641 27.4155 6.11331 27.4145C6.94481 27.3468 7.70023 26.9031 8.13235 26.1889L8.15349 26.154C8.15771 26.1477 8.16088 26.1413 8.16511 26.135C8.93215 24.8418 8.00874 23.1852 6.50529 23.1588C6.4979 23.1588 6.4905 23.1588 6.4831 23.1588H6.39013C5.57872 23.1514 4.82752 23.5528 4.35313 24.2121C4.34785 24.2195 4.34362 24.2259 4.33834 24.2332C3.67589 25.1334 2.45877 25.4609 1.43816 25.0056C0.0150066 24.3717 -0.438243 22.6115 0.470375 21.3743C1.17191 20.4181 2.49152 20.1212 3.53644 20.6812C3.88298 20.8671 4.16401 21.1228 4.37321 21.4208C4.85182 22.1033 5.63154 22.51 6.46408 22.5174C7.2998 22.5248 8.08481 22.1255 8.57821 21.4514C8.57821 21.4514 8.57927 21.4493 8.58032 21.4482C8.7219 21.2538 8.89517 21.0806 9.09591 20.9337C9.10119 20.9305 9.10648 20.9263 9.1107 20.9231C9.11916 20.9168 9.12655 20.9115 9.135 20.9052C9.15508 20.8904 9.1762 20.8777 9.19733 20.864C9.21213 20.8545 9.22586 20.8449 9.24066 20.8354C9.2713 20.8164 9.30299 20.7985 9.33363 20.7805C9.34525 20.7742 9.35582 20.7668 9.36744 20.7604C9.4097 20.7372 9.45302 20.715 9.49634 20.6949C9.49951 20.6939 9.50162 20.6917 9.50373 20.6907C9.57769 20.6558 9.65376 20.6262 9.72983 20.5998C9.73934 20.5967 9.74885 20.5935 9.75835 20.5903C9.78688 20.5808 9.81541 20.5713 9.84499 20.5629C9.85872 20.5586 9.87352 20.5544 9.88725 20.5512C9.9105 20.5449 9.93374 20.5386 9.95804 20.5333C9.976 20.529 9.99396 20.5248 10.0119 20.5206C10.0278 20.5174 10.0436 20.5143 10.0605 20.5111C10.7885 20.3706 11.545 20.5755 12.1017 21.0626C12.1049 21.0647 12.107 21.0679 12.1102 21.07C12.1313 21.088 12.1514 21.107 12.1715 21.126C12.182 21.1355 12.1926 21.1461 12.2032 21.1566C12.219 21.1725 12.2349 21.1873 12.2497 21.2031C12.2655 21.22 12.2814 21.2359 12.2961 21.2528C12.3067 21.2644 12.3173 21.276 12.3278 21.2876C12.3817 21.3489 12.4324 21.4144 12.481 21.482C12.4863 21.4905 12.4927 21.4989 12.4979 21.5074C12.5106 21.5254 12.5233 21.5433 12.5349 21.5613C12.5392 21.5687 12.5434 21.575 12.5476 21.5824C12.5592 21.6014 12.5719 21.6215 12.5835 21.6405C12.5951 21.6606 12.6068 21.6796 12.6184 21.6997C12.63 21.7198 12.6395 21.7398 12.6501 21.7599C12.6607 21.78 12.6712 21.8001 12.6807 21.8212C12.6839 21.8286 12.6881 21.836 12.6913 21.8434C12.7008 21.8634 12.7093 21.8835 12.7177 21.9025C12.7219 21.9121 12.7262 21.9205 12.7304 21.93C12.7631 22.0061 12.7917 22.0843 12.816 22.1624C12.8202 22.1772 12.8244 22.1931 12.8286 22.2079C12.835 22.2301 12.8413 22.2523 12.8466 22.2734C12.8519 22.2945 12.8572 22.3167 12.8624 22.3378C12.8656 22.3516 12.8688 22.3664 12.872 22.3801C12.8772 22.4076 12.8825 22.434 12.8878 22.4614C12.8878 22.4657 12.8889 22.4688 12.8899 22.4731C13.0125 23.2021 12.7895 23.9533 12.2877 24.4995C12.2761 24.5111 12.2655 24.5238 12.2539 24.5354C12.2412 24.5491 12.2285 24.5618 12.2148 24.5745C12.1979 24.5914 12.1799 24.6083 12.162 24.6252C12.1514 24.6347 12.1408 24.6453 12.1303 24.6548C12.1081 24.6749 12.0848 24.695 12.0616 24.714C12.0542 24.7203 12.0468 24.7266 12.0384 24.733C11.976 24.7837 11.9105 24.8323 11.8418 24.8767C11.8397 24.8788 11.8366 24.8798 11.8344 24.8809C11.7943 24.9073 11.7531 24.9327 11.7108 24.957C11.6992 24.9633 11.6876 24.9697 11.676 24.976C11.6443 24.9929 11.6126 25.0098 11.5809 25.0267C11.565 25.0341 11.5492 25.0415 11.5333 25.0489C11.5111 25.0595 11.489 25.07 11.4657 25.0806C11.4562 25.0848 11.4467 25.088 11.4382 25.0922C11.4319 25.0943 11.4266 25.0975 11.4203 25.0996C11.19 25.1936 10.9512 25.2486 10.7124 25.2676C10.7113 25.2676 10.7103 25.2676 10.7092 25.2676C9.87669 25.3331 9.12444 25.7916 8.69126 26.5059C8.26019 27.218 8.1968 28.0959 8.52538 28.8609C8.67118 29.2 8.74092 29.5804 8.71345 29.9787C8.63104 31.1726 7.66854 32.1308 6.47465 32.208L6.4736 32.2101Z" fill="#FF3B00"/>
<path d="M36.3427 15.5486C37.2978 14.2047 36.6724 12.268 34.9566 11.8095C34.0363 11.5644 33.0622 11.9257 32.4832 12.6801C32.4727 12.6938 32.4621 12.7075 32.4526 12.7213C31.9581 13.3932 31.1837 13.8021 30.349 13.7947H30.3078C30.3004 13.7947 30.293 13.7947 30.2856 13.7947C28.7822 13.7683 27.8577 12.1117 28.6258 10.8185C28.63 10.8121 28.6332 10.8058 28.6374 10.7994L28.685 10.7202C29.1055 10.0261 29.8419 9.59817 30.6522 9.54112C30.6607 9.54112 30.6691 9.54006 30.6776 9.539C31.7912 9.44814 32.7093 8.5839 32.8593 7.47665C33.0675 5.932 31.8081 4.62296 30.2782 4.74551C29.096 4.8406 28.1504 5.80627 28.0775 6.98959C28.0532 7.38156 28.1229 7.75558 28.2666 8.08944C28.5952 8.85437 28.5328 9.73234 28.1007 10.4444C27.6675 11.1587 26.9163 11.6172 26.0827 11.6827C26.0817 11.6827 26.0806 11.6827 26.0796 11.6827C25.8397 11.7017 25.601 11.7567 25.3706 11.8518C25.3654 11.8539 25.359 11.856 25.3537 11.8591C25.3442 11.8634 25.3347 11.8665 25.3263 11.8708C25.303 11.8803 25.2808 11.8919 25.2586 11.9025C25.2428 11.9099 25.2269 11.9173 25.2111 11.9247C25.1783 11.9405 25.1467 11.9574 25.116 11.9754C25.1044 11.9817 25.0928 11.987 25.0811 11.9944C25.0389 12.0187 24.9977 12.044 24.9575 12.0705C24.9554 12.0726 24.9523 12.0736 24.9501 12.0747C24.8815 12.1201 24.817 12.1677 24.7536 12.2184C24.7462 12.2247 24.7388 12.2311 24.7304 12.2374C24.7071 12.2564 24.6839 12.2765 24.6617 12.2966C24.6511 12.3061 24.6406 12.3166 24.63 12.3261C24.612 12.343 24.5951 12.3599 24.5782 12.3769C24.5656 12.3895 24.5518 12.4033 24.5391 12.4159C24.5275 12.4276 24.517 12.4402 24.5064 12.4519C24.0035 12.997 23.7816 13.7482 23.9042 14.4783C23.9042 14.4825 23.9052 14.4857 23.9063 14.4899C23.9105 14.5174 23.9158 14.5449 23.9221 14.5713C23.9253 14.585 23.9285 14.5998 23.9316 14.6135C23.9369 14.6347 23.9411 14.6569 23.9475 14.678C23.9528 14.7002 23.9591 14.7224 23.9654 14.7435C23.9697 14.7583 23.9739 14.7741 23.9781 14.7889C24.0024 14.8671 24.031 14.9442 24.0637 15.0214C24.0679 15.0309 24.0722 15.0393 24.0764 15.0488C24.0848 15.0689 24.0933 15.089 24.1028 15.108C24.106 15.1154 24.1102 15.1228 24.1134 15.1302C24.1229 15.1502 24.1334 15.1703 24.144 15.1915C24.1546 15.2115 24.1651 15.2316 24.1757 15.2517C24.1863 15.2717 24.1979 15.2908 24.2106 15.3108C24.2222 15.3309 24.2338 15.3499 24.2465 15.3689C24.2507 15.3763 24.2549 15.3827 24.2592 15.3901C24.2708 15.408 24.2835 15.426 24.2961 15.444C24.3014 15.4524 24.3078 15.4609 24.313 15.4693C24.3606 15.5369 24.4124 15.6024 24.4662 15.6637C24.4768 15.6753 24.4874 15.687 24.4979 15.6986C24.5138 15.7155 24.5286 15.7324 24.5444 15.7483C24.5603 15.7641 24.5751 15.7799 24.5909 15.7947C24.6015 15.8053 24.612 15.8148 24.6226 15.8254C24.6427 15.8444 24.6628 15.8634 24.6839 15.8814C24.6871 15.8835 24.6902 15.8867 24.6923 15.8888C25.2491 16.3758 26.0046 16.5818 26.7325 16.4403C26.7484 16.4371 26.7653 16.4339 26.7811 16.4308C26.7991 16.4265 26.817 16.4223 26.835 16.4181C26.8582 16.4128 26.8825 16.4065 26.9058 16.4001C26.9195 16.3959 26.9332 16.3927 26.948 16.3885C26.9766 16.3801 27.0061 16.3705 27.0347 16.361C27.0442 16.3579 27.0537 16.3547 27.0632 16.3515C27.1393 16.3251 27.2143 16.2955 27.2893 16.2607C27.2925 16.2596 27.2946 16.2575 27.2977 16.2564C27.3411 16.2364 27.3844 16.2142 27.4267 16.1909C27.4383 16.1846 27.4499 16.1772 27.4615 16.1709C27.4932 16.1529 27.5238 16.1349 27.5545 16.1159C27.5693 16.1064 27.5841 16.0969 27.5989 16.0874C27.62 16.0737 27.6401 16.061 27.6612 16.0462C27.6696 16.0409 27.6771 16.0346 27.6855 16.0282C27.6908 16.024 27.6961 16.0208 27.7013 16.0166C27.9021 15.8708 28.0754 15.6965 28.2169 15.5021C28.2169 15.5021 28.218 15.5 28.2191 15.4989C28.7125 14.8248 29.4975 14.4255 30.3332 14.4329C31.1657 14.4403 31.9454 14.847 32.4241 15.5295C32.6364 15.8317 32.9227 16.0916 33.2767 16.2776C34.3353 16.8344 35.656 16.5195 36.3491 15.5433L36.3427 15.5486Z" fill="#FF3B00"/>
<path d="M43.3467 9.91835H60.3991V13.8814H54.1624V31.4251H49.5538V13.8814H43.3477V9.91835H43.3467Z" fill="white"/>
<path d="M59.1387 23.5296C59.1387 18.6749 62.4266 15.4493 67.4652 15.4493C72.5038 15.4493 75.7917 18.6749 75.7917 23.5296C75.7917 28.3844 72.5038 31.61 67.4652 31.61C62.4266 31.61 59.1387 28.3844 59.1387 23.5296ZM71.3976 23.5296C71.3976 20.8566 69.8921 18.9823 67.4652 18.9823C65.0384 18.9823 63.5634 20.8566 63.5634 23.5296C63.5634 26.2027 65.0384 28.077 67.4652 28.077C69.8921 28.077 71.3976 26.2027 71.3976 23.5296Z" fill="white"/>
<path d="M94.5938 23.5603C94.5938 28.4763 91.5214 31.61 87.2816 31.61C85.0998 31.61 83.533 30.7194 82.5198 29.4283V37.5699H78.188V15.6331H81.9672L82.3972 17.8149C83.4115 16.4625 85.009 15.4493 87.252 15.4493C91.5225 15.4186 94.5949 18.583 94.5949 23.5603H94.5938ZM90.2008 23.499C90.2008 20.826 88.6646 18.9823 86.299 18.9823C83.9334 18.9823 82.4585 20.826 82.4585 23.499C82.4585 26.172 83.9334 28.077 86.299 28.077C88.6646 28.077 90.2008 26.2027 90.2008 23.499Z" fill="white"/>
<path d="M96.4681 20.6728C96.4681 14.0674 100.493 9.73451 107.007 9.73451C112.107 9.73451 115.702 12.9295 116.255 17.6004H111.585C111.032 15.2042 109.311 13.6373 106.761 13.6373C103.258 13.6373 101.169 16.5259 101.169 20.6728C101.169 24.8197 103.227 27.7082 106.699 27.7082C109.31 27.7082 111.03 26.1414 111.584 23.7452H116.223C115.701 28.4151 111.983 31.6111 106.729 31.6111C100.338 31.6111 96.467 27.2793 96.467 20.6728H96.4681Z" fill="white"/>
<path d="M117.884 23.5296C117.884 18.6749 121.172 15.4493 126.211 15.4493C131.249 15.4493 134.537 18.6749 134.537 23.5296C134.537 28.3844 131.249 31.61 126.211 31.61C121.172 31.61 117.884 28.3844 117.884 23.5296ZM130.143 23.5296C130.143 20.8566 128.637 18.9823 126.211 18.9823C123.784 18.9823 122.309 20.8566 122.309 23.5296C122.309 26.2027 123.784 28.077 126.211 28.077C128.637 28.077 130.143 26.2027 130.143 23.5296Z" fill="white"/>
<path d="M161.666 22.3622V31.4262H157.334V22.6083C157.334 20.2428 156.474 19.014 154.6 19.014C152.725 19.014 151.466 20.397 151.466 22.7932V31.4262H147.134V22.6083C147.134 20.2428 146.274 19.014 144.369 19.014C142.464 19.014 141.266 20.4583 141.266 22.8239V31.4262H136.934V15.6342H140.714L141.113 17.6004C142.066 16.3716 143.448 15.4799 145.752 15.4493C147.688 15.4186 149.501 16.1255 150.483 18.1223C151.589 16.4329 153.433 15.4493 155.829 15.4493C159.086 15.4493 161.667 17.2929 161.667 22.3622H161.666Z" fill="white"/>
</svg>
