<svg width="20" height="20" viewBox="0 0 20 20" fill="none" xmlns="http://www.w3.org/2000/svg">
<path d="M18.2453 11.1117C18.1651 11.0313 18.0646 10.9743 17.9545 10.9468C17.8443 10.9193 17.7288 10.9223 17.6203 10.9554C16.4285 11.3157 15.1614 11.3459 13.9538 11.0428C12.7463 10.7397 11.6436 10.1147 10.7632 9.23436C9.88284 8.354 9.25782 7.2513 8.95474 6.04374C8.65165 4.83619 8.68186 3.56903 9.04214 2.37729C9.07558 2.26869 9.07878 2.15304 9.0514 2.04276C9.02403 1.93249 8.9671 1.83176 8.88676 1.75142C8.80642 1.67107 8.70569 1.61415 8.59541 1.58677C8.48514 1.5594 8.36948 1.5626 8.26089 1.59604C6.61326 2.10076 5.16678 3.11228 4.1273 4.48666C3.21825 5.69358 2.66375 7.13008 2.5261 8.63476C2.38845 10.1395 2.67311 11.6527 3.34809 13.0045C4.02307 14.3564 5.06163 15.4932 6.34709 16.2873C7.63255 17.0814 9.11398 17.5014 10.625 17.4999C12.3877 17.5053 14.1036 16.9323 15.5093 15.8687C16.8837 14.8292 17.8952 13.3827 18.4 11.7351C18.433 11.6269 18.4361 11.5118 18.4088 11.402C18.3816 11.2922 18.3251 11.1918 18.2453 11.1117ZM14.7578 14.8703C13.434 15.8673 11.7946 16.3527 10.1413 16.2369C8.48808 16.1211 6.9323 15.4121 5.76038 14.2403C4.58845 13.0684 3.87926 11.5127 3.76337 9.85947C3.64747 8.20624 4.13267 6.56679 5.12964 5.24291C5.77918 4.38515 6.61891 3.68982 7.58277 3.21166C7.52786 3.59699 7.50019 3.98572 7.49995 4.37494C7.50223 6.52913 8.35898 8.59443 9.88222 10.1177C11.4055 11.6409 13.4708 12.4977 15.625 12.4999C16.015 12.4998 16.4045 12.4721 16.7906 12.4171C16.312 13.3811 15.6161 14.2209 14.7578 14.8703Z" fill="black"/>
</svg>
