<svg width="26" height="26" viewBox="0 0 26 26" fill="none" xmlns="http://www.w3.org/2000/svg">
<g clip-path="url(#clip0_7_491)">
<path d="M25.7476 10.026C25.5835 9.5184 25.1332 9.15786 24.6006 9.10985L17.3648 8.45284L14.5036 1.75589C14.2926 1.26509 13.8121 0.947388 13.2783 0.947388C12.7445 0.947388 12.264 1.26509 12.053 1.75704L9.19182 8.45284L1.95491 9.10985C1.42318 9.15901 0.974077 9.5184 0.809011 10.026C0.643944 10.5337 0.796387 11.0905 1.19863 11.4414L6.668 16.2381L5.05521 23.3425C4.9372 23.8648 5.13995 24.4048 5.57336 24.7181C5.80633 24.8864 6.07889 24.9721 6.35375 24.9721C6.59073 24.9721 6.8258 24.9082 7.03677 24.782L13.2783 21.0516L19.5175 24.782C19.9741 25.0566 20.5496 25.0316 20.9821 24.7181C21.4157 24.4038 21.6183 23.8637 21.5003 23.3425L19.8875 16.2381L25.3568 11.4424C25.7591 11.0905 25.9127 10.5346 25.7476 10.026Z" fill="#F53700"/>
</g>
<defs>
<clipPath id="clip0_7_491">
<rect width="25.0695" height="25.0695" fill="white" transform="translate(0.743408 0.409424)"/>
</clipPath>
</defs>
</svg>
