<svg width="24" height="24" viewBox="0 0 24 24" fill="none" xmlns="http://www.w3.org/2000/svg">
<path d="M11.3333 4.66667V2.66667C11.3333 2.48986 11.4036 2.32029 11.5286 2.19526C11.6536 2.07024 11.8232 2 12 2C12.1768 2 12.3464 2.07024 12.4714 2.19526C12.5964 2.32029 12.6667 2.48986 12.6667 2.66667V4.66667C12.6667 4.84348 12.5964 5.01305 12.4714 5.13807C12.3464 5.2631 12.1768 5.33333 12 5.33333C11.8232 5.33333 11.6536 5.2631 11.5286 5.13807C11.4036 5.01305 11.3333 4.84348 11.3333 4.66667ZM17.3333 12C17.3333 13.0548 17.0205 14.086 16.4345 14.963C15.8485 15.8401 15.0155 16.5237 14.041 16.9274C13.0664 17.331 11.9941 17.4366 10.9595 17.2309C9.92495 17.0251 8.97464 16.5171 8.22876 15.7712C7.48288 15.0254 6.97493 14.075 6.76915 13.0405C6.56336 12.0059 6.66898 10.9336 7.07264 9.95902C7.47631 8.98448 8.1599 8.15153 9.03696 7.5655C9.91402 6.97946 10.9452 6.66667 12 6.66667C13.414 6.66821 14.7697 7.23061 15.7695 8.23047C16.7694 9.23033 17.3318 10.586 17.3333 12ZM16 12C16 11.2089 15.7654 10.4355 15.3259 9.77772C14.8864 9.11992 14.2616 8.60723 13.5307 8.30448C12.7998 8.00173 11.9956 7.92252 11.2196 8.07686C10.4437 8.2312 9.73098 8.61216 9.17157 9.17157C8.61216 9.73098 8.2312 10.4437 8.07686 11.2196C7.92252 11.9956 8.00173 12.7998 8.30448 13.5307C8.60723 14.2616 9.11992 14.8864 9.77772 15.3259C10.4355 15.7654 11.2089 16 12 16C13.0605 15.9989 14.0773 15.5771 14.8272 14.8272C15.5771 14.0773 15.9989 13.0605 16 12ZM6.195 7.13833C6.32009 7.26343 6.48976 7.3337 6.66667 7.3337C6.84358 7.3337 7.01324 7.26343 7.13833 7.13833C7.26343 7.01324 7.3337 6.84358 7.3337 6.66667C7.3337 6.48976 7.26343 6.32009 7.13833 6.195L5.805 4.86167C5.67991 4.73657 5.51024 4.6663 5.33333 4.6663C5.15642 4.6663 4.98676 4.73657 4.86167 4.86167C4.73657 4.98676 4.6663 5.15642 4.6663 5.33333C4.6663 5.51024 4.73657 5.67991 4.86167 5.805L6.195 7.13833ZM6.195 16.8617L4.86167 18.195C4.73657 18.3201 4.6663 18.4898 4.6663 18.6667C4.6663 18.8436 4.73657 19.0132 4.86167 19.1383C4.98676 19.2634 5.15642 19.3337 5.33333 19.3337C5.51024 19.3337 5.67991 19.2634 5.805 19.1383L7.13833 17.805C7.20027 17.7431 7.24941 17.6695 7.28293 17.5886C7.31645 17.5077 7.3337 17.4209 7.3337 17.3333C7.3337 17.2457 7.31645 17.159 7.28293 17.0781C7.24941 16.9971 7.20027 16.9236 7.13833 16.8617C7.07639 16.7997 7.00286 16.7506 6.92193 16.7171C6.841 16.6835 6.75426 16.6663 6.66667 16.6663C6.57907 16.6663 6.49233 16.6835 6.4114 16.7171C6.33047 16.7506 6.25694 16.7997 6.195 16.8617ZM17.3333 7.33333C17.4209 7.3334 17.5076 7.31622 17.5886 7.28276C17.6695 7.2493 17.743 7.20022 17.805 7.13833L19.1383 5.805C19.2634 5.67991 19.3337 5.51024 19.3337 5.33333C19.3337 5.15642 19.2634 4.98676 19.1383 4.86167C19.0132 4.73657 18.8436 4.6663 18.6667 4.6663C18.4898 4.6663 18.3201 4.73657 18.195 4.86167L16.8617 6.195C16.7683 6.28824 16.7047 6.40707 16.679 6.53646C16.6532 6.66585 16.6664 6.79998 16.7169 6.92186C16.7674 7.04374 16.8529 7.1479 16.9627 7.22115C17.0724 7.29439 17.2014 7.33344 17.3333 7.33333ZM17.805 16.8617C17.6799 16.7366 17.5102 16.6663 17.3333 16.6663C17.1564 16.6663 16.9868 16.7366 16.8617 16.8617C16.7366 16.9868 16.6663 17.1564 16.6663 17.3333C16.6663 17.5102 16.7366 17.6799 16.8617 17.805L18.195 19.1383C18.2569 19.2003 18.3305 19.2494 18.4114 19.2829C18.4923 19.3165 18.5791 19.3337 18.6667 19.3337C18.7543 19.3337 18.841 19.3165 18.9219 19.2829C19.0029 19.2494 19.0764 19.2003 19.1383 19.1383C19.2003 19.0764 19.2494 19.0029 19.2829 18.9219C19.3165 18.841 19.3337 18.7543 19.3337 18.6667C19.3337 18.5791 19.3165 18.4923 19.2829 18.4114C19.2494 18.3305 19.2003 18.2569 19.1383 18.195L17.805 16.8617ZM5.33333 12C5.33333 11.8232 5.2631 11.6536 5.13807 11.5286C5.01305 11.4036 4.84348 11.3333 4.66667 11.3333H2.66667C2.48986 11.3333 2.32029 11.4036 2.19526 11.5286C2.07024 11.6536 2 11.8232 2 12C2 12.1768 2.07024 12.3464 2.19526 12.4714C2.32029 12.5964 2.48986 12.6667 2.66667 12.6667H4.66667C4.84348 12.6667 5.01305 12.5964 5.13807 12.4714C5.2631 12.3464 5.33333 12.1768 5.33333 12ZM12 18.6667C11.8232 18.6667 11.6536 18.7369 11.5286 18.8619C11.4036 18.987 11.3333 19.1565 11.3333 19.3333V21.3333C11.3333 21.5101 11.4036 21.6797 11.5286 21.8047C11.6536 21.9298 11.8232 22 12 22C12.1768 22 12.3464 21.9298 12.4714 21.8047C12.5964 21.6797 12.6667 21.5101 12.6667 21.3333V19.3333C12.6667 19.1565 12.5964 18.987 12.4714 18.8619C12.3464 18.7369 12.1768 18.6667 12 18.6667ZM21.3333 11.3333H19.3333C19.1565 11.3333 18.987 11.4036 18.8619 11.5286C18.7369 11.6536 18.6667 11.8232 18.6667 12C18.6667 12.1768 18.7369 12.3464 18.8619 12.4714C18.987 12.5964 19.1565 12.6667 19.3333 12.6667H21.3333C21.5101 12.6667 21.6797 12.5964 21.8047 12.4714C21.9298 12.3464 22 12.1768 22 12C22 11.8232 21.9298 11.6536 21.8047 11.5286C21.6797 11.4036 21.5101 11.3333 21.3333 11.3333Z" fill="#FF3B00"/>
</svg>
